<svg id="Layer_1" data-name="Layer 1" xmlns="http://www.w3.org/2000/svg" xmlns:xlink="http://www.w3.org/1999/xlink" viewBox="0 0 1134.78 469.84"><defs><style>.cls-1,.cls-142,.cls-33{fill:none;}.cls-2{clip-path:url(#clip-path);}.cls-3{fill:#9bb972;}.cls-4{clip-path:url(#clip-path-2);}.cls-5{fill:#aac2c3;}.cls-6{fill:#769c9e;}.cls-7{fill:#165e60;}.cls-22,.cls-8{font-size:21.6px;fill:#fff;}.cls-143,.cls-162,.cls-22,.cls-28,.cls-34,.cls-8{font-family:MyriadPro-Regular, Myriad Pro;}.cls-8{letter-spacing:-0.02em;}.cls-9{letter-spacing:-0.02em;}.cls-10{letter-spacing:-0.02em;}.cls-11{letter-spacing:0em;}.cls-12{clip-path:url(#clip-path-3);}.cls-13{opacity:0.45;}.cls-14{clip-path:url(#clip-path-4);}.cls-15{fill:#eef3e7;}.cls-16{clip-path:url(#clip-path-5);}.cls-17{opacity:0.35;}.cls-18{clip-path:url(#clip-path-6);}.cls-19{fill:#ebf1f1;}.cls-20{fill:#c3d4d5;}.cls-21{fill:#bbcecf;}.cls-23{letter-spacing:-0.02em;}.cls-24{letter-spacing:-0.02em;}.cls-25{clip-path:url(#clip-path-8);}.cls-26{opacity:0.25;}.cls-27{clip-path:url(#clip-path-9);}.cls-28{font-size:225px;fill:#d4e0df;}.cls-29{letter-spacing:-0.02em;}.cls-30{letter-spacing:-0.02em;}.cls-31{letter-spacing:-0.02em;}.cls-32{fill:#d7e3c7;}.cls-33{stroke:#9bb972;}.cls-34{font-size:9px;}.cls-118,.cls-34{fill:#1d1d1b;}.cls-35{letter-spacing:0.11em;}.cls-36{letter-spacing:0em;}.cls-37{letter-spacing:0.01em;}.cls-38{letter-spacing:0em;}.cls-39{letter-spacing:0em;}.cls-40{letter-spacing:-0.01em;}.cls-41{letter-spacing:-0.01em;}.cls-42{letter-spacing:-0.01em;}.cls-43{letter-spacing:0em;}.cls-44{letter-spacing:0.01em;}.cls-45{letter-spacing:0em;}.cls-46{letter-spacing:-0.01em;}.cls-47{letter-spacing:0.11em;}.cls-48{letter-spacing:-0.01em;}.cls-49{letter-spacing:-0.05em;}.cls-50{letter-spacing:-0.02em;}.cls-51{letter-spacing:-0.02em;}.cls-52{letter-spacing:-0.15em;}.cls-53{letter-spacing:0.03em;}.cls-54{letter-spacing:0.03em;}.cls-55{letter-spacing:0.03em;}.cls-56{letter-spacing:-0.01em;}.cls-57{letter-spacing:-0.01em;}.cls-58{letter-spacing:0.02em;}.cls-59{letter-spacing:0em;}.cls-60{letter-spacing:0em;}.cls-61{letter-spacing:0em;}.cls-62{letter-spacing:0.01em;}.cls-63{letter-spacing:0.03em;}.cls-64{letter-spacing:0.03em;}.cls-65{letter-spacing:-0.01em;}.cls-66{letter-spacing:0em;}.cls-67{letter-spacing:-0.03em;}.cls-68{letter-spacing:-0.01em;}.cls-69{letter-spacing:0.05em;}.cls-70{letter-spacing:0.05em;}.cls-71{letter-spacing:-0.01em;}.cls-72{letter-spacing:0em;}.cls-73{letter-spacing:-0.01em;}.cls-74{letter-spacing:0.05em;}.cls-75{letter-spacing:0em;}.cls-76{letter-spacing:0.02em;}.cls-77{letter-spacing:0.02em;}.cls-78{letter-spacing:0.02em;}.cls-79{letter-spacing:-0.01em;}.cls-80{letter-spacing:0.12em;}.cls-81{letter-spacing:0.02em;}.cls-82{letter-spacing:0.12em;}.cls-83{letter-spacing:0em;}.cls-84{letter-spacing:0.08em;}.cls-85{letter-spacing:-0.07em;}.cls-86{letter-spacing:0em;}.cls-87{letter-spacing:0.12em;}.cls-88{letter-spacing:-0.01em;}.cls-89{letter-spacing:-0.04em;}.cls-90{letter-spacing:-0.11em;}.cls-91{letter-spacing:-0.02em;}.cls-92{letter-spacing:0.16em;}.cls-93{letter-spacing:0em;}.cls-94{letter-spacing:0.01em;}.cls-95{letter-spacing:0.16em;}.cls-96{letter-spacing:-0.01em;}.cls-97{letter-spacing:0em;}.cls-98{letter-spacing:0.16em;}.cls-99{letter-spacing:-0.01em;}.cls-100{letter-spacing:0.07em;}.cls-101{letter-spacing:0em;}.cls-102{letter-spacing:0.07em;}.cls-103{letter-spacing:-0.01em;}.cls-104{letter-spacing:-0.01em;}.cls-105{letter-spacing:-0.01em;}.cls-106{letter-spacing:0.04em;}.cls-107{letter-spacing:0.04em;}.cls-108{letter-spacing:0.04em;}.cls-109{letter-spacing:-0.01em;}.cls-110{letter-spacing:0.15em;}.cls-111{letter-spacing:0.15em;}.cls-112{letter-spacing:0.15em;}.cls-113{letter-spacing:0.15em;}.cls-114{letter-spacing:0.03em;}.cls-115{letter-spacing:0.03em;}.cls-116{letter-spacing:-0.01em;}.cls-117{letter-spacing:0.02em;}.cls-119{letter-spacing:0.01em;}.cls-120{letter-spacing:0.12em;}.cls-121{letter-spacing:0.12em;}.cls-122{letter-spacing:-0.01em;}.cls-123{letter-spacing:-0.01em;}.cls-124{letter-spacing:-0.01em;}.cls-125{letter-spacing:-0.01em;}.cls-126{letter-spacing:0.01em;}.cls-127{letter-spacing:0.01em;}.cls-128{letter-spacing:-0.11em;}.cls-129{letter-spacing:-0.03em;}.cls-130{letter-spacing:0.01em;}.cls-131{letter-spacing:-0.04em;}.cls-132,.cls-134,.cls-138,.cls-143{fill:#1f5f60;}.cls-133{fill:#7aa0a1;}.cls-134,.cls-154{font-size:10.5px;}.cls-134,.cls-138,.cls-154,.cls-159{font-family:MyriadPro-Bold, Myriad Pro;font-weight:700;}.cls-135{letter-spacing:-0.03em;}.cls-136{letter-spacing:0em;}.cls-137{letter-spacing:0em;}.cls-138,.cls-159{font-size:10.53px;}.cls-139{letter-spacing:-0.19em;}.cls-140{letter-spacing:-0.19em;}.cls-141{letter-spacing:-0.19em;}.cls-142{stroke:#266061;}.cls-143,.cls-162{font-size:8px;}.cls-144{letter-spacing:0em;}.cls-145{letter-spacing:0em;}.cls-146{letter-spacing:-0.04em;}.cls-147{letter-spacing:-0.03em;}.cls-148{letter-spacing:-0.05em;}.cls-149{letter-spacing:-0.04em;}.cls-150{letter-spacing:0em;}.cls-151{letter-spacing:-0.08em;}.cls-152{clip-path:url(#clip-path-11);}.cls-153,.cls-154,.cls-159,.cls-162{fill:#266061;}.cls-155{letter-spacing:-0.03em;}.cls-156{letter-spacing:0em;}.cls-157{letter-spacing:0em;}.cls-158{letter-spacing:0em;}.cls-160{letter-spacing:-0.19em;}.cls-161{letter-spacing:-0.19em;}.cls-163{letter-spacing:0em;}.cls-164{letter-spacing:-0.04em;}.cls-165{letter-spacing:-0.03em;}.cls-166{letter-spacing:0em;}.cls-167{letter-spacing:-0.04em;}.cls-168{letter-spacing:0em;}</style><clipPath id="clip-path" transform="translate(52.67 11.54)"><polygon class="cls-1" points="-35.81 458.3 675.35 472.3 674.97 -11.54 -35.81 -5.89 -35.81 458.3"/></clipPath><clipPath id="clip-path-2" transform="translate(52.67 11.54)"><rect class="cls-1" x="-73.81" y="-5.54" width="1408.7" height="477.84"/></clipPath><clipPath id="clip-path-3" transform="translate(52.67 11.54)"><rect class="cls-1" x="-79.81" y="-5.54" width="1408.7" height="477.84"/></clipPath><clipPath id="clip-path-4" transform="translate(52.67 11.54)"><rect class="cls-1" x="299.92" y="372.89" width="93.46" height="21.65"/></clipPath><clipPath id="clip-path-5" transform="translate(52.67 11.54)"><rect class="cls-1" x="520.7" y="372.51" width="151.79" height="22.03"/></clipPath><clipPath id="clip-path-6" transform="translate(52.67 11.54)"><rect class="cls-1" x="-76.01" y="60.42" width="410.19" height="398.2"/></clipPath><clipPath id="clip-path-8" transform="translate(52.67 11.54)"><rect class="cls-1" x="-6.78" y="33.8" width="48.61" height="36.06"/></clipPath><clipPath id="clip-path-9" transform="translate(52.67 11.54)"><polygon class="cls-1" points="-18.23 398.57 674.97 402.4 672.65 96.07 -18.23 96.07 -18.23 398.57"/></clipPath><clipPath id="clip-path-11" transform="translate(52.67 11.54)"><rect class="cls-1" x="-85.81" y="-5.54" width="1408.7" height="477.84"/></clipPath></defs><title>cover_template</title><g class="cls-2"><rect class="cls-3" x="16.86" width="710.79" height="469.84"/><g class="cls-4"><path class="cls-5" d="M382.45,123.08C387.81,108,393.09,93.62,398,79.13c1.64-4.92,4.54-4.28,8.2-3.31a303.67,303.67,0,0,1,59,22.31C530.05,131,579.67,180,616.55,242.24c25.58,43.16,41.72,89.69,47.67,139.51,2.57,21.54,3.22,43.29.78,65-.76,6.7-.84,6.86-7.6,6.52-13.73-.67-27.44-1.61-41.17-2.28-4.12-.2-5.62-1.72-5-6,8.06-54.17-4.33-104.76-28-153-26-53.26-62.85-97.62-112-131.26-24.19-16.55-50.29-29-79.21-35-2.79-.58-5.51-1.47-9.63-2.59" transform="translate(52.67 11.54)"/><path class="cls-6" d="M507.3,444.49c-1.58-2.84-1.05-4.77-.82-6.63,4.61-36.49-3.58-70.58-20.08-102.83-19.35-37.83-46.56-68.61-83.86-89.78-15.68-8.9-32.28-15.27-50.31-17.57-6.26-.8-6.37-1-4.23-7.22,4.7-13.58,9.67-27.06,14.26-40.68,1.33-4,3.1-4.51,7.05-3.61,27.9,6.31,53,18.63,75.79,35.58,56.73,42.27,93.72,97.84,110.23,166.74a199,199,0,0,1,4.61,62.84c-.3,3.68-1,6-5.53,5.69-15.91-1-31.83-1.73-47.11-2.53" transform="translate(52.67 11.54)"/><path class="cls-7" d="M425.19,439.45c-5.75-.3-11.51-.88-17.25-.82-5.07.06-6.29-2.15-6.54-6.92-1.93-36.76-17.59-66.89-44.9-91.18-10.61-9.44-22.8-16.39-35.94-21.71-6.43-2.61-6.5-2.64-4.43-8.61,3.68-10.56,7.63-21,11.1-31.65,1.52-4.64,3.12-5.69,8.19-3.92,34.1,11.89,61.05,33,81.84,62.23C436.67,364.12,447,394.6,448.6,428c.6,12.83.57,12.83-11.92,12.12-3.83-.21-7.67-.4-11.5-.6v-.11" transform="translate(52.67 11.54)"/></g><text class="cls-8" transform="translate(458.81 404.94) scale(1 1.11)">S<tspan class="cls-9" x="10.22" y="0">EP</tspan><tspan x="31.51" y="0">T</tspan><tspan class="cls-10" x="41.82" y="0">EMBE</tspan><tspan class="cls-11" x="90.5" y="0">R</tspan></text><g class="cls-12"><g class="cls-13"><g class="cls-14"><rect class="cls-15" x="359.59" y="391.42" width="75.46" height="13.65"/></g></g><g class="cls-13"><g class="cls-16"><rect class="cls-15" x="582.37" y="391.05" width="133.79" height="14.03"/></g></g><g class="cls-17"><g class="cls-18"><path class="cls-19" d="M14.85,126.15C20.22,111,25.5,96.69,30.35,82.2c1.65-4.92,4.55-4.28,8.2-3.3A303.36,303.36,0,0,1,97.6,101.21c64.86,32.87,114.47,81.85,151.36,144.1,25.57,43.16,41.72,89.69,47.66,139.51,2.57,21.54,3.23,43.29.78,65-.75,6.7-.84,6.86-7.6,6.52-13.72-.67-27.44-1.61-41.17-2.28-4.11-.2-5.61-1.72-5-6,8-54.17-4.34-104.76-28-153-26-53.27-62.85-97.63-112-131.26-24.2-16.56-50.29-29-79.22-35-2.78-.57-5.5-1.47-9.63-2.59" transform="translate(52.67 11.54)"/><path class="cls-20" d="M139.7,447.56c-1.58-2.84-1-4.77-.81-6.63,4.61-36.49-3.58-70.58-20.08-102.83C99.46,300.27,72.25,269.49,35,248.32c-15.68-8.9-32.29-15.27-50.32-17.57-6.25-.8-6.37-1-4.23-7.22,4.71-13.58,9.68-27.06,14.26-40.68,1.33-4,3.1-4.51,7.06-3.61,27.9,6.31,53,18.63,75.78,35.58,56.74,42.27,93.73,97.84,110.24,166.74a199.54,199.54,0,0,1,4.61,62.84c-.3,3.68-1,6-5.53,5.69-15.91-1-31.83-1.73-47.12-2.53" transform="translate(52.67 11.54)"/><path class="cls-21" d="M57.59,442.52c-5.75-.3-11.5-.88-17.25-.82-5.07.06-6.28-2.15-6.53-6.92-1.93-36.76-17.6-66.89-44.9-91.18C-21.71,334.16-33.9,327.21-47,321.89c-6.43-2.61-6.5-2.64-4.43-8.61,3.67-10.56,7.63-21,11.1-31.65,1.51-4.64,3.12-5.69,8.19-3.92,34.09,11.89,61.05,33,81.84,62.23C69.08,367.19,79.44,397.67,81,431.11c.6,12.83.57,12.83-11.91,12.13-3.84-.22-7.67-.41-11.5-.61v-.11" transform="translate(52.67 11.54)"/></g></g></g><text class="cls-22" transform="translate(94.06 74.59) scale(1 1.11)"><tspan class="cls-23">SE</tspan><tspan class="cls-24" x="20.46" y="0">PT</tspan><tspan class="cls-9" x="41.82" y="0">EMBE</tspan><tspan x="90.5" y="0">R</tspan></text><g class="cls-4"><g class="cls-13"><g class="cls-25"><rect class="cls-15" x="54.89" y="52.33" width="30.61" height="28.06"/></g></g><g class="cls-26"><g class="cls-27"><text class="cls-28" transform="translate(70.77 346.61) scale(1 1.11)"><tspan class="cls-29">SE</tspan><tspan class="cls-30" x="213.07" y="0">P</tspan><tspan class="cls-31" x="328.27" y="0">TEMBE</tspan><tspan x="942.96" y="0">R</tspan></text></g></g><path class="cls-32" d="M6.55,83.08s-5.67,0-5.67,5.67v214.1s0,5.67,5.67,5.67H292.31s5.67,0,5.67-5.67V88.75s0-5.67-5.67-5.67Z" transform="translate(52.67 11.54)"/><path class="cls-33" d="M6.55,83.08s-5.67,0-5.67,5.67v214.1s0,5.67,5.67,5.67H292.31s5.67,0,5.67-5.67V88.75s0-5.67-5.67-5.67Z" transform="translate(52.67 11.54)"/></g><text class="cls-34" transform="translate(82.49 112.23)"><tspan class="cls-35" xml:space="preserve">       </tspan><tspan x="20.16" y="0">«</tspan><tspan class="cls-36" x="23.93" y="0">“</tspan><tspan class="cls-37" x="27.1" y="0">M</tspan><tspan class="cls-38" x="34.4" y="0">y</tspan><tspan class="cls-35" x="38.64" y="0"> </tspan><tspan x="41.52" y="0">f</tspan><tspan class="cls-39" x="44.14" y="0">r</tspan><tspan x="47.12" y="0">iend</tspan><tspan class="cls-40" x="63.81" y="0">s</tspan><tspan x="67.28" y="0">,</tspan><tspan class="cls-35" x="69.15" y="0"> </tspan><tspan x="72.03" y="0">Jesus</tspan><tspan class="cls-35" x="91.95" y="0"> </tspan><tspan x="94.83" y="0">is</tspan><tspan class="cls-35" x="100.5" y="0"> </tspan><tspan x="103.38" y="0">the</tspan><tspan class="cls-35" x="115.86" y="0"> </tspan><tspan class="cls-41" x="118.74" y="0">L</tspan><tspan x="122.87" y="0">o</tspan><tspan class="cls-42" x="127.82" y="0">r</tspan><tspan x="130.68" y="0">d</tspan><tspan class="cls-35" x="135.75" y="0"> </tspan><tspan x="138.63" y="0">of</tspan><tspan class="cls-35" x="146.2" y="0"> </tspan><tspan class="cls-43" x="149.08" y="0">r</tspan><tspan x="152.05" y="0">is</tspan><tspan class="cls-44" x="157.72" y="0">k</tspan><tspan x="162.06" y="0">,</tspan><tspan class="cls-35" x="163.92" y="0"> </tspan><tspan class="cls-45" x="166.8" y="0">he</tspan><tspan class="cls-35" x="176.31" y="0"> </tspan><tspan x="179.19" y="0">is</tspan><tspan class="cls-35" x="184.86" y="0"> </tspan><tspan x="187.74" y="0">the</tspan><tspan class="cls-35" x="200.22" y="0"> </tspan><tspan class="cls-41" x="203.1" y="0">L</tspan><tspan class="cls-38" x="207.23" y="0">o</tspan><tspan class="cls-46" x="212.17" y="0">r</tspan><tspan x="215.03" y="0">d</tspan><tspan class="cls-47" x="220.11" y="0"> </tspan><tspan x="222.99" y="0">of</tspan><tspan class="cls-47" x="230.56" y="0"> </tspan><tspan x="233.44" y="0">the </tspan></text><text class="cls-34" transform="translate(82.49 122.23)">e<tspan class="cls-48" x="4.51" y="0">t</tspan><tspan x="7.43" y="0">e</tspan><tspan class="cls-39" x="11.94" y="0">r</tspan><tspan class="cls-45" x="14.92" y="0">nal</tspan><tspan class="cls-49" x="26.38" y="0"> </tspan><tspan class="cls-50" x="27.83" y="0">“</tspan><tspan x="30.82" y="0">mo</tspan><tspan class="cls-40" x="43.26" y="0">r</tspan><tspan class="cls-51" x="46.12" y="0">e</tspan><tspan class="cls-52" x="50.41" y="0">”</tspan><tspan x="52.22" y="0">.</tspan><tspan class="cls-53" x="54.08" y="0"> </tspan><tspan x="56.28" y="0">Jesus</tspan><tspan class="cls-53" x="76.2" y="0"> </tspan><tspan x="78.4" y="0">is</tspan><tspan class="cls-54" x="84.07" y="0"> </tspan><tspan x="86.25" y="0">not</tspan><tspan class="cls-53" x="99.17" y="0"> </tspan><tspan x="101.37" y="0">the</tspan><tspan class="cls-55" x="113.85" y="0"> </tspan><tspan class="cls-41" x="116.03" y="0">L</tspan><tspan class="cls-38" x="120.17" y="0">o</tspan><tspan class="cls-56" x="125.11" y="0">r</tspan><tspan x="127.96" y="0">d</tspan><tspan class="cls-53" x="133.04" y="0"> </tspan><tspan x="135.23" y="0">of</tspan><tspan class="cls-54" x="142.8" y="0"> </tspan><tspan class="cls-48" x="144.99" y="0">c</tspan><tspan x="148.97" y="0">om</tspan><tspan class="cls-57" x="161.41" y="0">f</tspan><tspan x="163.93" y="0">o</tspan><tspan class="cls-58" x="168.87" y="0">r</tspan><tspan class="cls-59" x="172.03" y="0">t</tspan><tspan class="cls-38" x="174.98" y="0">,</tspan><tspan class="cls-55" x="176.85" y="0"> </tspan><tspan x="179.03" y="0">secu</tspan><tspan class="cls-60" x="196.1" y="0">r</tspan><tspan class="cls-61" x="199.07" y="0">i</tspan><tspan class="cls-62" x="201.17" y="0">t</tspan><tspan x="204.22" y="0">y</tspan><tspan class="cls-63" x="208.46" y="0"> </tspan><tspan x="210.65" y="0">and</tspan><tspan class="cls-64" x="225.06" y="0"> </tspan><tspan x="227.25" y="0">eas</tspan><tspan class="cls-65" x="239.67" y="0">e</tspan><tspan class="cls-66" x="244.08" y="0">. </tspan></text><text class="cls-34" transform="translate(82.49 132.23)"><tspan class="cls-67">F</tspan><tspan class="cls-38" x="4.11" y="0">oll</tspan><tspan class="cls-68" x="13.3" y="0">o</tspan><tspan x="18.18" y="0">wing</tspan><tspan class="cls-69" x="36.94" y="0"> </tspan><tspan x="39.32" y="0">Jesus</tspan><tspan class="cls-69" x="59.25" y="0"> </tspan><tspan x="61.63" y="0">demands</tspan><tspan class="cls-69" x="96.69" y="0"> </tspan><tspan x="99.08" y="0">a</tspan><tspan class="cls-70" x="103.42" y="0"> </tspan><tspan x="105.8" y="0">good</tspan><tspan class="cls-69" x="125.79" y="0"> </tspan><tspan x="128.18" y="0">dose</tspan><tspan class="cls-69" x="146.27" y="0"> </tspan><tspan x="148.65" y="0">of</tspan><tspan class="cls-70" x="156.22" y="0"> </tspan><tspan class="cls-71" x="158.6" y="0">c</tspan><tspan x="162.59" y="0">ou</tspan><tspan class="cls-72" x="172.49" y="0">r</tspan><tspan x="175.39" y="0">ag</tspan><tspan class="cls-73" x="184.76" y="0">e</tspan><tspan x="189.17" y="0">,</tspan><tspan class="cls-69" x="191.03" y="0"> </tspan><tspan x="193.42" y="0">a</tspan><tspan class="cls-69" x="197.75" y="0"> </tspan><tspan class="cls-42" x="200.14" y="0">r</tspan><tspan x="203" y="0">eadiness</tspan><tspan class="cls-74" x="235.66" y="0"> </tspan><tspan class="cls-72" x="238.05" y="0">t</tspan><tspan x="240.98" y="0">o </tspan></text><text class="cls-34" transform="translate(82.49 142.23)">t<tspan class="cls-75" x="2.98" y="0">r</tspan><tspan x="5.89" y="0">ade</tspan><tspan class="cls-76" x="19.81" y="0"> </tspan><tspan x="21.86" y="0">in</tspan><tspan class="cls-76" x="28.96" y="0"> </tspan><tspan class="cls-45" x="31.01" y="0">the</tspan><tspan class="cls-76" x="43.5" y="0"> </tspan><tspan x="45.55" y="0">sofa</tspan><tspan class="cls-77" x="61.02" y="0"> </tspan><tspan class="cls-57" x="63.07" y="0">f</tspan><tspan x="65.59" y="0">or</tspan><tspan class="cls-76" x="73.47" y="0"> </tspan><tspan x="75.53" y="0">a</tspan><tspan class="cls-77" x="79.86" y="0"> </tspan><tspan x="81.92" y="0">pair</tspan><tspan class="cls-77" x="96.42" y="0"> </tspan><tspan x="98.48" y="0">of</tspan><tspan class="cls-76" x="106.04" y="0"> </tspan><tspan class="cls-59" x="108.1" y="0">w</tspan><tspan x="114.69" y="0">al</tspan><tspan class="cls-78" x="121.16" y="0">k</tspan><tspan x="125.52" y="0">ing</tspan><tspan class="cls-76" x="137.65" y="0"> </tspan><tspan x="139.7" y="0">shoes</tspan><tspan class="cls-77" x="161.28" y="0"> </tspan><tspan x="163.33" y="0">and</tspan><tspan class="cls-76" x="177.74" y="0"> </tspan><tspan class="cls-79" x="179.79" y="0">t</tspan><tspan x="182.71" y="0">o</tspan><tspan class="cls-77" x="187.66" y="0"> </tspan><tspan x="189.71" y="0">set</tspan><tspan class="cls-78" x="200.76" y="0"> </tspan><tspan class="cls-66" x="202.81" y="0">out</tspan><tspan class="cls-78" x="215.69" y="0"> </tspan><tspan x="217.74" y="0">on</tspan><tspan class="cls-76" x="227.68" y="0"> </tspan><tspan class="cls-66" x="229.73" y="0">new </tspan></text><text class="cls-34" transform="translate(82.49 152.23)">and<tspan class="cls-80" x="14.41" y="0"> </tspan><tspan x="17.42" y="0">uncha</tspan><tspan class="cls-81" x="40.74" y="0">r</tspan><tspan class="cls-79" x="43.89" y="0">t</tspan><tspan x="46.82" y="0">ed</tspan><tspan class="cls-82" x="56.4" y="0"> </tspan><tspan x="59.42" y="0">p</tspan><tspan class="cls-83" x="64.54" y="0">a</tspan><tspan x="68.85" y="0">th</tspan><tspan class="cls-40" x="76.82" y="0">s</tspan><tspan x="80.3" y="0">.</tspan><tspan class="cls-84" x="82.16" y="0"> </tspan><tspan class="cls-85" x="84.81" y="0">T</tspan><tspan x="88.64" y="0">o</tspan><tspan class="cls-80" x="93.58" y="0"> </tspan><tspan class="cls-45" x="96.6" y="0">bla</tspan><tspan class="cls-68" x="108.18" y="0">z</tspan><tspan x="111.97" y="0">e</tspan><tspan class="cls-80" x="116.48" y="0"> </tspan><tspan class="cls-45" x="119.49" y="0">t</tspan><tspan class="cls-86" x="122.47" y="0">r</tspan><tspan x="125.38" y="0">ails</tspan><tspan class="cls-82" x="137.51" y="0"> </tspan><tspan x="140.52" y="0">th</tspan><tspan class="cls-83" x="148.5" y="0">a</tspan><tspan x="152.81" y="0">t</tspan><tspan class="cls-82" x="155.79" y="0"> </tspan><tspan x="158.8" y="0">open</tspan><tspan class="cls-82" x="178.37" y="0"> </tspan><tspan x="181.38" y="0">up</tspan><tspan class="cls-82" x="191.46" y="0"> </tspan><tspan x="194.48" y="0">new</tspan><tspan class="cls-87" x="210.61" y="0"> </tspan><tspan x="213.62" y="0">ho</tspan><tspan class="cls-60" x="223.56" y="0">r</tspan><tspan x="226.53" y="0">i</tspan><tspan class="cls-88" x="228.63" y="0">z</tspan><tspan x="232.42" y="0">ons </tspan></text><text class="cls-34" transform="translate(82.49 162.23)">capable of sp<tspan class="cls-40" x="49.65" y="0">r</tspan><tspan x="52.5" y="0">eading j</tspan><tspan class="cls-68" x="82.65" y="0">o</tspan><tspan class="cls-89" x="87.53" y="0">y</tspan><tspan class="cls-90" x="91.43" y="0">.</tspan><tspan class="cls-45" x="92.28" y="0">”</tspan></text><text class="cls-34" transform="translate(82.49 175.06)"><tspan class="cls-91">“</tspan><tspan class="cls-39" x="3.05" y="0">G</tspan><tspan x="8.9" y="0">od</tspan><tspan class="cls-92" x="18.92" y="0"> </tspan><tspan class="cls-93" x="22.27" y="0">e</tspan><tspan x="26.76" y="0">xpe</tspan><tspan class="cls-94" x="40.55" y="0">c</tspan><tspan x="44.7" y="0">ts</tspan><tspan class="cls-95" x="51.25" y="0"> </tspan><tspan x="54.59" y="0">something</tspan><tspan class="cls-92" x="95.22" y="0"> </tspan><tspan x="98.57" y="0">f</tspan><tspan class="cls-40" x="101.19" y="0">r</tspan><tspan x="104.05" y="0">om</tspan><tspan class="cls-92" x="116.49" y="0"> </tspan><tspan class="cls-40" x="119.84" y="0">y</tspan><tspan x="123.99" y="0">o</tspan><tspan class="cls-96" x="128.93" y="0">u</tspan><tspan x="133.82" y="0">,</tspan><tspan class="cls-95" x="135.68" y="0"> </tspan><tspan class="cls-97" x="139.03" y="0">G</tspan><tspan x="144.88" y="0">od</tspan><tspan class="cls-92" x="154.9" y="0"> </tspan><tspan class="cls-83" x="158.24" y="0">w</tspan><tspan x="164.84" y="0">a</tspan><tspan class="cls-75" x="169.18" y="0">n</tspan><tspan x="174.14" y="0">ts</tspan><tspan class="cls-92" x="180.68" y="0"> </tspan><tspan x="184.03" y="0">something</tspan><tspan class="cls-98" x="224.66" y="0"> </tspan><tspan x="228" y="0">f</tspan><tspan class="cls-42" x="230.63" y="0">r</tspan><tspan class="cls-66" x="233.49" y="0">om </tspan></text><text class="cls-34" transform="translate(82.49 185.06)"><tspan class="cls-42">y</tspan><tspan class="cls-38" x="4.16" y="0">o</tspan><tspan class="cls-99" x="9.1" y="0">u</tspan><tspan x="13.99" y="0">.</tspan><tspan class="cls-100" x="15.85" y="0"> </tspan><tspan class="cls-101" x="18.35" y="0">G</tspan><tspan x="24.21" y="0">od</tspan><tspan class="cls-100" x="34.23" y="0"> </tspan><tspan class="cls-45" x="36.73" y="0">hopes</tspan><tspan class="cls-100" x="59.86" y="0"> </tspan><tspan x="62.36" y="0">in</tspan><tspan class="cls-100" x="69.46" y="0"> </tspan><tspan class="cls-40" x="71.96" y="0">y</tspan><tspan x="76.11" y="0">o</tspan><tspan class="cls-99" x="81.05" y="0">u</tspan><tspan class="cls-38" x="85.94" y="0">.</tspan><tspan class="cls-102" x="87.8" y="0"> </tspan><tspan class="cls-39" x="90.3" y="0">G</tspan><tspan x="96.15" y="0">od</tspan><tspan class="cls-100" x="106.17" y="0"> </tspan><tspan class="cls-48" x="108.67" y="0">c</tspan><tspan x="112.65" y="0">omes</tspan><tspan class="cls-100" x="133.17" y="0"> </tspan><tspan class="cls-72" x="135.67" y="0">t</tspan><tspan x="138.61" y="0">o</tspan><tspan class="cls-100" x="143.55" y="0"> </tspan><tspan x="146.05" y="0">b</tspan><tspan class="cls-56" x="151.17" y="0">r</tspan><tspan class="cls-38" x="154.02" y="0">eak</tspan><tspan class="cls-100" x="167.09" y="0"> </tspan><tspan x="169.59" y="0">d</tspan><tspan class="cls-79" x="174.67" y="0">o</tspan><tspan x="179.56" y="0">wn</tspan><tspan class="cls-100" x="191.18" y="0"> </tspan><tspan class="cls-45" x="193.68" y="0">all</tspan><tspan class="cls-100" x="202.26" y="0"> </tspan><tspan x="204.76" y="0">our</tspan><tspan class="cls-102" x="217.61" y="0"> </tspan><tspan class="cls-103" x="220.11" y="0">f</tspan><tspan x="222.63" y="0">en</tspan><tspan class="cls-104" x="232.13" y="0">c</tspan><tspan x="236.12" y="0">e</tspan><tspan class="cls-105" x="240.63" y="0">s</tspan><tspan class="cls-66" x="244.1" y="0">. </tspan></text><text class="cls-34" transform="translate(82.49 195.06)">He<tspan class="cls-106" x="10.38" y="0"> </tspan><tspan class="cls-48" x="12.64" y="0">c</tspan><tspan x="16.62" y="0">omes</tspan><tspan class="cls-107" x="37.14" y="0"> </tspan><tspan class="cls-79" x="39.41" y="0">t</tspan><tspan x="42.34" y="0">o</tspan><tspan class="cls-107" x="47.28" y="0"> </tspan><tspan x="49.54" y="0">open</tspan><tspan class="cls-107" x="69.11" y="0"> </tspan><tspan x="71.38" y="0">the</tspan><tspan class="cls-107" x="83.86" y="0"> </tspan><tspan class="cls-45" x="86.13" y="0">doors</tspan><tspan class="cls-107" x="107.59" y="0"> </tspan><tspan x="109.86" y="0">of</tspan><tspan class="cls-107" x="117.43" y="0"> </tspan><tspan x="119.7" y="0">our</tspan><tspan class="cls-107" x="132.54" y="0"> </tspan><tspan x="134.81" y="0">li</tspan><tspan class="cls-46" x="139.04" y="0">v</tspan><tspan class="cls-38" x="143.29" y="0">e</tspan><tspan class="cls-56" x="147.8" y="0">s</tspan><tspan x="151.27" y="0">,</tspan><tspan class="cls-107" x="153.13" y="0"> </tspan><tspan x="155.4" y="0">our</tspan><tspan class="cls-107" x="168.24" y="0"> </tspan><tspan x="170.51" y="0">d</tspan><tspan class="cls-42" x="175.59" y="0">r</tspan><tspan x="178.45" y="0">eam</tspan><tspan class="cls-40" x="194.8" y="0">s</tspan><tspan class="cls-45" x="198.28" y="0">,</tspan><tspan class="cls-107" x="200.14" y="0"> </tspan><tspan class="cls-66" x="202.41" y="0">our</tspan><tspan class="cls-108" x="215.25" y="0"> </tspan><tspan class="cls-75" x="217.52" y="0">w</tspan><tspan class="cls-88" x="224.11" y="0">a</tspan><tspan class="cls-109" x="228.38" y="0">y</tspan><tspan x="232.57" y="0">s</tspan><tspan class="cls-107" x="236.13" y="0"> </tspan><tspan class="cls-66" x="238.4" y="0">of </tspan></text><text class="cls-34" transform="translate(82.49 205.06)">seeing<tspan class="cls-110" x="24.71" y="0"> </tspan><tspan class="cls-45" x="27.93" y="0">thing</tspan><tspan class="cls-40" x="48.03" y="0">s</tspan><tspan x="51.51" y="0">.</tspan><tspan class="cls-111" x="53.37" y="0"> </tspan><tspan class="cls-101" x="56.59" y="0">G</tspan><tspan x="62.45" y="0">od</tspan><tspan class="cls-112" x="72.47" y="0"> </tspan><tspan class="cls-72" x="75.68" y="0">c</tspan><tspan class="cls-38" x="79.67" y="0">omes</tspan><tspan class="cls-113" x="100.19" y="0"> </tspan><tspan class="cls-79" x="103.41" y="0">t</tspan><tspan x="106.33" y="0">o</tspan><tspan class="cls-111" x="111.27" y="0"> </tspan><tspan x="114.5" y="0">b</tspan><tspan class="cls-40" x="119.62" y="0">r</tspan><tspan x="122.47" y="0">eak</tspan><tspan class="cls-111" x="135.54" y="0"> </tspan><tspan x="138.76" y="0">open</tspan><tspan class="cls-111" x="158.33" y="0"> </tspan><tspan class="cls-38" x="161.55" y="0">e</tspan><tspan class="cls-56" x="166.06" y="0">v</tspan><tspan x="170.3" y="0">e</tspan><tspan class="cls-58" x="174.8" y="0">r</tspan><tspan x="177.96" y="0">ything</tspan><tspan class="cls-111" x="202.31" y="0"> </tspan><tspan class="cls-38" x="205.53" y="0">th</tspan><tspan class="cls-75" x="213.5" y="0">a</tspan><tspan x="217.81" y="0">t</tspan><tspan class="cls-113" x="220.78" y="0"> </tspan><tspan x="224.01" y="0">keeps </tspan></text><text class="cls-34" transform="translate(82.49 215.06)"><tspan class="cls-42">y</tspan><tspan class="cls-38" x="4.16" y="0">ou</tspan><tspan class="cls-114" x="14.06" y="0"> </tspan><tspan x="16.19" y="0">closed</tspan><tspan class="cls-115" x="40.44" y="0"> </tspan><tspan x="42.57" y="0">in.</tspan><tspan class="cls-115" x="51.53" y="0"> </tspan><tspan x="53.67" y="0">He</tspan><tspan class="cls-115" x="64.04" y="0"> </tspan><tspan x="66.18" y="0">is</tspan><tspan class="cls-115" x="71.85" y="0"> </tspan><tspan class="cls-38" x="73.98" y="0">en</tspan><tspan class="cls-72" x="83.48" y="0">c</tspan><tspan x="87.47" y="0">ou</tspan><tspan class="cls-75" x="97.37" y="0">r</tspan><tspan x="100.28" y="0">a</tspan><tspan class="cls-72" x="104.61" y="0">g</tspan><tspan x="109.6" y="0">ing</tspan><tspan class="cls-115" x="121.73" y="0"> </tspan><tspan class="cls-40" x="123.86" y="0">y</tspan><tspan class="cls-38" x="128.01" y="0">ou</tspan><tspan class="cls-114" x="137.91" y="0"> </tspan><tspan class="cls-71" x="140.05" y="0">t</tspan><tspan class="cls-38" x="142.98" y="0">o</tspan><tspan class="cls-115" x="147.92" y="0"> </tspan><tspan class="cls-45" x="150.05" y="0">d</tspan><tspan class="cls-116" x="155.13" y="0">r</tspan><tspan x="157.99" y="0">eam.</tspan><tspan class="cls-114" x="176.21" y="0"> </tspan><tspan class="cls-45" x="178.34" y="0">He</tspan><tspan class="cls-114" x="188.72" y="0"> </tspan><tspan class="cls-83" x="190.85" y="0">w</tspan><tspan x="197.45" y="0">a</tspan><tspan class="cls-75" x="201.79" y="0">n</tspan><tspan x="206.75" y="0">ts</tspan><tspan class="cls-117" x="213.29" y="0"> </tspan><tspan class="cls-48" x="215.42" y="0">t</tspan><tspan class="cls-66" x="218.35" y="0">o</tspan><tspan class="cls-117" x="223.29" y="0"> </tspan><tspan class="cls-61" x="225.42" y="0">make </tspan></text><path class="cls-118" d="M30.76,209.16l1,2.58c.09.29.2.63.27.89h0c.08-.26.17-.6.28-.91l.87-2.56H34l-1.19,3.11A6.62,6.62,0,0,1,31.31,215a2.2,2.2,0,0,1-1,.51l-.2-.67a2.08,2.08,0,0,0,.69-.38,2.35,2.35,0,0,0,.67-.89.45.45,0,0,0,.06-.19.92.92,0,0,0,0-.2l-1.61-4Zm7.81,2.15a2.13,2.13,0,0,1-2.17,2.31,2.07,2.07,0,0,1-2.09-2.24,2.13,2.13,0,0,1,2.16-2.32A2.07,2.07,0,0,1,38.57,211.31Zm-3.46,0c0,1,.55,1.67,1.32,1.67s1.32-.71,1.32-1.69c0-.74-.36-1.67-1.3-1.67S35.11,210.52,35.11,211.35Zm8.1,1c0,.45,0,.85,0,1.19h-.71l0-.71h0a1.65,1.65,0,0,1-1.44.81c-.68,0-1.5-.38-1.5-1.91v-2.55h.79v2.42c0,.82.25,1.38,1,1.38a1.14,1.14,0,0,0,1-.72,1.06,1.06,0,0,0,.08-.4v-2.68h.79Zm3.71.38a2.06,2.06,0,0,0,1,.31c.58,0,.85-.28.85-.64s-.23-.59-.81-.8c-.79-.28-1.16-.72-1.16-1.24a1.35,1.35,0,0,1,1.51-1.28,2.21,2.21,0,0,1,1.07.27l-.2.58a1.69,1.69,0,0,0-.89-.25c-.47,0-.73.27-.73.59s.26.52.83.74c.75.29,1.14.67,1.14,1.31s-.59,1.31-1.63,1.31a2.47,2.47,0,0,1-1.22-.3ZM51,211.49A1.39,1.39,0,0,0,52.52,213a2.81,2.81,0,0,0,1.21-.23l.13.57a3.39,3.39,0,0,1-1.44.27,2,2,0,0,1-2.15-2.2,2.12,2.12,0,0,1,2-2.35,1.85,1.85,0,0,1,1.8,2.06,2.89,2.89,0,0,1,0,.37Zm2.32-.57a1.13,1.13,0,0,0-1.1-1.29A1.31,1.31,0,0,0,51,210.92Zm2.19.57A1.39,1.39,0,0,0,57,213a2.81,2.81,0,0,0,1.21-.23l.13.57a3.45,3.45,0,0,1-1.45.27,2,2,0,0,1-2.14-2.2,2.12,2.12,0,0,1,2-2.35,1.85,1.85,0,0,1,1.8,2.06,2.89,2.89,0,0,1,0,.37Zm2.32-.57a1.13,1.13,0,0,0-1.1-1.29,1.31,1.31,0,0,0-1.21,1.29Zm5.2-3v1.25H64.2v.61H63.06v2.35c0,.54.16.84.6.84a2.27,2.27,0,0,0,.46-.05l0,.59a2,2,0,0,1-.7.11,1.13,1.13,0,0,1-.86-.33,1.66,1.66,0,0,1-.3-1.14v-2.37h-.68v-.61h.68v-1Zm2-.78h.79v2.72h0a1.37,1.37,0,0,1,.56-.56,1.62,1.62,0,0,1,.81-.23c.59,0,1.53.36,1.53,1.87v2.59H68V211c0-.71-.26-1.3-1-1.3a1.15,1.15,0,0,0-1.07.79,1.09,1.09,0,0,0-.05.38v2.63h-.79Zm7.4,6.39-.06-.55h0a1.62,1.62,0,0,1-1.33.65,1.24,1.24,0,0,1-1.33-1.25c0-1.06.94-1.63,2.62-1.62v-.09a.9.9,0,0,0-1-1,2.17,2.17,0,0,0-1.14.32l-.18-.52a2.8,2.8,0,0,1,1.44-.39c1.33,0,1.65.91,1.65,1.79v1.63a6.63,6.63,0,0,0,.07,1Zm-.11-2.22c-.87,0-1.85.13-1.85,1a.7.7,0,0,0,.75.75,1.07,1.07,0,0,0,1-.73.74.74,0,0,0,0-.25Zm3-3.39v1.25h1.13v.61H75.34v2.35c0,.54.15.84.59.84a2.18,2.18,0,0,0,.46-.05l0,.59a2.06,2.06,0,0,1-.71.11,1.12,1.12,0,0,1-.85-.33,1.6,1.6,0,0,1-.31-1.14v-2.37h-.67v-.61h.67v-1Zm1.48,6.72a13,13,0,0,0,.54-2.15l.88-.09a10.66,10.66,0,0,1-.85,2.18Zm5.2-5.47.57,2.22c.13.48.24.93.33,1.38h0c.1-.44.25-.91.39-1.37l.71-2.23h.67l.67,2.18c.16.52.29,1,.39,1.42h0a13.37,13.37,0,0,1,.33-1.41l.62-2.19h.78l-1.4,4.36h-.72l-.67-2.08a13.66,13.66,0,0,1-.38-1.43h0a14.34,14.34,0,0,1-.4,1.44l-.7,2.07h-.72l-1.32-4.36Zm7.19-1.22a.5.5,0,0,1-1,0,.49.49,0,0,1,.5-.5A.48.48,0,0,1,89.21,207.94Zm-.89,5.58v-4.36h.8v4.36Zm3.06-5.61v1.25h1.14v.61H91.38v2.35c0,.54.16.84.6.84a2.18,2.18,0,0,0,.46-.05l0,.59a2,2,0,0,1-.7.11,1.11,1.11,0,0,1-.85-.33,1.6,1.6,0,0,1-.31-1.14v-2.37h-.68v-.61h.68v-1Zm2-.78h.79v2.72h0a1.4,1.4,0,0,1,.57-.56,1.56,1.56,0,0,1,.81-.23c.58,0,1.52.36,1.52,1.87v2.59h-.79V211c0-.71-.27-1.3-1-1.3a1.13,1.13,0,0,0-1.06.79.89.89,0,0,0-.06.38v2.63h-.79Zm7.78,2,1,2.58c.1.29.21.63.28.89h0c.08-.26.17-.6.27-.91l.87-2.56h.84l-1.19,3.11a6.72,6.72,0,0,1-1.5,2.73,2.15,2.15,0,0,1-1,.51l-.2-.67a2.22,2.22,0,0,0,.7-.38,2.45,2.45,0,0,0,.66-.89.5.5,0,0,0,.07-.19.65.65,0,0,0-.06-.2l-1.61-4Zm7.81,2.15a2.13,2.13,0,0,1-2.17,2.31,2.07,2.07,0,0,1-2.09-2.24,2.13,2.13,0,0,1,2.16-2.32A2.07,2.07,0,0,1,109,211.31Zm-3.46,0c0,1,.55,1.67,1.32,1.67s1.33-.71,1.33-1.69c0-.74-.37-1.67-1.31-1.67S105.54,210.52,105.54,211.35Zm8.1,1c0,.45,0,.85,0,1.19H113l0-.71h0a1.62,1.62,0,0,1-1.44.81c-.68,0-1.5-.38-1.5-1.91v-2.55h.79v2.42c0,.82.25,1.38,1,1.38a1.16,1.16,0,0,0,1-.72,1.29,1.29,0,0,0,.07-.4v-2.68h.79Zm.73,2.3a13,13,0,0,0,.54-2.15l.88-.09a11.27,11.27,0,0,1-.85,2.18Zm5.83-6.72v1.25h1.14v.61H120.2v2.35c0,.54.16.84.6.84a2.27,2.27,0,0,0,.46-.05l0,.59a2,2,0,0,1-.7.11,1.13,1.13,0,0,1-.86-.33,1.66,1.66,0,0,1-.3-1.14v-2.37h-.68v-.61h.68v-1Zm2-.78H123v2.72h0a1.37,1.37,0,0,1,.56-.56,1.62,1.62,0,0,1,.81-.23c.59,0,1.53.36,1.53,1.87v2.59h-.8V211c0-.71-.26-1.3-1-1.3a1.15,1.15,0,0,0-1.07.79,1.09,1.09,0,0,0,0,.38v2.63h-.79Zm5.43,4.36a1.4,1.4,0,0,0,1.5,1.51,2.76,2.76,0,0,0,1.2-.23l.14.57a3.48,3.48,0,0,1-1.45.27,2,2,0,0,1-2.14-2.2,2.11,2.11,0,0,1,2-2.35,1.85,1.85,0,0,1,1.8,2.06,2.89,2.89,0,0,1,0,.37Zm2.33-.57c0-.51-.21-1.29-1.1-1.29a1.32,1.32,0,0,0-1.22,1.29Zm4.56-1.76.57,2.22c.13.48.25.93.33,1.38h0c.09-.44.24-.91.38-1.37l.71-2.23h.67l.67,2.18c.17.52.29,1,.39,1.42h0a13.37,13.37,0,0,1,.33-1.41l.62-2.19h.79l-1.41,4.36h-.72l-.66-2.08a13.7,13.7,0,0,1-.39-1.43h0a12.1,12.1,0,0,1-.4,1.44l-.7,2.07h-.72l-1.31-4.36Zm10.16,2.15a2.13,2.13,0,0,1-2.17,2.31,2.07,2.07,0,0,1-2.09-2.24,2.14,2.14,0,0,1,2.16-2.32A2.07,2.07,0,0,1,144.71,211.31Zm-3.46,0c0,1,.55,1.67,1.33,1.67s1.32-.71,1.32-1.69c0-.74-.37-1.67-1.31-1.67S141.25,210.52,141.25,211.35Zm4.46-.83c0-.51,0-1,0-1.36h.69l0,.86h0a1.3,1.3,0,0,1,1.2-1,.8.8,0,0,1,.23,0v.75a1.06,1.06,0,0,0-.27,0,1.1,1.1,0,0,0-1.06,1,2,2,0,0,0,0,.37v2.32h-.78Zm3-3.39h.79v6.39h-.79Zm5.88,0v5.26c0,.39,0,.83,0,1.13h-.71l0-.76h0a1.6,1.6,0,0,1-1.48.86,2,2,0,0,1-1.86-2.22,2.08,2.08,0,0,1,1.95-2.34,1.44,1.44,0,0,1,1.31.67h0v-2.6Zm-.79,3.81a2,2,0,0,0,0-.34,1.18,1.18,0,0,0-1.15-.92c-.82,0-1.3.72-1.3,1.69s.43,1.61,1.28,1.61a1.2,1.2,0,0,0,1.17-.95,1.72,1.72,0,0,0,0-.34Zm7.71,2.42a2.84,2.84,0,0,1-1.25.25,2.07,2.07,0,0,1-2.17-2.22,2.22,2.22,0,0,1,2.34-2.32,2.59,2.59,0,0,1,1.1.23l-.18.61a1.8,1.8,0,0,0-.92-.21,1.64,1.64,0,0,0,0,3.28,2.24,2.24,0,0,0,1-.22Zm3.34.16-.06-.55h0a1.62,1.62,0,0,1-1.33.65,1.24,1.24,0,0,1-1.33-1.25c0-1.06.93-1.63,2.62-1.62v-.09a.9.9,0,0,0-1-1,2.17,2.17,0,0,0-1.14.32l-.18-.52a2.76,2.76,0,0,1,1.43-.39c1.34,0,1.66.91,1.66,1.79v1.63a6.63,6.63,0,0,0,.07,1Zm-.11-2.22c-.87,0-1.85.13-1.85,1a.7.7,0,0,0,.75.75,1.08,1.08,0,0,0,1-.73.74.74,0,0,0,.05-.25Zm2-1c0-.45,0-.82,0-1.18h.7l.05.72h0a1.6,1.6,0,0,1,1.44-.82c.6,0,1.54.36,1.54,1.86v2.6h-.79V211c0-.7-.27-1.29-1-1.29a1.13,1.13,0,0,0-1.07.81,1.38,1.38,0,0,0,0,.37v2.62h-.79Zm7.46,3.18c0-.3,0-.74,0-1.13v-5.26H175v2.73h0a1.63,1.63,0,0,1,1.48-.8,2,2,0,0,1,1.84,2.23,2.07,2.07,0,0,1-1.95,2.33,1.54,1.54,0,0,1-1.46-.82h0l0,.72Zm.82-1.75a2.58,2.58,0,0,0,0,.29,1.24,1.24,0,0,0,1.19.93c.83,0,1.33-.68,1.33-1.68s-.45-1.62-1.3-1.62a1.27,1.27,0,0,0-1.21,1,2.31,2.31,0,0,0,0,.32Zm4.78-.28a1.39,1.39,0,0,0,1.49,1.51,2.81,2.81,0,0,0,1.21-.23l.13.57a3.45,3.45,0,0,1-1.45.27,2,2,0,0,1-2.14-2.2,2.12,2.12,0,0,1,2-2.35,1.85,1.85,0,0,1,1.81,2.06,2.89,2.89,0,0,1,0,.37Zm2.32-.57a1.13,1.13,0,0,0-1.1-1.29,1.31,1.31,0,0,0-1.21,1.29Zm8-3.79v5.26c0,.39,0,.83,0,1.13h-.71l0-.76h0a1.6,1.6,0,0,1-1.48.86,2,2,0,0,1-1.87-2.22,2.08,2.08,0,0,1,2-2.34,1.46,1.46,0,0,1,1.31.67h0v-2.6Zm-.79,3.81a1.32,1.32,0,0,0,0-.34,1.16,1.16,0,0,0-1.14-.92c-.82,0-1.31.72-1.31,1.69s.44,1.61,1.29,1.61a1.27,1.27,0,0,0,1.2-1.29Zm3-3a.5.5,0,0,1-1,0,.49.49,0,0,1,.5-.5A.48.48,0,0,1,192.35,207.94Zm-.89,5.58v-4.36h.8v4.36Zm4.8,0v-3.75h-1.83v3.75h-.78v-3.75H193v-.61h.61V209a2.05,2.05,0,0,1,.49-1.49,1.48,1.48,0,0,1,1.09-.4,1.46,1.46,0,0,1,.63.15l-.17.59a1,1,0,0,0-.46-.11c-.63,0-.8.53-.8,1.21v.19h1.83V209a2.12,2.12,0,0,1,.51-1.53,1.56,1.56,0,0,1,1.06-.4,1.82,1.82,0,0,1,.67.12l-.1.62a1.12,1.12,0,0,0-.51-.1c-.67,0-.85.59-.85,1.26v.23h1.06v.61h-1v3.75Zm2.88-2a1.39,1.39,0,0,0,1.49,1.51,2.81,2.81,0,0,0,1.21-.23l.14.57a3.48,3.48,0,0,1-1.45.27,2,2,0,0,1-2.15-2.2,2.12,2.12,0,0,1,2.05-2.35,1.85,1.85,0,0,1,1.8,2.06,2.89,2.89,0,0,1,0,.37Zm2.32-.57a1.12,1.12,0,0,0-1.1-1.29,1.31,1.31,0,0,0-1.21,1.29Zm1.75-.4c0-.51,0-1,0-1.36h.7l0,.86h0a1.3,1.3,0,0,1,1.2-1,.75.75,0,0,1,.23,0v.75a1.06,1.06,0,0,0-.27,0,1.11,1.11,0,0,0-1.06,1,2,2,0,0,0,0,.37v2.32h-.78Zm3.29,1A1.4,1.4,0,0,0,208,213a2.76,2.76,0,0,0,1.2-.23l.14.57a3.48,3.48,0,0,1-1.45.27,2,2,0,0,1-2.14-2.2,2.11,2.11,0,0,1,2-2.35,1.85,1.85,0,0,1,1.8,2.06,2.89,2.89,0,0,1,0,.37Zm2.33-.57c0-.51-.21-1.29-1.1-1.29a1.32,1.32,0,0,0-1.22,1.29Zm1.74-.58c0-.45,0-.82,0-1.18h.71l0,.72h0a1.62,1.62,0,0,1,1.44-.82c.6,0,1.54.36,1.54,1.86v2.6h-.79V211c0-.7-.26-1.29-1-1.29a1.12,1.12,0,0,0-1.06.81,1.06,1.06,0,0,0-.06.37v2.62h-.79Zm5.91-2.43v1.25h1.14v.61h-1.14v2.35c0,.54.16.84.6.84a2.27,2.27,0,0,0,.46-.05l0,.59a2,2,0,0,1-.7.11,1.09,1.09,0,0,1-.85-.33,1.6,1.6,0,0,1-.31-1.14v-2.37H215v-.61h.68v-1Zm1.81,5.14a.54.54,0,0,1,.54-.57.57.57,0,0,1,0,1.14A.53.53,0,0,1,218.29,213.05Zm4.58-5.6h3.27v.66h-2.48v2H226v.64h-2.29v2.75h-.79Zm8,3.86a2.12,2.12,0,0,1-2.17,2.31,2.07,2.07,0,0,1-2.08-2.24,2.13,2.13,0,0,1,2.16-2.32A2.06,2.06,0,0,1,230.89,211.31Zm-3.45,0c0,1,.55,1.67,1.32,1.67s1.32-.71,1.32-1.69c0-.74-.37-1.67-1.3-1.67S227.44,210.52,227.44,211.35Zm4.45-.83c0-.51,0-1,0-1.36h.69l0,.86h0a1.31,1.31,0,0,1,1.21-1,.73.73,0,0,1,.22,0v.75a1.06,1.06,0,0,0-.27,0,1.11,1.11,0,0,0-1.06,1,2,2,0,0,0,0,.37v2.32h-.78Zm6.4-2.61v1.25h1.13v.61h-1.13v2.35c0,.54.15.84.59.84a2.18,2.18,0,0,0,.46-.05l0,.59a2,2,0,0,1-.7.11,1.13,1.13,0,0,1-.86-.33,1.66,1.66,0,0,1-.3-1.14v-2.37h-.68v-.61h.68v-1Zm2-.78h.79v2.72h0a1.37,1.37,0,0,1,.56-.56,1.62,1.62,0,0,1,.81-.23c.59,0,1.52.36,1.52,1.87v2.59h-.79V211c0-.71-.26-1.3-1-1.3a1.15,1.15,0,0,0-1.06.79,1.09,1.09,0,0,0,0,.38v2.63h-.79Zm5.43,4.36a1.4,1.4,0,0,0,1.5,1.51,2.76,2.76,0,0,0,1.2-.23l.14.57a3.48,3.48,0,0,1-1.45.27,2,2,0,0,1-2.14-2.2,2.11,2.11,0,0,1,2-2.35,1.85,1.85,0,0,1,1.8,2.06,2.89,2.89,0,0,1,0,.37Zm2.32-.57a1.12,1.12,0,0,0-1.09-1.29,1.31,1.31,0,0,0-1.22,1.29Zm4.33,2.6v-3.75h-.61v-.61h.61V209a2.08,2.08,0,0,1,.51-1.53A1.53,1.53,0,0,1,254,207a1.87,1.87,0,0,1,.67.12l-.1.62a1.12,1.12,0,0,0-.51-.1c-.67,0-.84.59-.84,1.26v.23h1.05v.61h-1.05v3.75Zm5,0-.06-.55h0a1.62,1.62,0,0,1-1.33.65,1.24,1.24,0,0,1-1.33-1.25c0-1.06.93-1.63,2.62-1.62v-.09a.9.9,0,0,0-1-1,2.17,2.17,0,0,0-1.14.32l-.18-.52a2.73,2.73,0,0,1,1.43-.39c1.34,0,1.66.91,1.66,1.79v1.63a6.63,6.63,0,0,0,.07,1Zm-.11-2.22c-.87,0-1.85.13-1.85,1a.7.7,0,0,0,.75.75,1.09,1.09,0,0,0,1.05-.73.74.74,0,0,0,.05-.25Zm5.14,2.06a2.84,2.84,0,0,1-1.25.25,2.07,2.07,0,0,1-2.17-2.22,2.22,2.22,0,0,1,2.34-2.32,2.59,2.59,0,0,1,1.1.23l-.18.61a1.8,1.8,0,0,0-.92-.21,1.64,1.64,0,0,0,0,3.28,2.24,2.24,0,0,0,1-.22Zm2-5.45v1.25h1.13v.61h-1.13v2.35c0,.54.15.84.59.84a2.18,2.18,0,0,0,.46-.05l0,.59a2,2,0,0,1-.7.11,1.13,1.13,0,0,1-.86-.33,1.66,1.66,0,0,1-.3-1.14v-2.37h-.68v-.61h.68v-1Zm5.41,0a.46.46,0,0,1-.5.48.47.47,0,0,1-.48-.48.49.49,0,0,1,.49-.5A.48.48,0,0,1,269.8,207.94Zm-.88,5.58v-4.36h.79v4.36Zm2-.81a2.06,2.06,0,0,0,1,.31c.58,0,.85-.28.85-.64s-.23-.59-.81-.8c-.79-.28-1.16-.72-1.16-1.24a1.35,1.35,0,0,1,1.51-1.28,2.24,2.24,0,0,1,1.07.27l-.2.58a1.69,1.69,0,0,0-.89-.25c-.47,0-.73.27-.73.59s.26.52.83.74c.75.29,1.14.67,1.14,1.31s-.59,1.31-1.63,1.31a2.44,2.44,0,0,1-1.22-.3Zm3.06,1.92a14.07,14.07,0,0,0,.54-2.15l.88-.09a11.23,11.23,0,0,1-.86,2.18Z" transform="translate(52.67 11.54)"/><path class="cls-118" d="M34.12,222.33c0,.45,0,.85,0,1.19h-.71l0-.71h0a1.65,1.65,0,0,1-1.44.81c-.68,0-1.5-.38-1.5-1.91v-2.55h.79v2.41c0,.83.25,1.39,1,1.39a1.14,1.14,0,0,0,1-.72,1.06,1.06,0,0,0,.08-.4v-2.68h.79Zm1.31-2c0-.45,0-.82,0-1.18h.7l0,.72h0a1.62,1.62,0,0,1,1.44-.82c.6,0,1.54.36,1.54,1.86v2.6h-.79V221c0-.71-.26-1.29-1-1.29a1.12,1.12,0,0,0-1.06.81,1,1,0,0,0-.06.37v2.62h-.79Zm5-3.21h.79v6.39h-.79ZM43,221.48a1.4,1.4,0,0,0,1.5,1.52,2.76,2.76,0,0,0,1.2-.23l.14.57a3.65,3.65,0,0,1-1.45.27,2,2,0,0,1-2.14-2.2,2.11,2.11,0,0,1,2-2.35,1.85,1.85,0,0,1,1.8,2.06,2.55,2.55,0,0,1,0,.36Zm2.32-.56a1.12,1.12,0,0,0-1.09-1.29A1.32,1.32,0,0,0,43,220.92ZM47,222.71a2.14,2.14,0,0,0,1,.31c.57,0,.84-.28.84-.64s-.22-.59-.81-.81c-.78-.27-1.15-.71-1.15-1.23a1.35,1.35,0,0,1,1.5-1.28,2.21,2.21,0,0,1,1.07.27l-.19.58a1.69,1.69,0,0,0-.89-.25c-.47,0-.73.27-.73.59s.26.52.82.74c.76.29,1.15.67,1.15,1.31s-.6,1.31-1.63,1.31a2.51,2.51,0,0,1-1.23-.3Zm3.57,0a2.06,2.06,0,0,0,1,.31c.58,0,.85-.28.85-.64s-.23-.59-.81-.81c-.79-.27-1.16-.71-1.16-1.23A1.35,1.35,0,0,1,52,219.06a2.21,2.21,0,0,1,1.07.27l-.2.58a1.69,1.69,0,0,0-.89-.25c-.47,0-.73.27-.73.59s.26.52.83.74c.75.29,1.14.67,1.14,1.31s-.59,1.31-1.63,1.31a2.44,2.44,0,0,1-1.22-.3Zm7.15-3.55,1,2.58c.1.28.21.63.28.89h0c.08-.26.17-.6.28-.91l.86-2.56h.84l-1.19,3.11a6.72,6.72,0,0,1-1.5,2.73,2.15,2.15,0,0,1-1,.51l-.2-.67a2.22,2.22,0,0,0,.7-.38,2.54,2.54,0,0,0,.66-.89.5.5,0,0,0,.07-.19.65.65,0,0,0-.06-.2l-1.61-4Zm7.81,2.14a2.13,2.13,0,0,1-2.17,2.32,2.07,2.07,0,0,1-2.09-2.24,2.13,2.13,0,0,1,2.16-2.32A2.07,2.07,0,0,1,65.48,221.3Zm-3.46,0c0,1,.55,1.67,1.32,1.67s1.33-.71,1.33-1.69c0-.74-.37-1.67-1.31-1.67S62,220.52,62,221.35Zm8.1,1c0,.45,0,.85,0,1.19h-.7l0-.71h0a1.62,1.62,0,0,1-1.44.81c-.68,0-1.5-.38-1.5-1.91v-2.55h.79v2.41c0,.83.25,1.39,1,1.39a1.15,1.15,0,0,0,1.05-.72,1.29,1.29,0,0,0,.07-.4v-2.68h.79Zm8.46-1a2.13,2.13,0,0,1-2.17,2.32,2.07,2.07,0,0,1-2.09-2.24,2.13,2.13,0,0,1,2.16-2.32A2.07,2.07,0,0,1,78.58,221.3Zm-3.46,0c0,1,.55,1.67,1.32,1.67s1.33-.71,1.33-1.69c0-.74-.37-1.67-1.31-1.67S75.12,220.52,75.12,221.35Zm7.15,2.17v-3.76H80.44v3.76h-.78v-3.76H79v-.6h.62V219a2.08,2.08,0,0,1,.48-1.49,1.52,1.52,0,0,1,1.1-.4,1.41,1.41,0,0,1,.62.15l-.16.59a1.09,1.09,0,0,0-.47-.11c-.62,0-.79.53-.79,1.21v.19h1.83V219a2.05,2.05,0,0,1,.51-1.52,1.49,1.49,0,0,1,1-.4,1.89,1.89,0,0,1,.68.12l-.1.62a1.15,1.15,0,0,0-.51-.1c-.67,0-.85.59-.85,1.26v.23h1v.6h-1v3.76Zm2.88-2A1.39,1.39,0,0,0,86.64,223a2.81,2.81,0,0,0,1.21-.23l.13.57a3.61,3.61,0,0,1-1.45.27,2,2,0,0,1-2.14-2.2,2.11,2.11,0,0,1,2-2.35,1.84,1.84,0,0,1,1.8,2.06,2.93,2.93,0,0,1,0,.36Zm2.32-.56a1.13,1.13,0,0,0-1.1-1.29,1.31,1.31,0,0,0-1.21,1.29Zm1.74-.4c0-.51,0-1,0-1.36h.69l0,.86h0a1.29,1.29,0,0,1,1.2-1,.85.85,0,0,1,.23,0v.75a1.09,1.09,0,0,0-1.34,1,3.7,3.7,0,0,0,0,.37v2.32h-.79Zm7.1-2.61v1.25h1.14v.6H96.31v2.35c0,.54.15.85.6.85a2.07,2.07,0,0,0,.45-.05l0,.59a2,2,0,0,1-.7.11,1.13,1.13,0,0,1-.86-.33,1.67,1.67,0,0,1-.3-1.14v-2.38h-.68v-.6h.68v-1Zm2-.78h.79v2.72h0a1.37,1.37,0,0,1,.56-.56,1.62,1.62,0,0,1,.81-.23c.59,0,1.53.36,1.53,1.87v2.59h-.8V221c0-.71-.26-1.3-1-1.3a1.15,1.15,0,0,0-1.06.79,1.09,1.09,0,0,0-.05.38v2.63h-.79Zm5.43,4.35a1.4,1.4,0,0,0,1.5,1.52,2.76,2.76,0,0,0,1.2-.23l.14.57a3.65,3.65,0,0,1-1.45.27,2,2,0,0,1-2.14-2.2,2.11,2.11,0,0,1,2-2.35,1.85,1.85,0,0,1,1.8,2.06,2.55,2.55,0,0,1,0,.36Zm2.33-.56c0-.51-.21-1.29-1.1-1.29a1.32,1.32,0,0,0-1.22,1.29Zm4.9,2.6c0-.3,0-.74,0-1.13v-5.26h.78v2.73h0a1.63,1.63,0,0,1,1.49-.8c1.08,0,1.84.9,1.83,2.23a2.07,2.07,0,0,1-2,2.33,1.56,1.56,0,0,1-1.46-.82h0l0,.72Zm.82-1.75a1.35,1.35,0,0,0,0,.29,1.22,1.22,0,0,0,1.19.93c.82,0,1.32-.68,1.32-1.68s-.45-1.62-1.3-1.62a1.25,1.25,0,0,0-1.2,1,1.34,1.34,0,0,0-.05.32Zm4.78-.29a1.4,1.4,0,0,0,1.5,1.52,2.8,2.8,0,0,0,1.2-.23l.14.57a3.65,3.65,0,0,1-1.45.27,2,2,0,0,1-2.15-2.2,2.12,2.12,0,0,1,2-2.35,1.85,1.85,0,0,1,1.8,2.06,2.55,2.55,0,0,1,0,.36Zm2.32-.56a1.12,1.12,0,0,0-1.09-1.29,1.31,1.31,0,0,0-1.22,1.29Zm1.64,1.79a2.14,2.14,0,0,0,1,.31c.57,0,.84-.28.84-.64s-.22-.59-.81-.81c-.78-.27-1.15-.71-1.15-1.23a1.35,1.35,0,0,1,1.5-1.28,2.21,2.21,0,0,1,1.07.27l-.19.58a1.73,1.73,0,0,0-.9-.25c-.46,0-.72.27-.72.59s.26.52.82.74c.76.29,1.15.67,1.15,1.31s-.6,1.31-1.63,1.31a2.51,2.51,0,0,1-1.23-.3Zm4.63-4.8v1.25h1.13v.6h-1.13v2.35c0,.54.15.85.59.85a2.18,2.18,0,0,0,.46-.05l0,.59a2.06,2.06,0,0,1-.71.11,1.12,1.12,0,0,1-.85-.33,1.62,1.62,0,0,1-.31-1.14v-2.38h-.67v-.6h.67v-1Zm9.16,3.39a2.13,2.13,0,0,1-2.17,2.32,2.07,2.07,0,0,1-2.08-2.24,2.13,2.13,0,0,1,2.16-2.32A2.06,2.06,0,0,1,134.35,221.3Zm-3.45,0c0,1,.55,1.67,1.32,1.67s1.32-.71,1.32-1.69c0-.74-.37-1.67-1.3-1.67S130.9,220.52,130.9,221.35Zm4.53,2.17v-3.76h-.61v-.6h.61V219a2.05,2.05,0,0,1,.51-1.52A1.48,1.48,0,0,1,137,217a1.87,1.87,0,0,1,.67.12l-.1.62a1.12,1.12,0,0,0-.51-.1c-.67,0-.84.59-.84,1.26v.23h1.05v.6h-1.05v3.76Zm6-4.36.95,2.58c.1.28.21.63.28.89h0c.08-.26.17-.6.28-.91l.86-2.56h.84l-1.19,3.11A6.73,6.73,0,0,1,142,225a2.22,2.22,0,0,1-1,.51l-.19-.67a2.19,2.19,0,0,0,.69-.38,2.43,2.43,0,0,0,.67-.89.67.67,0,0,0,.06-.19.65.65,0,0,0-.06-.2l-1.61-4Zm7.8,2.14a2.13,2.13,0,0,1-2.17,2.32,2.07,2.07,0,0,1-2.09-2.24,2.14,2.14,0,0,1,2.16-2.32A2.06,2.06,0,0,1,149.27,221.3Zm-3.46,0c0,1,.55,1.67,1.33,1.67s1.32-.71,1.32-1.69c0-.74-.37-1.67-1.3-1.67S145.81,220.52,145.81,221.35Zm8.11,1c0,.45,0,.85,0,1.19h-.7l-.05-.71h0a1.65,1.65,0,0,1-1.44.81c-.69,0-1.51-.38-1.51-1.91v-2.55H151v2.41c0,.83.26,1.39,1,1.39a1.14,1.14,0,0,0,1-.72,1.05,1.05,0,0,0,.07-.4v-2.68h.8Zm1.31-1.81c0-.51,0-1,0-1.36h.7l0,.86h0a1.3,1.3,0,0,1,1.2-1,.8.8,0,0,1,.23,0v.75a1.06,1.06,0,0,0-.27,0,1.11,1.11,0,0,0-1.06,1,2,2,0,0,0,0,.37v2.32h-.78Zm2.83,2.19a2.14,2.14,0,0,0,1.05.31c.57,0,.84-.28.84-.64s-.22-.59-.81-.81c-.78-.27-1.15-.71-1.15-1.23a1.35,1.35,0,0,1,1.5-1.28,2.25,2.25,0,0,1,1.08.27l-.2.58a1.69,1.69,0,0,0-.89-.25c-.47,0-.73.27-.73.59s.26.52.83.74c.75.29,1.14.67,1.14,1.31s-.6,1.31-1.63,1.31a2.51,2.51,0,0,1-1.23-.3Zm4.12-1.23a1.39,1.39,0,0,0,1.49,1.52,2.81,2.81,0,0,0,1.21-.23l.13.57a3.61,3.61,0,0,1-1.45.27,2,2,0,0,1-2.14-2.2,2.11,2.11,0,0,1,2-2.35,1.84,1.84,0,0,1,1.8,2.06,2.93,2.93,0,0,1,0,.36Zm2.32-.56a1.13,1.13,0,0,0-1.1-1.29,1.31,1.31,0,0,0-1.21,1.29Zm1.74-3.79h.8v6.39h-.8Zm2.43,2,.86,2.45c.14.4.26.76.35,1.12h0c.1-.36.22-.72.37-1.12l.84-2.45H172l-1.71,4.36h-.76l-1.65-4.36Zm4.38,2.32a1.4,1.4,0,0,0,1.49,1.52,2.81,2.81,0,0,0,1.21-.23l.13.57a3.61,3.61,0,0,1-1.45.27,2,2,0,0,1-2.14-2.2,2.12,2.12,0,0,1,2.05-2.35,1.85,1.85,0,0,1,1.8,2.06,2.55,2.55,0,0,1,0,.36Zm2.32-.56a1.13,1.13,0,0,0-1.1-1.29,1.31,1.31,0,0,0-1.21,1.29Zm1.64,1.79a2.1,2.1,0,0,0,1,.31c.58,0,.85-.28.85-.64s-.23-.59-.81-.81c-.78-.27-1.15-.71-1.15-1.23a1.34,1.34,0,0,1,1.5-1.28,2.21,2.21,0,0,1,1.07.27l-.2.58a1.66,1.66,0,0,0-.89-.25c-.47,0-.73.27-.73.59s.26.52.83.74c.76.29,1.14.67,1.14,1.31s-.59,1.31-1.63,1.31a2.5,2.5,0,0,1-1.22-.3Zm3.06,1.92a12.86,12.86,0,0,0,.54-2.16l.88-.09a10.51,10.51,0,0,1-.86,2.19Zm6.53-6.72v1.25h1.13v.6H186.6v2.35c0,.54.15.85.59.85a2.18,2.18,0,0,0,.46-.05l0,.59a2.06,2.06,0,0,1-.71.11,1.11,1.11,0,0,1-.85-.33,1.62,1.62,0,0,1-.31-1.14v-2.38h-.67v-.6h.67v-1Zm2-.78h.79v2.72h0a1.46,1.46,0,0,1,.57-.56,1.56,1.56,0,0,1,.81-.23c.58,0,1.52.36,1.52,1.87v2.59h-.79V221c0-.71-.26-1.3-1-1.3a1.14,1.14,0,0,0-1.06.79.89.89,0,0,0-.06.38v2.63h-.79Zm5.44,4.35a1.4,1.4,0,0,0,1.49,1.52,2.81,2.81,0,0,0,1.21-.23l.13.57a3.61,3.61,0,0,1-1.45.27,2,2,0,0,1-2.14-2.2,2.12,2.12,0,0,1,2-2.35,1.85,1.85,0,0,1,1.8,2.06,2.55,2.55,0,0,1,0,.36Zm2.32-.56a1.13,1.13,0,0,0-1.1-1.29,1.31,1.31,0,0,0-1.21,1.29Zm5.26-1.76.58,2.22c.12.48.24.93.32,1.38h0c.1-.44.24-.91.38-1.37l.72-2.23h.66l.68,2.18c.16.52.29,1,.38,1.42h0a13.37,13.37,0,0,1,.33-1.41l.63-2.19h.78l-1.41,4.36H205l-.66-2.08A13.7,13.7,0,0,1,204,220h0a14.36,14.36,0,0,1-.39,1.44l-.71,2.07h-.72l-1.31-4.36Zm10.16,2.14a2.13,2.13,0,0,1-2.17,2.32,2.07,2.07,0,0,1-2.09-2.24,2.14,2.14,0,0,1,2.16-2.32A2.06,2.06,0,0,1,211.8,221.3Zm-3.45,0c0,1,.54,1.67,1.32,1.67s1.32-.71,1.32-1.69c0-.74-.37-1.67-1.3-1.67S208.35,220.52,208.35,221.35Zm4.45-.83c0-.51,0-1,0-1.36h.7l0,.86h0a1.31,1.31,0,0,1,1.21-1,.73.73,0,0,1,.22,0v.75a1.06,1.06,0,0,0-.27,0,1.11,1.11,0,0,0-1.06,1,2,2,0,0,0,0,.37v2.32h-.78Zm3-3.39h.79v6.39h-.79Zm5.89,0v5.26c0,.39,0,.83,0,1.13H221l0-.76h0a1.62,1.62,0,0,1-1.49.86,2,2,0,0,1-1.86-2.22,2.08,2.08,0,0,1,1.95-2.34,1.44,1.44,0,0,1,1.31.67h0v-2.6Zm-.8,3.81a2,2,0,0,0,0-.34,1.18,1.18,0,0,0-1.15-.92c-.82,0-1.3.72-1.3,1.69s.43,1.61,1.29,1.61a1.19,1.19,0,0,0,1.16-.95,1.72,1.72,0,0,0,0-.34Zm5.62-1.78.58,2.22c.12.48.24.93.32,1.38h0c.1-.44.24-.91.39-1.37l.71-2.23h.66l.68,2.18c.16.52.29,1,.39,1.42h0a13.56,13.56,0,0,1,.34-1.41l.62-2.19H232l-1.4,4.36h-.72l-.67-2.08c-.15-.49-.28-.92-.39-1.43h0a14.34,14.34,0,0,1-.4,1.44l-.7,2.07H227l-1.32-4.36Zm7.19-1.22a.46.46,0,0,1-.5.48.47.47,0,0,1-.48-.48.49.49,0,0,1,.5-.5A.47.47,0,0,1,233.68,217.94Zm-.88,5.58v-4.36h.79v4.36Zm2.11-6.39h.79v6.39h-.79Zm2.12,0h.79v6.39H237Zm5.32,3.21c0-.45,0-.82,0-1.18h.7l0,.72h0a1.62,1.62,0,0,1,1.44-.82c.61,0,1.54.36,1.54,1.86v2.6h-.79V221c0-.71-.26-1.29-1-1.29a1.13,1.13,0,0,0-1.06.81,1,1,0,0,0,0,.37v2.62h-.8Zm5.44,1.14a1.4,1.4,0,0,0,1.49,1.52,2.81,2.81,0,0,0,1.21-.23l.14.57a3.65,3.65,0,0,1-1.45.27,2,2,0,0,1-2.15-2.2,2.12,2.12,0,0,1,2.05-2.35,1.85,1.85,0,0,1,1.8,2.06,2.55,2.55,0,0,1,0,.36Zm2.32-.56a1.12,1.12,0,0,0-1.1-1.29,1.31,1.31,0,0,0-1.21,1.29Zm2-1.76.86,2.45c.14.4.26.76.35,1.12h0c.1-.36.22-.72.37-1.12l.84-2.45h.83l-1.71,4.36H253l-1.65-4.36Zm4.38,2.32A1.4,1.4,0,0,0,258,223a2.81,2.81,0,0,0,1.21-.23l.13.57a3.61,3.61,0,0,1-1.45.27,2,2,0,0,1-2.14-2.2,2.12,2.12,0,0,1,2-2.35,1.85,1.85,0,0,1,1.8,2.06,2.55,2.55,0,0,1,0,.36Zm2.32-.56a1.13,1.13,0,0,0-1.1-1.29,1.31,1.31,0,0,0-1.21,1.29Zm1.75-.4c0-.51,0-1,0-1.36h.69l0,.86h0a1.29,1.29,0,0,1,1.2-1,.8.8,0,0,1,.23,0v.75a1.06,1.06,0,0,0-.27,0,1.1,1.1,0,0,0-1.06,1,2,2,0,0,0,0,.37v2.32h-.78Zm6.1,3c0-.3,0-.74,0-1.13v-5.26h.78v2.73h0a1.63,1.63,0,0,1,1.49-.8c1.08,0,1.84.9,1.83,2.23a2.07,2.07,0,0,1-1.95,2.33,1.56,1.56,0,0,1-1.46-.82h0l0,.72Zm.82-1.75a1.35,1.35,0,0,0,0,.29,1.22,1.22,0,0,0,1.19.93c.82,0,1.32-.68,1.32-1.68s-.45-1.62-1.3-1.62a1.25,1.25,0,0,0-1.2,1,1.34,1.34,0,0,0-.05.32Zm4.78-.29a1.4,1.4,0,0,0,1.5,1.52,2.8,2.8,0,0,0,1.2-.23l.14.57a3.65,3.65,0,0,1-1.45.27,2,2,0,0,1-2.15-2.2,2.12,2.12,0,0,1,2.05-2.35,1.85,1.85,0,0,1,1.8,2.06,2.55,2.55,0,0,1,0,.36Zm2.32-.56a1.12,1.12,0,0,0-1.09-1.29,1.31,1.31,0,0,0-1.22,1.29Z" transform="translate(52.67 11.54)"/><path class="cls-118" d="M34.24,227.13v5.26c0,.39,0,.83,0,1.13h-.71l0-.76h0a1.62,1.62,0,0,1-1.49.86,2,2,0,0,1-1.86-2.22,2.08,2.08,0,0,1,1.95-2.34,1.47,1.47,0,0,1,1.32.67h0v-2.6Zm-.8,3.8a1.93,1.93,0,0,0,0-.33,1.18,1.18,0,0,0-1.15-.92c-.81,0-1.3.72-1.3,1.69s.43,1.61,1.29,1.61a1.19,1.19,0,0,0,1.16-.95,1.79,1.79,0,0,0,0-.34Zm3-3a.46.46,0,0,1-.5.48.47.47,0,0,1-.48-.48.49.49,0,0,1,.5-.5A.47.47,0,0,1,36.43,227.94Zm-.88,5.58v-4.36h.79v4.36Zm4.8,0v-3.76H38.52v3.76h-.78v-3.76h-.62v-.6h.62V229a2.06,2.06,0,0,1,.48-1.49,1.49,1.49,0,0,1,1.1-.4,1.41,1.41,0,0,1,.62.15l-.16.58a1.26,1.26,0,0,0-.47-.1c-.62,0-.79.53-.79,1.21v.19h1.83V229a2.05,2.05,0,0,1,.51-1.52,1.49,1.49,0,0,1,1-.4,1.89,1.89,0,0,1,.68.12l-.1.62a1.15,1.15,0,0,0-.51-.1c-.67,0-.85.59-.85,1.26v.23h1v.6h-1v3.76Zm2.88-2A1.4,1.4,0,0,0,44.72,233a2.81,2.81,0,0,0,1.21-.23l.13.57a3.61,3.61,0,0,1-1.45.27,2,2,0,0,1-2.14-2.2,2.11,2.11,0,0,1,2-2.35,1.84,1.84,0,0,1,1.8,2.05,3,3,0,0,1,0,.37Zm2.32-.56a1.13,1.13,0,0,0-1.1-1.29,1.33,1.33,0,0,0-1.22,1.29Zm1.74-.4c0-.51,0-1,0-1.36H48l0,.86h0a1.31,1.31,0,0,1,1.21-1,.85.85,0,0,1,.23,0v.75a1.18,1.18,0,0,0-.27,0,1.12,1.12,0,0,0-1.07,1,3.46,3.46,0,0,0,0,.37v2.32h-.79Zm3.3,1A1.4,1.4,0,0,0,52.08,233a2.81,2.81,0,0,0,1.21-.23l.13.57a3.61,3.61,0,0,1-1.45.27,2,2,0,0,1-2.14-2.2,2.12,2.12,0,0,1,2.05-2.35,1.85,1.85,0,0,1,1.8,2.05,2.58,2.58,0,0,1,0,.37Zm2.32-.56a1.13,1.13,0,0,0-1.1-1.29,1.31,1.31,0,0,0-1.21,1.29Zm1.75-.58c0-.45,0-.82,0-1.18h.7l0,.72h0a1.6,1.6,0,0,1,1.44-.82c.6,0,1.54.36,1.54,1.86v2.6h-.8V231c0-.71-.26-1.29-1-1.29a1.13,1.13,0,0,0-1.06.81,1.32,1.32,0,0,0,0,.37v2.62h-.79Zm5.91-2.43v1.25H61.7v.6H60.57v2.35c0,.54.15.85.59.85a2.18,2.18,0,0,0,.46-.05l0,.59a2,2,0,0,1-.7.11,1.1,1.1,0,0,1-.86-.34,1.63,1.63,0,0,1-.31-1.13v-2.38h-.67v-.6h.67v-1Zm1.81,5.14a.54.54,0,1,1,.53.57A.53.53,0,0,1,62.38,233.05Zm4.77-4.93H65.3v-.67h4.5v.67H67.94v5.4h-.79Zm3.23-1h.79v2.71h0a1.44,1.44,0,0,1,.57-.55,1.56,1.56,0,0,1,.81-.23c.58,0,1.52.36,1.52,1.87v2.59H73.3V231c0-.71-.27-1.3-1-1.3a1.13,1.13,0,0,0-1.06.79.89.89,0,0,0-.06.38v2.63h-.79Zm5.88.81a.5.5,0,0,1-1,0,.49.49,0,0,1,.5-.5A.48.48,0,0,1,76.26,227.94Zm-.89,5.58v-4.36h.8v4.36Zm2-.81a2.14,2.14,0,0,0,1,.31c.57,0,.84-.29.84-.65s-.22-.58-.81-.8c-.78-.28-1.15-.71-1.15-1.23a1.35,1.35,0,0,1,1.5-1.28,2.21,2.21,0,0,1,1.07.27l-.19.58a1.69,1.69,0,0,0-.89-.25c-.47,0-.73.27-.73.59s.26.52.82.74c.76.29,1.15.66,1.15,1.31s-.6,1.31-1.63,1.31a2.51,2.51,0,0,1-1.23-.3Zm6.46-4.77a.46.46,0,0,1-.5.48.47.47,0,0,1-.48-.48.49.49,0,0,1,.5-.5A.47.47,0,0,1,83.83,227.94ZM83,233.52v-4.36h.79v4.36Zm2-.81a2.1,2.1,0,0,0,1,.31c.58,0,.85-.29.85-.65s-.22-.58-.81-.8c-.78-.28-1.15-.71-1.15-1.23a1.34,1.34,0,0,1,1.5-1.28,2.21,2.21,0,0,1,1.07.27l-.2.58a1.66,1.66,0,0,0-.89-.25c-.47,0-.73.27-.73.59s.26.52.83.74c.76.29,1.15.66,1.15,1.31s-.6,1.31-1.63,1.31a2.51,2.51,0,0,1-1.23-.3Zm6.53-4.8v1.25h1.14v.6H91.48v2.35c0,.54.16.85.6.85a2.18,2.18,0,0,0,.46-.05l0,.59a2,2,0,0,1-.7.11,1.06,1.06,0,0,1-.85-.34,1.58,1.58,0,0,1-.31-1.13v-2.38H90v-.6h.68v-1Zm2-.78h.79v2.71h0a1.38,1.38,0,0,1,.57-.55,1.56,1.56,0,0,1,.81-.23c.58,0,1.52.36,1.52,1.87v2.59h-.79V231c0-.71-.27-1.3-1-1.3a1.15,1.15,0,0,0-1.07.79,1.09,1.09,0,0,0,0,.38v2.63h-.79Zm5.43,4.35a1.41,1.41,0,0,0,1.5,1.52,2.81,2.81,0,0,0,1.21-.23l.13.57a3.65,3.65,0,0,1-1.45.27,2,2,0,0,1-2.14-2.2,2.11,2.11,0,0,1,2-2.35,1.85,1.85,0,0,1,1.8,2.05c0,.17,0,.29,0,.37Zm2.33-.56a1.13,1.13,0,0,0-1.1-1.29A1.33,1.33,0,0,0,99,230.92Zm6.76,2.44a3.08,3.08,0,0,1-1.25.25,2.07,2.07,0,0,1-2.17-2.23,2.21,2.21,0,0,1,2.34-2.31,2.57,2.57,0,0,1,1.09.23l-.18.61a1.76,1.76,0,0,0-.91-.21,1.51,1.51,0,0,0-1.54,1.65,1.49,1.49,0,0,0,1.51,1.63,2.2,2.2,0,0,0,1-.22Zm.92-6.23h.79v2.71h0a1.51,1.51,0,0,1,.57-.55,1.56,1.56,0,0,1,.81-.23c.59,0,1.52.36,1.52,1.87v2.59h-.79V231c0-.71-.26-1.3-1-1.3a1.14,1.14,0,0,0-1.06.79.89.89,0,0,0-.06.38v2.63H109Zm7.41,6.39-.06-.55h0a1.62,1.62,0,0,1-1.33.65,1.24,1.24,0,0,1-1.33-1.25c0-1.06.93-1.63,2.62-1.62v-.09a.9.9,0,0,0-1-1,2.16,2.16,0,0,0-1.13.32l-.18-.52a2.64,2.64,0,0,1,1.43-.39c1.33,0,1.66.91,1.66,1.78v1.63a6.68,6.68,0,0,0,.07,1.05Zm-.12-2.23c-.86,0-1.84.14-1.84,1a.69.69,0,0,0,.74.75,1.09,1.09,0,0,0,1.06-.73.73.73,0,0,0,0-.25Zm2.05-4.16h.79v6.39h-.79Zm2.12,0h.79v6.39h-.79Zm2.56,4.35a1.41,1.41,0,0,0,1.5,1.52,2.81,2.81,0,0,0,1.21-.23l.13.57a3.65,3.65,0,0,1-1.45.27,2,2,0,0,1-2.14-2.2,2.11,2.11,0,0,1,2-2.35,1.85,1.85,0,0,1,1.8,2.05c0,.17,0,.29,0,.37Zm2.33-.56a1.13,1.13,0,0,0-1.1-1.29,1.33,1.33,0,0,0-1.22,1.29Zm1.74-.58c0-.45,0-.82,0-1.18h.7l0,.72h0a1.62,1.62,0,0,1,1.44-.82c.61,0,1.54.36,1.54,1.86v2.6H130V231c0-.71-.26-1.29-1-1.29a1.12,1.12,0,0,0-1.06.81,1,1,0,0,0-.06.37v2.62H127Zm8.75-1.18c0,.32,0,.67,0,1.2v2.53a2.48,2.48,0,0,1-.63,2,2.32,2.32,0,0,1-1.58.52,2.86,2.86,0,0,1-1.45-.36l.2-.6a2.47,2.47,0,0,0,1.28.34c.81,0,1.4-.42,1.4-1.52v-.49h0a1.54,1.54,0,0,1-1.38.73,2,2,0,0,1-1.86-2.12,2.1,2.1,0,0,1,2-2.32,1.44,1.44,0,0,1,1.36.76h0l0-.66Zm-.82,1.72a1.37,1.37,0,0,0,0-.36,1.15,1.15,0,0,0-1.11-.84c-.76,0-1.3.64-1.3,1.65,0,.86.44,1.57,1.29,1.57a1.16,1.16,0,0,0,1.1-.81,1.59,1.59,0,0,0,.06-.43Zm2.54.6A1.4,1.4,0,0,0,139,233a2.81,2.81,0,0,0,1.21-.23l.14.57a3.65,3.65,0,0,1-1.45.27,2,2,0,0,1-2.15-2.2,2.12,2.12,0,0,1,2.05-2.35,1.85,1.85,0,0,1,1.8,2.05,2.58,2.58,0,0,1,0,.37Zm2.32-.56a1.12,1.12,0,0,0-1.1-1.29,1.31,1.31,0,0,0-1.21,1.29Zm1.45,2.13a.54.54,0,1,1,.53.57A.53.53,0,0,1,141.28,233.05Zm2-5.7a10.52,10.52,0,0,1-.83,2.13l-.51.07a13.68,13.68,0,0,0,.53-2.12Zm1.34,0a11.09,11.09,0,0,1-.84,2.13l-.51.07a12.62,12.62,0,0,0,.54-2.12Z" transform="translate(52.67 11.54)"/><text class="cls-34" transform="translate(82.49 257.89)">“<tspan class="cls-119" x="3.19" y="0">S</tspan><tspan x="7.68" y="0">o</tspan><tspan class="cls-120" x="12.62" y="0"> </tspan><tspan class="cls-79" x="15.61" y="0">t</tspan><tspan x="18.54" y="0">od</tspan><tspan class="cls-96" x="28.56" y="0">a</tspan><tspan class="cls-89" x="32.82" y="0">y</tspan><tspan x="36.72" y="0">,</tspan><tspan class="cls-121" x="38.58" y="0"> </tspan><tspan class="cls-122" x="41.58" y="0">m</tspan><tspan x="48.97" y="0">y</tspan><tspan class="cls-120" x="53.21" y="0"> </tspan><tspan x="56.2" y="0">f</tspan><tspan class="cls-39" x="58.83" y="0">r</tspan><tspan x="61.81" y="0">iend</tspan><tspan class="cls-65" x="78.5" y="0">s</tspan><tspan x="81.96" y="0">,</tspan><tspan class="cls-121" x="83.82" y="0"> </tspan><tspan x="86.82" y="0">Jesus</tspan><tspan class="cls-120" x="106.75" y="0"> </tspan><tspan x="109.74" y="0">is</tspan><tspan class="cls-120" x="115.41" y="0"> </tspan><tspan x="118.41" y="0">i</tspan><tspan class="cls-41" x="120.52" y="0">n</tspan><tspan class="cls-45" x="125.4" y="0">viting</tspan><tspan class="cls-120" x="146.94" y="0"> </tspan><tspan class="cls-40" x="149.94" y="0">y</tspan><tspan x="154.09" y="0">o</tspan><tspan class="cls-68" x="159.03" y="0">u</tspan><tspan x="163.92" y="0">,</tspan><tspan class="cls-120" x="165.79" y="0"> </tspan><tspan class="cls-45" x="168.78" y="0">calling</tspan><tspan class="cls-121" x="193.53" y="0"> </tspan><tspan class="cls-123" x="196.53" y="0">y</tspan><tspan class="cls-45" x="200.68" y="0">o</tspan><tspan class="cls-124" x="205.62" y="0">u</tspan><tspan class="cls-66" x="210.52" y="0">,</tspan><tspan class="cls-121" x="212.38" y="0"> </tspan><tspan class="cls-48" x="215.38" y="0">t</tspan><tspan x="218.3" y="0">o</tspan><tspan class="cls-121" x="223.24" y="0"> </tspan><tspan x="226.24" y="0">le</tspan><tspan class="cls-125" x="232.87" y="0">a</tspan><tspan class="cls-42" x="237.15" y="0">v</tspan><tspan x="241.39" y="0">e </tspan></text><text class="cls-34" transform="translate(82.49 267.89)"><tspan class="cls-42">y</tspan><tspan class="cls-38" x="4.16" y="0">our</tspan><tspan class="cls-126" x="17" y="0"> </tspan><tspan class="cls-38" x="19" y="0">ma</tspan><tspan class="cls-43" x="30.84" y="0">r</tspan><tspan x="33.81" y="0">k</tspan><tspan class="cls-127" x="38.03" y="0"> </tspan><tspan x="40.03" y="0">on</tspan><tspan class="cls-127" x="49.97" y="0"> </tspan><tspan x="51.97" y="0">li</tspan><tspan class="cls-57" x="56.2" y="0">f</tspan><tspan class="cls-73" x="58.72" y="0">e</tspan><tspan x="63.13" y="0">,</tspan><tspan class="cls-127" x="64.99" y="0"> </tspan><tspan class="cls-79" x="66.99" y="0">t</tspan><tspan x="69.91" y="0">o</tspan><tspan class="cls-127" x="74.85" y="0"> </tspan><tspan x="76.85" y="0">le</tspan><tspan class="cls-96" x="83.48" y="0">a</tspan><tspan class="cls-42" x="87.75" y="0">v</tspan><tspan x="92" y="0">e</tspan><tspan class="cls-127" x="96.51" y="0"> </tspan><tspan x="98.5" y="0">a</tspan><tspan class="cls-126" x="102.84" y="0"> </tspan><tspan class="cls-38" x="104.84" y="0">ma</tspan><tspan class="cls-39" x="116.68" y="0">r</tspan><tspan x="119.66" y="0">k</tspan><tspan class="cls-127" x="123.88" y="0"> </tspan><tspan x="125.88" y="0">on</tspan><tspan class="cls-126" x="135.82" y="0"> </tspan><tspan x="137.81" y="0">his</tspan><tspan class="cls-79" x="148.48" y="0">t</tspan><tspan x="151.4" y="0">o</tspan><tspan class="cls-115" x="156.35" y="0">r</tspan><tspan class="cls-89" x="159.51" y="0">y</tspan><tspan x="163.41" y="0">,</tspan><tspan class="cls-127" x="165.27" y="0"> </tspan><tspan class="cls-116" x="167.27" y="0">y</tspan><tspan x="171.43" y="0">our</tspan><tspan class="cls-127" x="184.27" y="0"> </tspan><tspan class="cls-79" x="186.27" y="0">o</tspan><tspan class="cls-45" x="191.16" y="0">wn</tspan><tspan class="cls-126" x="202.78" y="0"> </tspan><tspan x="204.77" y="0">and</tspan><tspan class="cls-126" x="219.18" y="0"> </tspan><tspan x="221.18" y="0">th</tspan><tspan class="cls-75" x="229.15" y="0">a</tspan><tspan x="233.46" y="0">t</tspan><tspan class="cls-126" x="236.43" y="0"> </tspan><tspan x="238.43" y="0">of </tspan></text><text class="cls-34" transform="translate(82.49 277.89)">ma<tspan class="cls-41" x="11.84" y="0">n</tspan><tspan class="cls-38" x="16.72" y="0">y others as </tspan><tspan class="cls-40" x="58.52" y="0">w</tspan><tspan x="65.05" y="0">el</tspan><tspan class="cls-42" x="71.68" y="0">l</tspan><tspan class="cls-128" x="73.73" y="0">.</tspan><tspan x="74.58" y="0">”» </tspan></text><text class="cls-34" transform="translate(185.96 290.72)">(<tspan class="cls-129" x="2.56" y="0">P</tspan><tspan x="7.12" y="0">ope </tspan><tspan class="cls-129" x="23.6" y="0">F</tspan><tspan class="cls-86" x="27.76" y="0">r</tspan><tspan x="30.66" y="0">anci</tspan><tspan class="cls-40" x="46.13" y="0">s</tspan><tspan x="49.61" y="0">, in </tspan><tspan class="cls-130" x="62.39" y="0">K</tspan><tspan class="cls-72" x="67.35" y="0">r</tspan><tspan x="70.24" y="0">ak</tspan><tspan class="cls-68" x="78.8" y="0">o</tspan><tspan class="cls-131" x="83.68" y="0">w</tspan><tspan class="cls-38" x="89.96" y="0">, 30 July 2016) </tspan></text><rect class="cls-3" x="84.5" y="107.75" width="5.95" height="5.95"/><g class="cls-4"><path class="cls-132" d="M421.13,75c0,1.84,0,3.68,0,5.52,0,.55.19.8.75.82a25.29,25.29,0,0,0,3.59,0A9,9,0,0,0,429,80.19c2.55-1.51,3.17-3.86,2.85-6.6a5.25,5.25,0,0,0-4.21-4.52,16,16,0,0,0-5.72-.27c-.63,0-.81.28-.8.88,0,1.76,0,3.52,0,5.28m-9,7.67V63.91c0-.24,0-.48,0-.72,0-.87,0-.89.92-1,1.11-.17,2.21-.35,3.33-.46a70.82,70.82,0,0,1,10.3-.26,19.3,19.3,0,0,1,7.2,1.65c4.48,2.09,6.75,5.69,7.08,10.57a15.38,15.38,0,0,1-.36,4.53c-1.07,4.54-4,7.45-8.21,9.14a23.82,23.82,0,0,1-9.54,1.45c-1.73,0-1.73,0-1.73,1.73,0,3.84,0,7.68,0,11.52,0,1.38-.39,1.77-1.77,1.77q-2.76,0-5.52,0c-1.26,0-1.7-.45-1.7-1.73q0-9.72,0-19.44" transform="translate(52.67 11.54)"/><path class="cls-132" d="M512.56,91.67a.86.86,0,0,0,.37-.63q2.46-8.52,4.93-17c.32-1.11.33-1.11,1.54-1.11q3.3,0,6.6,0c1.13,0,1.7.75,1.31,1.77-3.21,8.52-6.14,17.14-9.55,25.58a52.31,52.31,0,0,1-3.86,7.84,20.09,20.09,0,0,1-7.33,7.26,16.49,16.49,0,0,1-8.53,1.9c-.05-1.77-.12-3.52-.15-5.27,0-.75-.29-1.64.1-2.23s1.3-.48,2-.7a12.56,12.56,0,0,0,7.4-6.08,2.14,2.14,0,0,0,.09-2Q502.28,88,497.14,75c-.16-.39-.48-.77-.23-1.25a1.38,1.38,0,0,1,1.39-.89c2.35.06,4.72,0,7.07,0a1,1,0,0,1,1.18.86c1.89,5.76,3.82,11.51,5.75,17.27.07.22.17.44.26.66" transform="translate(52.67 11.54)"/><path class="cls-132" d="M484.19,91.93c0-.8,0-1.4,0-2,0-.28-.12-.44-.43-.43A12.54,12.54,0,0,0,477.42,91a3.52,3.52,0,0,0-1.54,1.93,3.35,3.35,0,0,0,1.91,4.43,5.21,5.21,0,0,0,6.31-3.55,9.28,9.28,0,0,0,.09-1.83m.67,9.72c-.44.07-.66.39-.95.59a12.1,12.1,0,0,1-10.75,1.64,9.36,9.36,0,0,1-6.43-10.19,10.11,10.11,0,0,1,5.57-8.16,20.79,20.79,0,0,1,8-2.28c1.19-.13,2.39-.2,3.57-.29a3.27,3.27,0,0,0-2.19-3.36,8.92,8.92,0,0,0-4.61-.35,14.32,14.32,0,0,0-5,1.58,1.29,1.29,0,0,1-2-.83c-.42-1.33-.79-2.68-1.22-4a.83.83,0,0,1,.47-1.15,19.82,19.82,0,0,1,7-2.33,20.84,20.84,0,0,1,7.87.12,10.71,10.71,0,0,1,8.63,9.16,22.63,22.63,0,0,1,.28,3.58c0,4.08,0,8.16,0,12.24a34.51,34.51,0,0,0,.31,4.54,1.34,1.34,0,0,1-1.37,1.65c-2,0-4,0-6,0-.64,0-.86-.25-.91-.82a2.81,2.81,0,0,0-.28-1.35" transform="translate(52.67 11.54)"/><path class="cls-5" d="M530.71,39.23c.57-1.92,1.14-3.75,1.65-5.59.17-.62.54-.56,1-.46a38.07,38.07,0,0,1,7.52,2.4,45.78,45.78,0,0,1,19.83,17,44.17,44.17,0,0,1,6.87,17.11,35.43,35.43,0,0,1,.52,8.1c-.05.84-.06.86-.91.87-1.71,0-3.43,0-5.15,0-.52,0-.71-.18-.66-.71.65-6.82-1.23-13-4.49-18.92a41.71,41.71,0,0,0-14.84-15.66,27.28,27.28,0,0,0-10.12-3.85c-.35-.05-.7-.15-1.22-.26" transform="translate(52.67 11.54)"/><path class="cls-132" d="M454.3,76.06c.49-.16.65-.56.91-.83a8.82,8.82,0,0,1,8.47-2.82c.49.09.67.27.67.76,0,2.16,0,4.32,0,6.48,0,.91-.63,1.38-1.58,1.26a7.94,7.94,0,0,0-2.75,0,5.62,5.62,0,0,0-4.37,4.57,11.43,11.43,0,0,0-.28,2.86c0,4.51,0,9,0,13.55,0,1.53-.35,1.88-1.9,1.88-1.8,0-3.59,0-5.39,0-1.33,0-1.79-.46-1.79-1.78,0-6.84,0-13.67,0-20.51,0-2.35,0-4.71-.18-7.07a1.29,1.29,0,0,1,1.36-1.54c2,0,4,0,6,0,.61,0,.72.26.73.79a11.35,11.35,0,0,0,.13,2.39" transform="translate(52.67 11.54)"/><path class="cls-132" d="M404,88.41c0,4.52,0,9,0,13.55,0,1.49-.33,1.82-1.82,1.82q-2.82,0-5.64,0c-1.16,0-1.64-.5-1.64-1.68q0-13.78,0-27.57c0-1.12.47-1.62,1.56-1.62h6c1.16,0,1.55.41,1.55,1.6,0,4.63,0,9.27,0,13.9" transform="translate(52.67 11.54)"/><path class="cls-133" d="M548.4,78.54a1.17,1.17,0,0,1-.15-.83A21.72,21.72,0,0,0,545.08,65,26.32,26.32,0,0,0,534,54.35a17.06,17.06,0,0,0-6.4-1.86c-.78-.06-.8-.09-.57-.88.5-1.72,1-3.44,1.51-5.17.14-.5.36-.58.86-.5a25,25,0,0,1,9.69,4A35.64,35.64,0,0,1,554,70a24.61,24.61,0,0,1,1,7.82c0,.46-.09.75-.65.74-2,0-4,0-5.9,0" transform="translate(52.67 11.54)"/><path class="cls-7" d="M538.12,78.44c-.72,0-1.45,0-2.16,0s-.8-.22-.86-.82a15.93,15.93,0,0,0-6.2-11.09,15.65,15.65,0,0,0-4.63-2.47c-.82-.28-.83-.29-.61-1,.39-1.34.81-2.67,1.18-4,.16-.59.35-.73,1-.54a20.68,20.68,0,0,1,10.63,7.23A20.92,20.92,0,0,1,541,76.87c.16,1.59.16,1.59-1.4,1.59h-1.44Z" transform="translate(52.67 11.54)"/><path class="cls-132" d="M399.41,70.33a4.68,4.68,0,0,1-4.9-4.78,5,5,0,0,1,9.95,0,4.69,4.69,0,0,1-5,4.74" transform="translate(52.67 11.54)"/></g><text class="cls-134" transform="translate(473.28 129.06)"><tspan class="cls-135">W</tspan><tspan x="9.05" y="0">ith the </tspan><tspan class="cls-136" x="41.73" y="0">G</tspan><tspan x="48.94" y="0">os</tspan><tspan class="cls-137" x="59.55" y="0">p</tspan><tspan x="65.87" y="0">el</tspan></text><text class="cls-138" transform="translate(451.88 129.52) scale(1 1.42)"><tspan class="cls-139">&gt;</tspan><tspan class="cls-140" x="4.29" y="0">&gt;</tspan><tspan class="cls-141" x="8.56" y="0">&gt;</tspan><tspan x="12.85" y="0">&gt;</tspan></text><line class="cls-142" x1="436.15" y1="131.96" x2="585.53" y2="131.96"/><text class="cls-143" transform="translate(439.56 140.65)">RESOU<tspan class="cls-144" x="22.87" y="0">R</tspan><tspan class="cls-145" x="27.19" y="0">CES</tspan><tspan class="cls-146" x="39.71" y="0"> </tspan><tspan class="cls-147" x="41.08" y="0">T</tspan><tspan class="cls-145" x="44.84" y="0">O HELP</tspan><tspan class="cls-148" x="69.23" y="0"> </tspan><tspan class="cls-149" x="70.57" y="0">Y</tspan><tspan class="cls-145" x="74.61" y="0">OUNG PEOPLE P</tspan><tspan class="cls-150" x="129.05" y="0">R</tspan><tspan class="cls-151" x="133.39" y="0">A</tspan><tspan x="137.66" y="0">Y</tspan></text><g class="cls-152"><path class="cls-153" d="M115.15,350.86c0,1.84,0,3.68,0,5.52,0,.56.19.81.75.82a22.64,22.64,0,0,0,3.59,0A9,9,0,0,0,123,356.1c2.55-1.51,3.17-3.87,2.85-6.61a5.23,5.23,0,0,0-4.21-4.51,15.67,15.67,0,0,0-5.71-.27c-.64.05-.81.28-.8.88,0,1.76,0,3.52,0,5.27m-9,7.68V339.82c0-.24,0-.48,0-.72,0-.88,0-.89.92-1,1.11-.17,2.22-.35,3.33-.46a68.14,68.14,0,0,1,10.3-.26,19.2,19.2,0,0,1,7.2,1.64A11.72,11.72,0,0,1,135,349.56a15.35,15.35,0,0,1-.36,4.53c-1.07,4.55-4,7.46-8.21,9.14a23.62,23.62,0,0,1-9.53,1.45c-1.74,0-1.74,0-1.74,1.74,0,3.83,0,7.67,0,11.51,0,1.38-.39,1.77-1.77,1.78-1.84,0-3.68,0-5.52,0-1.26,0-1.7-.46-1.7-1.74V358.54" transform="translate(52.67 11.54)"/><path class="cls-153" d="M206.58,367.58A1,1,0,0,0,207,367q2.46-8.52,4.92-17c.32-1.12.33-1.12,1.54-1.12H220c1.13,0,1.7.75,1.31,1.78-3.2,8.51-6.13,17.13-9.55,25.58a52.78,52.78,0,0,1-3.86,7.84,20.06,20.06,0,0,1-7.32,7.26,16.44,16.44,0,0,1-8.54,1.89c-.05-1.77-.12-3.51-.15-5.26,0-.76-.29-1.65.1-2.23s1.31-.49,2-.71a12.5,12.5,0,0,0,7.41-6.07,2.17,2.17,0,0,0,.08-2q-5.19-13-10.33-25.93c-.15-.39-.48-.76-.22-1.24a1.37,1.37,0,0,1,1.38-.89c2.36.06,4.72.05,7.08,0a1,1,0,0,1,1.17.86c1.89,5.77,3.83,11.52,5.75,17.27.08.23.18.44.27.67" transform="translate(52.67 11.54)"/><path class="cls-153" d="M178.2,367.84v-2c0-.29-.13-.45-.44-.44a12.58,12.58,0,0,0-6.33,1.46,3.5,3.5,0,0,0-1.54,1.92,3.35,3.35,0,0,0,1.91,4.43,5.2,5.2,0,0,0,6.31-3.55,8.48,8.48,0,0,0,.09-1.82m.67,9.72c-.44.07-.66.39-1,.59a12.09,12.09,0,0,1-10.75,1.63,9.35,9.35,0,0,1-6.43-10.18,10.14,10.14,0,0,1,5.57-8.17,21.19,21.19,0,0,1,8-2.28c1.19-.12,2.39-.19,3.58-.29a3.28,3.28,0,0,0-2.2-3.36,8.82,8.82,0,0,0-4.61-.34,14.52,14.52,0,0,0-5,1.57,1.29,1.29,0,0,1-2-.82c-.42-1.34-.79-2.68-1.22-4a.83.83,0,0,1,.47-1.15,19.62,19.62,0,0,1,7-2.34,21,21,0,0,1,7.86.13,10.7,10.7,0,0,1,8.63,9.16,21.34,21.34,0,0,1,.28,3.58c0,4.08,0,8.16,0,12.23a36.48,36.48,0,0,0,.31,4.55,1.34,1.34,0,0,1-1.37,1.64c-2,0-4,0-6,0-.64,0-.85-.25-.9-.82a2.9,2.9,0,0,0-.29-1.34" transform="translate(52.67 11.54)"/><path class="cls-5" d="M224.72,315.14c.57-1.92,1.14-3.75,1.65-5.59.17-.63.54-.57,1-.47a38.07,38.07,0,0,1,7.52,2.4,45.88,45.88,0,0,1,19.84,17,44.26,44.26,0,0,1,6.86,17.1,35.55,35.55,0,0,1,.52,8.11c-.05.84-.06.86-.9.86-1.72,0-3.44,0-5.16,0-.51,0-.71-.18-.66-.72.65-6.81-1.23-13-4.49-18.92a41.68,41.68,0,0,0-14.84-15.65,27.28,27.28,0,0,0-10.12-3.85c-.35-.06-.69-.15-1.22-.26" transform="translate(52.67 11.54)"/><path class="cls-153" d="M148.31,352c.49-.17.65-.56.92-.84a8.82,8.82,0,0,1,8.46-2.82c.49.1.67.27.67.77,0,2.16,0,4.32,0,6.47,0,.91-.64,1.38-1.59,1.26a7.94,7.94,0,0,0-2.75,0,5.61,5.61,0,0,0-4.37,4.57,11.83,11.83,0,0,0-.28,2.85q0,6.78,0,13.55c0,1.54-.35,1.89-1.9,1.89h-5.39c-1.33,0-1.79-.46-1.79-1.79q0-10.25,0-20.5c0-2.36,0-4.72-.18-7.07a1.29,1.29,0,0,1,1.36-1.54c2,0,4,0,6,0,.61,0,.72.25.73.79a12.1,12.1,0,0,0,.13,2.39" transform="translate(52.67 11.54)"/><path class="cls-153" d="M98,364.32v13.55c0,1.49-.33,1.82-1.83,1.82H90.57c-1.16,0-1.64-.5-1.64-1.68q0-13.78,0-27.57c0-1.13.48-1.62,1.56-1.63h6c1.16,0,1.55.41,1.55,1.6q0,7,0,13.91" transform="translate(52.67 11.54)"/><path class="cls-133" d="M242.41,354.44a1.13,1.13,0,0,1-.14-.82,21.81,21.81,0,0,0-3.18-12.71A26.32,26.32,0,0,0,228,330.25a17.2,17.2,0,0,0-6.39-1.86c-.79-.06-.81-.09-.58-.87.5-1.73,1-3.44,1.51-5.17.15-.51.36-.59.86-.5a25,25,0,0,1,9.69,3.94A35.69,35.69,0,0,1,248,345.89a24.79,24.79,0,0,1,1,7.81c0,.46-.09.75-.65.75-2,0-4,0-5.9,0" transform="translate(52.67 11.54)"/><path class="cls-7" d="M232.13,354.35c-.72,0-1.44,0-2.16,0s-.8-.23-.86-.82a15.86,15.86,0,0,0-6.2-11.09,15.45,15.45,0,0,0-4.63-2.48c-.82-.28-.83-.28-.61-1,.39-1.34.82-2.68,1.18-4,.16-.59.35-.74,1-.55a20.71,20.71,0,0,1,10.62,7.24A21,21,0,0,1,235,352.77c.16,1.6.15,1.6-1.41,1.59h-1.44Z" transform="translate(52.67 11.54)"/><path class="cls-153" d="M93.42,346.24a4.68,4.68,0,0,1-4.9-4.78,5,5,0,0,1,10,0,4.71,4.71,0,0,1-5.06,4.74" transform="translate(52.67 11.54)"/></g><text class="cls-154" transform="translate(167.29 404.97)"><tspan class="cls-155">W</tspan><tspan x="9.05" y="0">ith the </tspan><tspan class="cls-156" x="41.73" y="0">G</tspan><tspan class="cls-157" x="48.94" y="0">os</tspan><tspan class="cls-158" x="59.56" y="0">p</tspan><tspan x="65.87" y="0">el</tspan></text><text class="cls-159" transform="translate(152.87 405.43) scale(1 1.42)"><tspan class="cls-160">&gt;</tspan><tspan class="cls-139" x="4.27" y="0">&gt;</tspan><tspan class="cls-161" x="8.56" y="0">&gt;</tspan><tspan x="12.84" y="0">&gt;</tspan></text><line class="cls-142" x1="128.03" y1="407.87" x2="277.42" y2="407.87"/><text class="cls-162" transform="translate(132.44 416.56)">RESOU<tspan class="cls-163" x="22.87" y="0">R</tspan><tspan x="27.2" y="0">CES</tspan><tspan class="cls-164" x="39.72" y="0"> </tspan><tspan class="cls-165" x="41.09" y="0">T</tspan><tspan class="cls-166" x="44.85" y="0">O HELP</tspan><tspan class="cls-167" x="69.24" y="0"> </tspan><tspan class="cls-149" x="70.57" y="0">Y</tspan><tspan class="cls-166" x="74.62" y="0">OUNG PEOPLE P</tspan><tspan class="cls-168" x="129.06" y="0">R</tspan><tspan class="cls-151" x="133.4" y="0">A</tspan><tspan x="137.67" y="0">Y</tspan></text></g></svg>