<svg id="Lent_Easter" data-name="Lent/Easter" xmlns="http://www.w3.org/2000/svg" xmlns:xlink="http://www.w3.org/1999/xlink" viewBox="0 0 1097.73 1459.85"><defs><style>.cls-1,.cls-13{fill:none;}.cls-2,.cls-45,.cls-92{fill:#c98b4c;}.cls-3,.cls-86{fill:#d4a05a;}.cls-3{opacity:0.53;}.cls-4,.cls-78{fill:#653901;}.cls-5{opacity:0.35;}.cls-6{clip-path:url(#clip-path);}.cls-7,.cls-72,.cls-73{fill:#386388;}.cls-7{opacity:0.44;}.cls-8{font-size:18.36px;}.cls-14,.cls-27,.cls-28,.cls-29,.cls-30,.cls-32,.cls-36,.cls-46,.cls-47,.cls-77,.cls-8,.cls-82{fill:#fff;}.cls-32,.cls-8{font-family:MyriadPro-Bold, Myriad Pro;font-weight:700;}.cls-9{letter-spacing:-0.03em;}.cls-10{letter-spacing:0em;}.cls-11{letter-spacing:0em;}.cls-12{letter-spacing:0em;}.cls-13{stroke:#fff;}.cls-14{font-size:13.99px;}.cls-14,.cls-22,.cls-26,.cls-27,.cls-28,.cls-36,.cls-73,.cls-77,.cls-78,.cls-82,.cls-89,.cls-92{font-family:MyriadPro-Regular, Myriad Pro;}.cls-15{letter-spacing:0em;}.cls-16{letter-spacing:-0.08em;}.cls-17{letter-spacing:-0.01em;}.cls-18{letter-spacing:0em;}.cls-19{letter-spacing:-0.04em;}.cls-20{letter-spacing:-0.04em;}.cls-21,.cls-29{font-size:49.31px;letter-spacing:-0.02em;}.cls-21,.cls-22,.cls-26,.cls-31,.cls-89{fill:#74522b;}.cls-21,.cls-29,.cls-45,.cls-46{font-family:KeepCalm-Medium, Keep Calm;}.cls-21,.cls-29,.cls-45,.cls-46,.cls-47{font-weight:500;}.cls-22,.cls-27,.cls-75,.cls-76,.cls-78{font-size:25px;}.cls-23{letter-spacing:-0.08em;}.cls-24,.cls-25,.cls-82,.cls-89{font-size:16px;}.cls-24,.cls-90{letter-spacing:-0.03em;}.cls-26,.cls-28,.cls-91{font-size:21px;}.cls-32{font-size:12.93px;}.cls-33{letter-spacing:-0.03em;}.cls-34{letter-spacing:0.01em;}.cls-35{letter-spacing:0em;}.cls-36{font-size:9.85px;}.cls-37{letter-spacing:0em;}.cls-38{letter-spacing:-0.08em;}.cls-39{letter-spacing:-0.01em;}.cls-40{letter-spacing:0em;}.cls-41{letter-spacing:0em;}.cls-42{letter-spacing:-0.05em;}.cls-43{letter-spacing:-0.03em;}.cls-44{letter-spacing:0em;}.cls-45,.cls-46{font-size:91.17px;letter-spacing:-0.02em;}.cls-47{font-size:12px;font-family:Lato-Medium, Lato;}.cls-48{letter-spacing:0.02em;}.cls-49{letter-spacing:0.02em;}.cls-50{letter-spacing:0.11em;}.cls-51{letter-spacing:0em;}.cls-52{letter-spacing:0.03em;}.cls-53{letter-spacing:0.03em;}.cls-54{letter-spacing:0.04em;}.cls-55{letter-spacing:0.04em;}.cls-56{letter-spacing:-0.03em;}.cls-57{letter-spacing:-0.03em;}.cls-58{letter-spacing:-0.03em;}.cls-59{letter-spacing:0.02em;}.cls-60{letter-spacing:0.02em;}.cls-61{letter-spacing:0.01em;}.cls-62{letter-spacing:0.01em;}.cls-63{letter-spacing:-0.01em;}.cls-64{letter-spacing:-0.01em;}.cls-65{letter-spacing:0.02em;}.cls-66{letter-spacing:0.02em;}.cls-67{letter-spacing:0.14em;}.cls-68{letter-spacing:0.14em;}.cls-69{letter-spacing:-0.01em;}.cls-70{letter-spacing:-0.01em;}.cls-71{letter-spacing:5.07em;}.cls-73,.cls-77,.cls-79,.cls-92{font-size:28.18px;}.cls-74{letter-spacing:-0.08em;}.cls-75{letter-spacing:-0.03em;}.cls-80{letter-spacing:-0.04em;}.cls-81{letter-spacing:0em;}.cls-83{letter-spacing:0.05em;}.cls-84{letter-spacing:-0.04em;}.cls-85{clip-path:url(#clip-path-2);}.cls-87{letter-spacing:-0.03em;}.cls-88{letter-spacing:-0.01em;}.cls-93{letter-spacing:-0.03em;}.cls-94{letter-spacing:-0.01em;}</style><clipPath id="clip-path" transform="translate(75.9 5.5)"><rect class="cls-1" x="-104.77" y="834.4" width="615.18" height="623.4"/></clipPath><clipPath id="clip-path-2" transform="translate(75.9 5.5)"><rect class="cls-1" x="-110.9" y="89.89" width="615.18" height="623.4"/></clipPath></defs><rect class="cls-2" x="61.28" y="721.11" width="981.31" height="718.11"/><path class="cls-3" d="M-3,907.9s-8.79,0-8.79,7.65v281.29s0,7.65,8.79,7.65H413.24s8.8,0,8.8-7.65V915.55s0-7.65-8.8-7.65Z" transform="translate(75.9 5.5)"/><path class="cls-4" d="M595.79,925.09c8-23.65,16-46.12,23.24-68.8,2.47-7.71,6.82-6.71,12.3-5.17A443.87,443.87,0,0,1,719.89,886c97.26,51.48,171.67,128.15,227,225.6,38.36,67.58,62.57,140.42,71.49,218.4,3.85,33.74,4.84,67.79,1.16,101.74-1.13,10.49-1.25,10.73-11.39,10.21-20.59-1-41.16-2.53-61.75-3.57-6.17-.31-8.42-2.7-7.47-9.36,12.08-84.81-6.51-164-41.92-239.6-39-83.38-94.26-152.84-168-205.49-36.28-25.93-75.42-45.45-118.8-54.82-4.18-.9-8.26-2.3-14.44-4.06" transform="translate(75.9 5.5)"/><path class="cls-4" d="M783,1428.27c-2.37-4.44-1.58-7.46-1.23-10.37,6.92-57.13-5.36-110.5-30.11-161-29-59.23-69.83-107.42-125.76-140.55-23.52-13.93-48.43-23.91-75.46-27.51-9.38-1.26-9.56-1.64-6.35-11.3,7-21.26,14.51-42.37,21.39-63.69,2-6.19,4.65-7.06,10.58-5.66,41.84,9.88,79.53,29.17,113.65,55.71,85.09,66.18,140.57,153.17,165.33,261a325.54,325.54,0,0,1,6.91,98.38c-.45,5.76-1.56,9.35-8.29,8.92-23.86-1.56-47.74-2.71-70.66-4" transform="translate(75.9 5.5)"/><path class="cls-4" d="M659.88,1420.38c-8.62-.47-17.25-1.38-25.87-1.28-7.6.09-9.42-3.36-9.79-10.84-2.9-57.54-26.39-104.72-67.34-142.74-15.92-14.78-34.2-25.66-53.91-34-9.64-4.08-9.75-4.14-6.63-13.48,5.51-16.53,11.44-32.91,16.64-49.55,2.27-7.27,4.68-8.91,12.28-6.14,51.14,18.62,91.56,51.73,122.74,97.43,29.11,42.66,44.65,90.38,47,142.73.9,20.09.85,20.09-17.88,19-5.75-.34-11.5-.63-17.25-1v-.17" transform="translate(75.9 5.5)"/><g class="cls-5"><g class="cls-6"><path class="cls-7" d="M31.49,937.3c8.05-23.65,16-46.12,23.25-68.81,2.47-7.7,6.81-6.7,12.3-5.16a443.55,443.55,0,0,1,88.55,34.92c97.27,51.48,171.68,128.15,227,225.6,38.35,67.58,62.57,140.41,71.48,218.4,3.86,33.74,4.84,67.79,1.17,101.74-1.13,10.49-1.26,10.73-11.39,10.21-20.59-1-41.16-2.53-61.75-3.57-6.17-.31-8.42-2.7-7.47-9.36,12.07-84.81-6.51-164-41.92-239.6-39.06-83.38-94.26-152.84-168-205.49-36.29-25.93-75.43-45.45-118.8-54.82-4.18-.9-8.26-2.3-14.45-4.06" transform="translate(75.9 5.5)"/><path class="cls-7" d="M218.73,1440.48c-2.36-4.45-1.57-7.47-1.22-10.38,6.92-57.12-5.37-110.49-30.11-161-29-59.23-69.83-107.42-125.77-140.55-23.51-13.93-48.42-23.91-75.46-27.51-9.38-1.26-9.55-1.64-6.34-11.3,7.05-21.26,14.51-42.37,21.38-63.69,2-6.19,4.65-7.06,10.59-5.66,41.84,9.88,79.52,29.17,113.65,55.71,85.09,66.18,140.57,153.17,165.33,261a325.54,325.54,0,0,1,6.91,98.38c-.45,5.76-1.57,9.35-8.3,8.91-23.85-1.55-47.73-2.7-70.66-4" transform="translate(75.9 5.5)"/><path class="cls-7" d="M95.59,1432.59c-8.62-.47-17.25-1.38-25.87-1.28-7.6.09-9.42-3.37-9.8-10.84-2.9-57.54-26.38-104.72-67.33-142.74-15.92-14.78-34.21-25.66-53.91-34-9.64-4.08-9.75-4.14-6.64-13.48,5.51-16.53,11.45-32.92,16.65-49.55,2.27-7.27,4.67-8.91,12.28-6.14C12.1,1193.19,52.53,1226.3,83.71,1272c29.1,42.66,44.64,90.38,47,142.73.9,20.09.86,20.09-17.87,19-5.75-.34-11.5-.63-17.25-1v-.17" transform="translate(75.9 5.5)"/></g></g><rect class="cls-3" x="10.15" y="801.34" width="119.37" height="43.93"/><rect class="cls-3" x="415.1" y="802.12" width="3.31" height="44"/><rect class="cls-3" x="421.91" y="802.12" width="83.42" height="44"/><path class="cls-1" d="M98.31,241.91s-5.67,0-5.67,5.67V455.87s0,5.66,5.67,5.66H366.58s5.67,0,5.67-5.66V247.58s0-5.67-5.67-5.67Z" transform="translate(75.9 5.5)"/><path class="cls-2" d="M621.17,906c0,3.22,0,6.43,0,9.65,0,1,.32,1.4,1.26,1.43a37.8,37.8,0,0,0,6-.05,14.49,14.49,0,0,0,5.91-1.88c4.27-2.64,5.31-6.76,4.77-11.55-.43-3.93-3-6.71-7.05-7.89a25.49,25.49,0,0,0-9.57-.48c-1.06.1-1.36.5-1.34,1.54.05,3.08,0,6.16,0,9.23m-15.06,13.41v-34c0-1.53,0-1.56,1.55-1.8,1.85-.3,3.71-.62,5.57-.8a111.79,111.79,0,0,1,17.26-.46,31.19,31.19,0,0,1,12,2.88c7.51,3.66,11.31,10,11.85,18.48a27.68,27.68,0,0,1-.59,7.91c-1.79,8-6.66,13-13.76,16a38.35,38.35,0,0,1-16,2.53c-2.9-.08-2.9-.07-2.9,3v20.13c0,2.42-.67,3.1-3,3.1-3.08,0-6.17,0-9.25,0-2.11,0-2.84-.79-2.84-3q0-17,0-34" transform="translate(75.9 5.5)"/><path class="cls-2" d="M774.29,935.22a1.6,1.6,0,0,0,.61-1.11q4.13-14.88,8.25-29.76c.54-2,.55-2,2.58-2,3.69,0,7.37,0,11.06,0,1.89,0,2.84,1.31,2.19,3.1-5.37,14.89-10.28,30-16,44.71a94.79,94.79,0,0,1-6.46,13.71,34.42,34.42,0,0,1-12.28,12.7c-4.39,2.58-9.15,3.37-14.29,3.31-.09-3.09-.21-6.15-.26-9.21,0-1.32-.48-2.87.18-3.89s2.18-.85,3.32-1.23A21.25,21.25,0,0,0,765.61,955a3.94,3.94,0,0,0,.14-3.57q-8.7-22.64-17.3-45.32c-.26-.68-.8-1.34-.37-2.17a2.31,2.31,0,0,1,2.31-1.56c4,.11,7.9.09,11.85,0,1.15,0,1.61.38,2,1.51,3.17,10.08,6.41,20.13,9.63,30.19.13.39.29.76.45,1.16" transform="translate(75.9 5.5)"/><path class="cls-2" d="M726.76,935.68v-3.5c0-.5-.22-.78-.73-.76-3.69.14-7.35.45-10.61,2.54a6.08,6.08,0,0,0-2.57,3.36c-1.08,3.41.32,6.81,3.2,7.75,4.28,1.4,9.52-1.67,10.56-6.21a15.74,15.74,0,0,0,.15-3.18m1.12,17c-.73.13-1.1.69-1.59,1a19.55,19.55,0,0,1-18,2.87c-7.59-2.45-11.57-10.06-10.76-17.81a17.68,17.68,0,0,1,9.32-14.27,33.92,33.92,0,0,1,13.42-4c2-.22,4-.34,6-.51a5.73,5.73,0,0,0-3.67-5.87,14.31,14.31,0,0,0-7.72-.6,23.37,23.37,0,0,0-8.38,2.75c-1.58.87-2.88.31-3.4-1.44-.7-2.33-1.32-4.69-2-7a1.49,1.49,0,0,1,.78-2,32.3,32.3,0,0,1,11.74-4.08,33.38,33.38,0,0,1,13.17.23c8,1.92,13.06,7.52,14.45,16a39.8,39.8,0,0,1,.47,6.26c0,7.14,0,14.27.05,21.4a66,66,0,0,0,.52,7.94,2.31,2.31,0,0,1-2.3,2.88c-3.35,0-6.7,0-10,0-1.07,0-1.43-.43-1.52-1.43a5.12,5.12,0,0,0-.48-2.36" transform="translate(75.9 5.5)"/><path class="cls-2" d="M676.71,907.93c.82-.29,1.08-1,1.53-1.46,3.91-4.2,8.54-6.08,14.18-4.93.82.17,1.12.47,1.12,1.34,0,3.77,0,7.55,0,11.32a2.1,2.1,0,0,1-2.65,2.2,12.69,12.69,0,0,0-4.6.06c-4.1,1-6.38,3.86-7.33,8a21.88,21.88,0,0,0-.47,5c0,7.9,0,15.79,0,23.69,0,2.69-.59,3.29-3.18,3.3-3,0-6,0-9,0-2.23,0-3-.81-3-3.12q0-17.92,0-35.85c0-4.12,0-8.24-.31-12.36a2.22,2.22,0,0,1,2.28-2.69c3.35,0,6.7,0,10,0,1,0,1.22.45,1.22,1.38a21.94,21.94,0,0,0,.23,4.18" transform="translate(75.9 5.5)"/><path class="cls-2" d="M592.51,929.52v23.69c0,2.61-.55,3.18-3.06,3.18-3.15,0-6.29,0-9.44,0-2,0-2.75-.87-2.75-2.94q0-24.09,0-48.2c0-2,.8-2.82,2.61-2.84,3.35,0,6.69,0,10,0,1.93,0,2.59.72,2.6,2.8q0,12.16,0,24.31" transform="translate(75.9 5.5)"/><path class="cls-2" d="M584.78,897.92a8,8,0,0,1-8.2-8.36,8.34,8.34,0,1,1,16.67.06,8,8,0,0,1-8.47,8.3" transform="translate(75.9 5.5)"/><text class="cls-8" transform="translate(693.97 984.6) scale(0.96 1)"><tspan class="cls-9">W</tspan><tspan x="15.82" y="0">ith the </tspan><tspan class="cls-10" x="72.95" y="0">G</tspan><tspan x="85.56" y="0">os</tspan><tspan class="cls-11" x="104.11" y="0">p</tspan><tspan class="cls-12" x="115.15" y="0">el</tspan></text><line class="cls-13" x1="637.06" y1="990.38" x2="887.24" y2="990.38"/><text class="cls-14" transform="translate(650.85 1006.42) scale(0.96 1)">P<tspan class="cls-15" x="7.44" y="0">R</tspan><tspan class="cls-16" x="15.03" y="0">A</tspan><tspan class="cls-17" x="22.49" y="0">Y</tspan><tspan x="29.97" y="0">ER RESOU</tspan><tspan class="cls-18" x="87.32" y="0">R</tspan><tspan x="94.88" y="0">CES FOR</tspan><tspan class="cls-19" x="143.7" y="0"> </tspan><tspan class="cls-20" x="146.04" y="0">Y</tspan><tspan x="153.11" y="0">OUNG PEOPLE</tspan></text><path class="cls-4" d="M221.6,1270.65c.7-2.37,1.39-4.61,2-6.88.21-.77.66-.69,1.23-.57a46.06,46.06,0,0,1,9.22,3,56.26,56.26,0,0,1,24.32,20.92,54.41,54.41,0,0,1,8.42,21.06,43.28,43.28,0,0,1,.64,10c-.06,1-.07,1.06-1.11,1.06-2.11,0-4.21,0-6.32,0-.63,0-.87-.22-.81-.88.8-8.39-1.51-16.06-5.51-23.29a51,51,0,0,0-18.2-19.27,33.33,33.33,0,0,0-12.41-4.74c-.43-.07-.85-.18-1.49-.32" transform="translate(75.9 5.5)"/><path class="cls-4" d="M243.29,1319a1.41,1.41,0,0,1-.18-1,26.76,26.76,0,0,0-3.9-15.64,32.16,32.16,0,0,0-13.55-13.12,21,21,0,0,0-7.85-2.3c-1-.07-1-.1-.7-1.07.61-2.12,1.26-4.24,1.85-6.37.18-.61.44-.71,1-.61a30.65,30.65,0,0,1,11.89,4.86,43.9,43.9,0,0,1,18.22,24.73,30.62,30.62,0,0,1,1.2,9.62c0,.57-.11.93-.8.92-2.44,0-4.88,0-7.23,0" transform="translate(75.9 5.5)"/><path class="cls-4" d="M230.68,1318.92c-.88,0-1.77,0-2.65,0s-1-.28-1.05-1a19.56,19.56,0,0,0-7.61-13.65,19,19,0,0,0-5.68-3c-1-.34-1-.35-.74-1.28.48-1.66,1-3.29,1.44-5,.2-.72.43-.9,1.23-.66a25.31,25.31,0,0,1,13,8.9,25.77,25.77,0,0,1,5.53,13.76c.2,2,.19,2-1.73,2h-1.76Z" transform="translate(75.9 5.5)"/><line class="cls-13" x1="115.19" y1="1376.97" x2="298.4" y2="1376.97"/><text class="cls-21" transform="translate(152.54 845.62) scale(0.96 1.11)">2022</text><text class="cls-22" transform="translate(315.25 825.92) scale(0.96 1)">JU<tspan class="cls-23" x="25.42" y="0">L</tspan><tspan x="35.12" y="0">Y </tspan><tspan class="cls-24" x="53.95" y="0">T</tspan><tspan class="cls-25" x="61.47" y="0">O</tspan></text><text class="cls-26" transform="translate(312.66 843.62) scale(0.96 1)">DECEMBER</text><text class="cls-27" transform="translate(314.14 825.58) scale(0.96 1)">JU<tspan class="cls-23" x="25.43" y="0">L</tspan><tspan x="35.12" y="0">Y </tspan><tspan class="cls-24" x="53.95" y="0">T</tspan><tspan class="cls-25" x="61.47" y="0">O </tspan></text><text class="cls-28" transform="translate(311.95 843.4) scale(0.96 1)">DECEMBER</text><text class="cls-29" transform="translate(151.16 845.62) scale(0.96 1.11)">2022</text><path class="cls-30" d="M619.54,905.16c0,3.22,0,6.44,0,9.65,0,1,.32,1.4,1.26,1.44a39,39,0,0,0,6-.06,14.49,14.49,0,0,0,5.91-1.88c4.27-2.64,5.31-6.75,4.78-11.54-.44-3.94-3-6.72-7.06-7.9a25.7,25.7,0,0,0-9.57-.47c-1.06.09-1.36.49-1.34,1.54.05,3.07,0,6.15,0,9.22m-15.06,13.42V885.86c0-.42,0-.84,0-1.26,0-1.54,0-1.57,1.54-1.81,1.86-.3,3.71-.61,5.57-.8a110.55,110.55,0,0,1,17.26-.45,31.09,31.09,0,0,1,12.06,2.87c7.5,3.66,11.31,10,11.84,18.48a27.75,27.75,0,0,1-.59,7.92c-1.79,7.94-6.66,13-13.76,16a38.17,38.17,0,0,1-16,2.53c-2.9-.08-2.9-.07-2.9,3q0,10.06,0,20.14c0,2.41-.66,3.09-3,3.1h-9.24c-2.12,0-2.85-.79-2.85-3q0-17,0-34" transform="translate(75.9 5.5)"/><path class="cls-30" d="M772.66,934.38a1.58,1.58,0,0,0,.61-1.1l8.25-29.77c.54-2,.55-2,2.59-2,3.68,0,7.36,0,11,0,1.89,0,2.84,1.31,2.19,3.1-5.37,14.89-10.28,30-16,44.72a94.68,94.68,0,0,1-6.46,13.7,34.47,34.47,0,0,1-12.27,12.7c-4.4,2.59-9.16,3.37-14.3,3.31-.09-3.09-.21-6.15-.26-9.21,0-1.31-.48-2.87.18-3.89s2.18-.85,3.32-1.23A21.19,21.19,0,0,0,764,954.13a4,4,0,0,0,.15-3.56q-8.71-22.65-17.31-45.32c-.26-.68-.8-1.34-.37-2.17a2.29,2.29,0,0,1,2.31-1.56c4,.11,7.9.08,11.86,0,1.14,0,1.6.37,2,1.5,3.17,10.08,6.41,20.13,9.63,30.19.13.39.29.77.45,1.16" transform="translate(75.9 5.5)"/><path class="cls-30" d="M725.13,934.84v-3.5c0-.5-.22-.78-.73-.76-3.69.15-7.35.46-10.6,2.54a6.07,6.07,0,0,0-2.58,3.37c-1.08,3.4.32,6.8,3.2,7.74,4.28,1.4,9.52-1.67,10.56-6.2a15.16,15.16,0,0,0,.15-3.19m1.12,17c-.73.13-1.09.68-1.58,1a19.57,19.57,0,0,1-18,2.86c-7.59-2.44-11.57-10.06-10.76-17.81a17.71,17.71,0,0,1,9.32-14.27,34.08,34.08,0,0,1,13.42-4c2-.21,4-.34,6-.5a5.74,5.74,0,0,0-3.68-5.87c-2.5-1.09-5.12-.95-7.72-.61a23.65,23.65,0,0,0-8.37,2.75c-1.58.88-2.88.31-3.41-1.44-.69-2.33-1.32-4.69-2-7a1.48,1.48,0,0,1,.78-2,32.18,32.18,0,0,1,11.74-4.08,33.62,33.62,0,0,1,13.18.22c8,1.92,13,7.52,14.44,16a38.55,38.55,0,0,1,.47,6.26c0,7.13,0,14.26.05,21.39a65.88,65.88,0,0,0,.52,7.94,2.31,2.31,0,0,1-2.3,2.88c-3.35,0-6.69,0-10,0-1.07,0-1.43-.43-1.52-1.43a5,5,0,0,0-.48-2.35" transform="translate(75.9 5.5)"/><path class="cls-30" d="M675.08,907.09c.82-.28,1.08-1,1.53-1.46,3.91-4.2,8.55-6.08,14.18-4.93.82.17,1.12.48,1.12,1.34,0,3.78,0,7.55,0,11.32a2.11,2.11,0,0,1-2.65,2.21,12.48,12.48,0,0,0-4.6,0c-4.09,1-6.38,3.86-7.33,8a22.61,22.61,0,0,0-.47,5c0,7.89,0,15.79,0,23.68,0,2.69-.59,3.3-3.18,3.3h-9c-2.23,0-3-.8-3-3.12,0-12,0-23.9,0-35.85,0-4.12,0-8.24-.31-12.35a2.23,2.23,0,0,1,2.28-2.7c3.35,0,6.7,0,10,0,1,0,1.22.44,1.22,1.38a21.88,21.88,0,0,0,.23,4.17" transform="translate(75.9 5.5)"/><path class="cls-30" d="M590.88,928.69q0,11.84,0,23.68c0,2.61-.55,3.18-3.06,3.18-3.14,0-6.29,0-9.43,0-2,0-2.76-.87-2.76-2.93q0-24.11,0-48.2c0-2,.8-2.83,2.61-2.84,3.35,0,6.69,0,10,0,1.94,0,2.6.72,2.6,2.8q0,12.15,0,24.31" transform="translate(75.9 5.5)"/><path class="cls-30" d="M583.15,897.08a8,8,0,0,1-8.2-8.36,8.34,8.34,0,1,1,16.67.07,8,8,0,0,1-8.47,8.29" transform="translate(75.9 5.5)"/><path class="cls-31" d="M82.86,1314.62c0,2.26,0,4.53,0,6.79,0,.68.24,1,.92,1a29.5,29.5,0,0,0,4.41,0,10.76,10.76,0,0,0,4.33-1.33c3.13-1.85,3.89-4.75,3.5-8.12-.33-2.77-2.17-4.73-5.17-5.56a19.44,19.44,0,0,0-7-.34c-.78.07-1,.35-1,1.09,0,2.16,0,4.33,0,6.5m-11,9.44v-23c0-.3,0-.59,0-.89,0-1.08,0-1.1,1.13-1.27,1.36-.21,2.72-.43,4.08-.56a84.67,84.67,0,0,1,12.64-.32,23.51,23.51,0,0,1,8.83,2c5.5,2.58,8.28,7,8.67,13a18.7,18.7,0,0,1-.43,5.58c-1.31,5.59-4.88,9.18-10.08,11.25A28.89,28.89,0,0,1,85,1331.62c-2.12,0-2.12,0-2.12,2.14v14.18c0,1.7-.49,2.18-2.18,2.18-2.25,0-4.51,0-6.76,0-1.55,0-2.09-.56-2.09-2.13v-23.93" transform="translate(75.9 5.5)"/><path class="cls-31" d="M195,1335.19a1.1,1.1,0,0,0,.45-.78q3-10.47,6-21c.4-1.37.41-1.37,1.9-1.37h8.09c1.39,0,2.08.92,1.61,2.18-3.94,10.49-7.53,21.1-11.72,31.49a65.32,65.32,0,0,1-4.73,9.65,24.67,24.67,0,0,1-9,8.94,20.2,20.2,0,0,1-10.47,2.33c-.07-2.18-.15-4.33-.19-6.48,0-.93-.36-2,.13-2.74s1.6-.6,2.43-.87a15.42,15.42,0,0,0,9.09-7.48,2.66,2.66,0,0,0,.1-2.51q-6.36-15.94-12.67-31.92c-.19-.47-.58-.94-.27-1.52a1.67,1.67,0,0,1,1.69-1.1c2.89.07,5.79.06,8.68,0a1.26,1.26,0,0,1,1.44,1.06c2.32,7.1,4.69,14.18,7.06,21.26.09.28.21.54.32.82" transform="translate(75.9 5.5)"/><path class="cls-31" d="M160.19,1335.51v-2.46c0-.35-.16-.55-.54-.53-2.7.09-5.38.31-7.76,1.78a4.32,4.32,0,0,0-1.89,2.37c-.79,2.4.24,4.79,2.34,5.45a6.37,6.37,0,0,0,7.74-4.36,10.68,10.68,0,0,0,.11-2.25m.82,12c-.54.09-.8.49-1.16.73a14.79,14.79,0,0,1-13.19,2,11.51,11.51,0,0,1-7.88-12.53,12.5,12.5,0,0,1,6.83-10.06,25.79,25.79,0,0,1,9.83-2.8c1.45-.15,2.92-.24,4.38-.36a4,4,0,0,0-2.69-4.13,10.91,10.91,0,0,0-5.66-.43,17.57,17.57,0,0,0-6.13,1.94,1.57,1.57,0,0,1-2.49-1c-.51-1.64-1-3.3-1.49-4.93a1,1,0,0,1,.57-1.42,24.1,24.1,0,0,1,8.59-2.87,25.47,25.47,0,0,1,9.65.15A13.17,13.17,0,0,1,170.75,1323a25.93,25.93,0,0,1,.34,4.4c0,5,0,10,0,15.07a45.51,45.51,0,0,0,.38,5.59,1.65,1.65,0,0,1-1.68,2c-2.45,0-4.91,0-7.36,0-.78,0-1.05-.31-1.11-1a3.41,3.41,0,0,0-.35-1.66" transform="translate(75.9 5.5)"/><path class="cls-31" d="M123.54,1316c.6-.2.79-.69,1.12-1a10.78,10.78,0,0,1,10.38-3.46c.6.11.82.33.82.94,0,2.66,0,5.31,0,8,0,1.12-.78,1.69-1.94,1.55a9.54,9.54,0,0,0-3.37,0,6.92,6.92,0,0,0-5.37,5.63,15.26,15.26,0,0,0-.34,3.51q0,8.34,0,16.68c0,1.89-.42,2.32-2.32,2.32q-3.31,0-6.62,0c-1.63,0-2.19-.56-2.2-2.19q0-12.63,0-25.25c0-2.9,0-5.8-.23-8.7a1.6,1.6,0,0,1,1.67-1.9c2.45,0,4.91,0,7.36,0,.75,0,.89.31.89,1a14.64,14.64,0,0,0,.17,2.94" transform="translate(75.9 5.5)"/><path class="cls-31" d="M61.88,1331.18v16.68c0,1.83-.41,2.23-2.24,2.24H52.73c-1.43,0-2-.62-2-2.07q0-17,0-33.94c0-1.38.58-2,1.91-2H60c1.42,0,1.9.51,1.9,2q0,8.57,0,17.12" transform="translate(75.9 5.5)"/><path class="cls-31" d="M56.22,1308.92a5.74,5.74,0,0,1-6-5.88,6.11,6.11,0,0,1,12.21,0c0,3.42-2.58,5.86-6.2,5.84" transform="translate(75.9 5.5)"/><text class="cls-32" transform="translate(154.81 1371.58)"><tspan class="cls-33">W</tspan><tspan x="11.14" y="0">ith the </tspan><tspan class="cls-34" x="51.36" y="0">G</tspan><tspan x="60.24" y="0">os</tspan><tspan class="cls-35" x="73.31" y="0">p</tspan><tspan x="81.08" y="0">el</tspan></text><text class="cls-36" transform="translate(120.65 1387.84)">P<tspan class="cls-37" x="5.24" y="0">R</tspan><tspan class="cls-38" x="10.59" y="0">A</tspan><tspan class="cls-39" x="15.84" y="0">Y</tspan><tspan class="cls-40" x="21.1" y="0">ER RESOU</tspan><tspan class="cls-41" x="61.49" y="0">R</tspan><tspan x="66.81" y="0">CES FOR</tspan><tspan class="cls-42" x="101.19" y="0"> </tspan><tspan class="cls-43" x="102.83" y="0">Y</tspan><tspan class="cls-44" x="107.81" y="0">OUNG PEOPLE</tspan></text><path class="cls-30" d="M81.2,1314c0,2.26,0,4.53,0,6.79,0,.68.24,1,.92,1a28.21,28.21,0,0,0,4.41,0,10.81,10.81,0,0,0,4.33-1.32c3.13-1.86,3.89-4.76,3.5-8.13-.32-2.77-2.17-4.73-5.17-5.56a19.44,19.44,0,0,0-7-.34c-.77.07-1,.35-1,1.09,0,2.16,0,4.33,0,6.5m-11,9.44v-23.93c0-1.08,0-1.1,1.14-1.27,1.35-.21,2.71-.43,4.07-.56a84.7,84.7,0,0,1,12.64-.32,23.42,23.42,0,0,1,8.83,2c5.5,2.58,8.28,7,8.68,13a19,19,0,0,1-.44,5.57c-1.31,5.6-4.87,9.18-10.07,11.25A29.12,29.12,0,0,1,83.34,1331c-2.13-.06-2.13,0-2.13,2.13,0,4.73,0,9.45,0,14.18,0,1.7-.48,2.18-2.17,2.18H72.27c-1.55,0-2.09-.56-2.09-2.13v-23.93" transform="translate(75.9 5.5)"/><path class="cls-30" d="M193.33,1334.6a1.11,1.11,0,0,0,.46-.78l6-21c.4-1.37.41-1.37,1.9-1.37h8.09c1.39,0,2.08.92,1.61,2.18-3.93,10.49-7.53,21.1-11.71,31.49a66.33,66.33,0,0,1-4.73,9.65,24.78,24.78,0,0,1-9,8.94,20.2,20.2,0,0,1-10.47,2.33c-.07-2.17-.15-4.33-.19-6.48,0-.93-.35-2,.13-2.74s1.6-.6,2.44-.87a15.37,15.37,0,0,0,9.08-7.48,2.69,2.69,0,0,0,.11-2.51q-6.37-15.95-12.68-31.92c-.18-.47-.58-.94-.27-1.52a1.69,1.69,0,0,1,1.7-1.1c2.89.07,5.78.06,8.68,0a1.25,1.25,0,0,1,1.43,1c2.33,7.1,4.7,14.18,7.06,21.26.09.28.21.54.32.82" transform="translate(75.9 5.5)"/><path class="cls-30" d="M158.53,1334.92v-2.46c0-.35-.16-.55-.53-.53-2.71.1-5.38.31-7.77,1.78a4.3,4.3,0,0,0-1.88,2.37c-.8,2.4.23,4.79,2.34,5.46a6.37,6.37,0,0,0,7.73-4.37,10.68,10.68,0,0,0,.11-2.25m.82,12c-.54.09-.8.49-1.16.73a14.82,14.82,0,0,1-13.19,2,11.52,11.52,0,0,1-7.87-12.54,12.44,12.44,0,0,1,6.82-10,25.62,25.62,0,0,1,9.83-2.81c1.46-.15,2.92-.24,4.38-.36a4,4,0,0,0-2.69-4.13,10.86,10.86,0,0,0-5.65-.43,17.83,17.83,0,0,0-6.14,1.94,1.58,1.58,0,0,1-2.49-1c-.51-1.65-1-3.3-1.49-4.94a1,1,0,0,1,.57-1.42,24.16,24.16,0,0,1,8.59-2.87,25.47,25.47,0,0,1,9.65.15,13.16,13.16,0,0,1,10.58,11.28,25.93,25.93,0,0,1,.34,4.4c0,5,0,10.05,0,15.07a45.38,45.38,0,0,0,.38,5.59,1.65,1.65,0,0,1-1.68,2c-2.45,0-4.9,0-7.36,0-.78,0-1-.31-1.11-1a3.41,3.41,0,0,0-.35-1.66" transform="translate(75.9 5.5)"/><path class="cls-30" d="M121.88,1315.38c.6-.2.79-.69,1.12-1a10.78,10.78,0,0,1,10.38-3.46c.6.11.83.33.82.94,0,2.66,0,5.31,0,8,0,1.12-.78,1.69-1.94,1.55a9.78,9.78,0,0,0-3.37,0,6.9,6.9,0,0,0-5.36,5.63,14.73,14.73,0,0,0-.35,3.51c0,5.56,0,11.12,0,16.68,0,1.89-.43,2.32-2.33,2.32h-6.62c-1.63,0-2.19-.56-2.19-2.19q0-12.63,0-25.24c0-2.91,0-5.81-.22-8.71a1.58,1.58,0,0,1,1.67-1.89c2.45,0,4.9,0,7.35,0,.75,0,.89.32.89,1a14.6,14.6,0,0,0,.17,2.94" transform="translate(75.9 5.5)"/><path class="cls-30" d="M60.22,1330.59v16.68c0,1.83-.4,2.24-2.24,2.24H51.07c-1.43,0-2-.62-2-2.07q0-17,0-33.94c0-1.38.58-2,1.91-2h7.35c1.42,0,1.9.51,1.91,2v17.12" transform="translate(75.9 5.5)"/><path class="cls-30" d="M54.56,1308.33a5.75,5.75,0,0,1-6-5.88,6.11,6.11,0,0,1,12.21,0c0,3.42-2.58,5.86-6.2,5.84" transform="translate(75.9 5.5)"/><text class="cls-45" transform="translate(631.29 1102.12) scale(0.96 1.11)">2022</text><text class="cls-46" transform="translate(629.24 1102.32) scale(0.96 1.11)">2022</text><text class="cls-47" transform="translate(142.34 943.24) scale(0.96 1.11)">«“My<tspan class="cls-48" x="27.09" y="0"> </tspan><tspan x="30.41" y="0">friends,</tspan><tspan class="cls-49" x="69.73" y="0"> </tspan><tspan x="73.05" y="0">Jesus</tspan><tspan class="cls-48" x="101.63" y="0"> </tspan><tspan x="104.95" y="0">is</tspan><tspan class="cls-49" x="113.08" y="0"> </tspan><tspan x="116.4" y="0">the</tspan><tspan class="cls-48" x="133.81" y="0"> </tspan><tspan x="137.13" y="0">Lord</tspan><tspan class="cls-49" x="161.28" y="0"> </tspan><tspan x="164.6" y="0">of</tspan><tspan class="cls-48" x="175.65" y="0"> </tspan><tspan x="178.97" y="0">risk,</tspan><tspan class="cls-49" x="200.43" y="0"> </tspan><tspan x="203.74" y="0">he</tspan><tspan class="cls-48" x="216.81" y="0"> </tspan><tspan x="220.13" y="0">is</tspan><tspan class="cls-49" x="228.26" y="0"> </tspan><tspan x="231.58" y="0">the</tspan><tspan class="cls-48" x="248.99" y="0"> </tspan><tspan x="252.31" y="0">Lord</tspan><tspan class="cls-49" x="276.46" y="0"> </tspan><tspan x="279.78" y="0">of</tspan><tspan class="cls-48" x="290.83" y="0"> </tspan><tspan x="294.15" y="0">the</tspan><tspan class="cls-49" x="311.56" y="0"> </tspan><tspan x="314.88" y="0">eternal </tspan><tspan x="-26.65" y="13.5">“more”.</tspan><tspan class="cls-50" x="12.57" y="13.5"> </tspan><tspan x="16.89" y="13.5">Jesus</tspan><tspan class="cls-50" x="45.47" y="13.5"> </tspan><tspan x="49.78" y="13.5">is</tspan><tspan class="cls-50" x="57.92" y="13.5"> </tspan><tspan x="62.23" y="13.5">not</tspan><tspan class="cls-50" x="80.11" y="13.5"> </tspan><tspan x="84.42" y="13.5">the</tspan><tspan class="cls-50" x="101.83" y="13.5"> </tspan><tspan x="106.14" y="13.5">Lord</tspan><tspan class="cls-50" x="130.29" y="13.5"> </tspan><tspan x="134.61" y="13.5">of</tspan><tspan class="cls-50" x="145.66" y="13.5"> </tspan><tspan x="149.97" y="13.5">comfort,</tspan><tspan class="cls-50" x="195.01" y="13.5"> </tspan><tspan class="cls-51" x="199.32" y="13.5">security</tspan><tspan class="cls-50" x="241.22" y="13.5"> </tspan><tspan x="245.53" y="13.5">and</tspan><tspan class="cls-50" x="264.98" y="13.5"> </tspan><tspan x="269.3" y="13.5">ease.</tspan><tspan class="cls-50" x="296.04" y="13.5"> </tspan><tspan x="300.35" y="13.5">Following </tspan><tspan x="-26.65" y="27">Jesus</tspan><tspan class="cls-52" x="1.93" y="27"> </tspan><tspan x="5.33" y="27">demands</tspan><tspan class="cls-53" x="53.01" y="27"> </tspan><tspan x="56.41" y="27">a</tspan><tspan class="cls-52" x="62.4" y="27"> </tspan><tspan x="65.8" y="27">good</tspan><tspan class="cls-52" x="92.47" y="27"> </tspan><tspan x="95.86" y="27">dose</tspan><tspan class="cls-52" x="121" y="27"> </tspan><tspan x="124.4" y="27">of</tspan><tspan class="cls-53" x="135.46" y="27"> </tspan><tspan x="138.86" y="27">courage,</tspan><tspan class="cls-52" x="183.89" y="27"> </tspan><tspan x="187.29" y="27">a</tspan><tspan class="cls-52" x="193.29" y="27"> </tspan><tspan x="196.69" y="27">readiness</tspan><tspan class="cls-53" x="246.59" y="27"> </tspan><tspan x="249.99" y="27">to</tspan><tspan class="cls-52" x="261.16" y="27"> </tspan><tspan x="264.56" y="27">trade</tspan><tspan class="cls-52" x="292.4" y="27"> </tspan><tspan x="295.79" y="27">in</tspan><tspan class="cls-52" x="305.43" y="27"> </tspan><tspan x="308.83" y="27">the</tspan><tspan class="cls-53" x="326.24" y="27"> </tspan><tspan x="329.64" y="27">sofa </tspan><tspan x="-26.65" y="40.5">for</tspan><tspan class="cls-54" x="-11.2" y="40.5"> </tspan><tspan x="-7.64" y="40.5">a</tspan><tspan class="cls-54" x="-1.65" y="40.5"> </tspan><tspan x="1.9" y="40.5">pair</tspan><tspan class="cls-54" x="21.97" y="40.5"> </tspan><tspan x="25.52" y="40.5">of</tspan><tspan class="cls-55" x="36.58" y="40.5"> </tspan><tspan x="40.13" y="40.5">walking</tspan><tspan class="cls-54" x="80.54" y="40.5"> </tspan><tspan x="84.09" y="40.5">shoes</tspan><tspan class="cls-54" x="114.42" y="40.5"> </tspan><tspan x="117.97" y="40.5">and</tspan><tspan class="cls-54" x="137.42" y="40.5"> </tspan><tspan x="140.98" y="40.5">to</tspan><tspan class="cls-54" x="152.15" y="40.5"> </tspan><tspan x="155.7" y="40.5">set</tspan><tspan class="cls-54" x="171.61" y="40.5"> </tspan><tspan x="175.17" y="40.5">out</tspan><tspan class="cls-54" x="193.05" y="40.5"> </tspan><tspan x="196.6" y="40.5">on</tspan><tspan class="cls-54" x="210.14" y="40.5"> </tspan><tspan x="213.69" y="40.5">new</tspan><tspan class="cls-55" x="236.24" y="40.5"> </tspan><tspan x="239.79" y="40.5">and</tspan><tspan class="cls-54" x="259.24" y="40.5"> </tspan><tspan x="262.79" y="40.5">uncharted</tspan><tspan class="cls-54" x="316.5" y="40.5"> </tspan><tspan x="320.06" y="40.5">paths. </tspan><tspan x="-26.65" y="54">To blaze trails that open up new horizons capable of spreading joy.”</tspan><tspan x="0" y="71.73">“God</tspan><tspan class="cls-56" x="26.78" y="71.73"> </tspan><tspan x="29.43" y="71.73">expects</tspan><tspan class="cls-56" x="70.24" y="71.73"> </tspan><tspan x="72.89" y="71.73">something</tspan><tspan class="cls-56" x="128.16" y="71.73"> </tspan><tspan x="130.81" y="71.73">from</tspan><tspan class="cls-56" x="156.19" y="71.73"> </tspan><tspan x="158.84" y="71.73">you,</tspan><tspan class="cls-56" x="181.34" y="71.73"> </tspan><tspan x="184" y="71.73">God</tspan><tspan class="cls-56" x="206.32" y="71.73"> </tspan><tspan x="208.97" y="71.73">wants</tspan><tspan class="cls-56" x="240.71" y="71.73"> </tspan><tspan x="243.37" y="71.73">something</tspan><tspan class="cls-56" x="298.64" y="71.73"> </tspan><tspan x="301.29" y="71.73">from</tspan><tspan class="cls-56" x="326.66" y="71.73"> </tspan><tspan x="329.32" y="71.73">you. </tspan><tspan x="-26.65" y="85.23">God</tspan><tspan class="cls-57" x="-4.33" y="85.23"> </tspan><tspan x="-1.66" y="85.23">hopes</tspan><tspan class="cls-57" x="30.2" y="85.23"> </tspan><tspan x="32.86" y="85.23">in</tspan><tspan class="cls-58" x="42.5" y="85.23"> </tspan><tspan x="45.16" y="85.23">you.</tspan><tspan class="cls-57" x="67.75" y="85.23"> </tspan><tspan x="70.42" y="85.23">God</tspan><tspan class="cls-57" x="92.74" y="85.23"> </tspan><tspan x="95.41" y="85.23">comes</tspan><tspan class="cls-57" x="129.46" y="85.23"> </tspan><tspan x="132.12" y="85.23">to</tspan><tspan class="cls-57" x="143.3" y="85.23"> </tspan><tspan x="145.96" y="85.23">break</tspan><tspan class="cls-58" x="175.63" y="85.23"> </tspan><tspan x="178.29" y="85.23">down</tspan><tspan class="cls-57" x="208.05" y="85.23"> </tspan><tspan x="210.71" y="85.23">all</tspan><tspan class="cls-57" x="222.44" y="85.23"> </tspan><tspan x="225.11" y="85.23">our</tspan><tspan class="cls-57" x="243.04" y="85.23"> </tspan><tspan x="245.71" y="85.23">fences.</tspan><tspan class="cls-57" x="283.15" y="85.23"> </tspan><tspan x="285.81" y="85.23">He</tspan><tspan class="cls-58" x="301.35" y="85.23"> </tspan><tspan x="304.01" y="85.23">comes</tspan><tspan class="cls-57" x="338.07" y="85.23"> </tspan><tspan x="340.73" y="85.23">to </tspan><tspan x="-26.65" y="98.73">open</tspan><tspan class="cls-59" x="-0.01" y="98.73"> </tspan><tspan x="3.29" y="98.73">the</tspan><tspan class="cls-60" x="20.7" y="98.73"> </tspan><tspan x="23.99" y="98.73">doors</tspan><tspan class="cls-59" x="54" y="98.73"> </tspan><tspan x="57.3" y="98.73">of</tspan><tspan class="cls-60" x="68.35" y="98.73"> </tspan><tspan x="71.65" y="98.73">our</tspan><tspan class="cls-59" x="89.58" y="98.73"> </tspan><tspan x="92.88" y="98.73">lives,</tspan><tspan class="cls-60" x="119.21" y="98.73"> </tspan><tspan x="122.5" y="98.73">our</tspan><tspan class="cls-59" x="140.44" y="98.73"> </tspan><tspan x="143.73" y="98.73">dreams,</tspan><tspan class="cls-59" x="185.1" y="98.73"> </tspan><tspan x="188.39" y="98.73">our</tspan><tspan class="cls-60" x="206.33" y="98.73"> </tspan><tspan x="209.62" y="98.73">ways</tspan><tspan class="cls-59" x="236.52" y="98.73"> </tspan><tspan x="239.82" y="98.73">of</tspan><tspan class="cls-60" x="250.87" y="98.73"> </tspan><tspan x="254.17" y="98.73">seeing</tspan><tspan class="cls-59" x="287.99" y="98.73"> </tspan><tspan x="291.28" y="98.73">things.</tspan><tspan class="cls-60" x="326.29" y="98.73"> </tspan><tspan x="329.58" y="98.73">God </tspan><tspan x="-26.65" y="112.23">comes</tspan><tspan class="cls-61" x="7.4" y="112.23"> </tspan><tspan x="10.52" y="112.23">to</tspan><tspan class="cls-61" x="21.69" y="112.23"> </tspan><tspan x="24.81" y="112.23">break</tspan><tspan class="cls-61" x="54.47" y="112.23"> </tspan><tspan x="57.59" y="112.23">open</tspan><tspan class="cls-61" x="84.24" y="112.23"> </tspan><tspan x="87.35" y="112.23">everything</tspan><tspan class="cls-62" x="143.87" y="112.23"> </tspan><tspan x="146.98" y="112.23">that</tspan><tspan class="cls-61" x="168.38" y="112.23"> </tspan><tspan x="171.5" y="112.23">keeps</tspan><tspan class="cls-61" x="202.34" y="112.23"> </tspan><tspan x="205.46" y="112.23">you</tspan><tspan class="cls-61" x="225.22" y="112.23"> </tspan><tspan x="228.34" y="112.23">closed</tspan><tspan class="cls-61" x="262.09" y="112.23"> </tspan><tspan x="265.2" y="112.23">in.</tspan><tspan class="cls-61" x="277.67" y="112.23"> </tspan><tspan x="280.79" y="112.23">He</tspan><tspan class="cls-61" x="296.33" y="112.23"> </tspan><tspan x="299.45" y="112.23">is</tspan><tspan class="cls-61" x="307.58" y="112.23"> </tspan><tspan x="310.7" y="112.23">encour</tspan><tspan x="347.44" y="112.23">-</tspan><tspan x="-26.65" y="125.73">aging</tspan><tspan class="cls-63" x="1.51" y="125.73"> </tspan><tspan x="4.42" y="125.73">you</tspan><tspan class="cls-64" x="24.18" y="125.73"> </tspan><tspan x="27.1" y="125.73">to</tspan><tspan class="cls-63" x="38.27" y="125.73"> </tspan><tspan x="41.19" y="125.73">dream.</tspan><tspan class="cls-63" x="77.42" y="125.73"> </tspan><tspan x="80.34" y="125.73">He</tspan><tspan class="cls-64" x="95.88" y="125.73"> </tspan><tspan x="98.8" y="125.73">wants</tspan><tspan class="cls-63" x="130.54" y="125.73"> </tspan><tspan x="133.45" y="125.73">to</tspan><tspan class="cls-64" x="144.63" y="125.73"> </tspan><tspan x="147.54" y="125.73">make</tspan><tspan class="cls-63" x="175.98" y="125.73"> </tspan><tspan x="178.9" y="125.73">you</tspan><tspan class="cls-63" x="198.66" y="125.73"> </tspan><tspan x="201.57" y="125.73">see</tspan><tspan class="cls-64" x="219.5" y="125.73"> </tspan><tspan x="222.41" y="125.73">that,</tspan><tspan class="cls-63" x="246.56" y="125.73"> </tspan><tspan x="249.47" y="125.73">with</tspan><tspan class="cls-63" x="272.93" y="125.73"> </tspan><tspan x="275.84" y="125.73">you,</tspan><tspan class="cls-64" x="298.35" y="125.73"> </tspan><tspan x="301.27" y="125.73">the</tspan><tspan class="cls-63" x="318.68" y="125.73"> </tspan><tspan x="321.6" y="125.73">world </tspan><tspan x="-26.65" y="139.23">can</tspan><tspan class="cls-65" x="-8.2" y="139.23"> </tspan><tspan x="-4.9" y="139.23">be</tspan><tspan class="cls-66" x="8.2" y="139.23"> </tspan><tspan x="11.51" y="139.23">different.</tspan><tspan class="cls-65" x="60.21" y="139.23"> </tspan><tspan x="63.51" y="139.23">For</tspan><tspan class="cls-66" x="81.52" y="139.23"> </tspan><tspan x="84.83" y="139.23">the</tspan><tspan class="cls-65" x="102.24" y="139.23"> </tspan><tspan x="105.55" y="139.23">fact</tspan><tspan class="cls-66" x="125.86" y="139.23"> </tspan><tspan x="129.17" y="139.23">is,</tspan><tspan class="cls-65" x="140.05" y="139.23"> </tspan><tspan x="143.36" y="139.23">unless</tspan><tspan class="cls-66" x="176.43" y="139.23"> </tspan><tspan x="179.74" y="139.23">you</tspan><tspan class="cls-65" x="199.49" y="139.23"> </tspan><tspan x="202.8" y="139.23">offer</tspan><tspan class="cls-66" x="228.42" y="139.23"> </tspan><tspan x="231.72" y="139.23">the</tspan><tspan class="cls-65" x="249.13" y="139.23"> </tspan><tspan x="252.44" y="139.23">best</tspan><tspan class="cls-65" x="275.1" y="139.23"> </tspan><tspan x="278.4" y="139.23">of</tspan><tspan class="cls-66" x="289.46" y="139.23"> </tspan><tspan x="292.77" y="139.23">yourselves, </tspan><tspan x="-26.65" y="152.73">the world will never be different. This is the challenge.”</tspan><tspan x="0" y="170.47">“So</tspan><tspan class="cls-67" x="17.81" y="170.47"> </tspan><tspan x="22.58" y="170.47">today,</tspan><tspan class="cls-68" x="55.46" y="170.47"> </tspan><tspan x="60.22" y="170.47">my</tspan><tspan class="cls-67" x="76.36" y="170.47"> </tspan><tspan x="81.13" y="170.47">friends,</tspan><tspan class="cls-68" x="120.45" y="170.47"> </tspan><tspan x="125.22" y="170.47">Jesus</tspan><tspan class="cls-67" x="153.8" y="170.47"> </tspan><tspan x="158.57" y="170.47">is</tspan><tspan class="cls-68" x="166.71" y="170.47"> </tspan><tspan x="171.47" y="170.47">inviting</tspan><tspan class="cls-67" x="210.71" y="170.47"> </tspan><tspan x="215.48" y="170.47">you,</tspan><tspan class="cls-68" x="237.99" y="170.47"> </tspan><tspan x="242.75" y="170.47">calling</tspan><tspan class="cls-67" x="276.13" y="170.47"> </tspan><tspan x="280.89" y="170.47">you,</tspan><tspan class="cls-68" x="303.4" y="170.47"> </tspan><tspan x="308.17" y="170.47">to</tspan><tspan class="cls-67" x="319.34" y="170.47"> </tspan><tspan x="324.11" y="170.47">leave </tspan><tspan x="-26.65" y="183.97">your</tspan><tspan class="cls-69" x="-2.5" y="183.97"> </tspan><tspan x="0.37" y="183.97">mark</tspan><tspan class="cls-69" x="26.85" y="183.97"> </tspan><tspan x="29.71" y="183.97">on</tspan><tspan class="cls-69" x="43.26" y="183.97"> </tspan><tspan x="46.12" y="183.97">life,</tspan><tspan class="cls-69" x="65.24" y="183.97"> </tspan><tspan x="68.1" y="183.97">to</tspan><tspan class="cls-69" x="79.28" y="183.97"> </tspan><tspan x="82.14" y="183.97">leave</tspan><tspan class="cls-69" x="109.94" y="183.97"> </tspan><tspan x="112.8" y="183.97">a</tspan><tspan class="cls-69" x="118.8" y="183.97"> </tspan><tspan x="121.66" y="183.97">mark</tspan><tspan class="cls-70" x="148.14" y="183.97"> </tspan><tspan x="151.01" y="183.97">on</tspan><tspan class="cls-69" x="164.55" y="183.97"> </tspan><tspan x="167.41" y="183.97">history,</tspan><tspan class="cls-69" x="206.8" y="183.97"> </tspan><tspan x="209.66" y="183.97">your</tspan><tspan class="cls-69" x="233.82" y="183.97"> </tspan><tspan x="236.68" y="183.97">own</tspan><tspan class="cls-69" x="259.7" y="183.97"> </tspan><tspan x="262.56" y="183.97">and</tspan><tspan class="cls-69" x="282.01" y="183.97"> </tspan><tspan x="284.88" y="183.97">that</tspan><tspan class="cls-69" x="306.27" y="183.97"> </tspan><tspan x="309.14" y="183.97">of</tspan><tspan class="cls-69" x="320.2" y="183.97"> </tspan><tspan x="323.06" y="183.97">many </tspan><tspan x="-26.65" y="197.47">others as well.”» </tspan><tspan class="cls-71" x="0" y="222.25">	</tspan><tspan x="63.83" y="222.25" xml:space="preserve">              (Pope Francis, in Krakow, 30 July 2016) </tspan></text><rect class="cls-72" x="125.31" y="933.64" width="11.36" height="12.68"/><rect class="cls-30" x="123.35" y="932.07" width="11.36" height="12.68"/><text class="cls-73" transform="translate(657.06 1139.55) scale(0.96 1)">JU<tspan class="cls-74" x="28.66" y="0">L</tspan><tspan x="39.59" y="0">Y </tspan><tspan class="cls-75" x="60.81" y="0">T</tspan><tspan class="cls-76" x="72.56" y="0">O</tspan><tspan x="89.78" y="0" xml:space="preserve"> DECEMBER</tspan></text><text class="cls-77" transform="translate(656.33 1139.59) scale(0.96 1)">JU<tspan class="cls-74" x="28.66" y="0">L</tspan><tspan x="39.59" y="0">Y </tspan><tspan class="cls-75" x="60.81" y="0">T</tspan><tspan class="cls-76" x="72.56" y="0">O</tspan><tspan x="89.78" y="0" xml:space="preserve"> DECEMBER</tspan></text><line class="cls-13" x1="636.7" y1="1112.78" x2="886.88" y2="1112.78"/><path class="cls-72" d="M460.45,1269.71c.65,0,1.3,0,1.95,0,.19,0,.28-.07.29-.27a8.83,8.83,0,0,0,0-1.26,3.21,3.21,0,0,0-.39-1.24,2.15,2.15,0,0,0-2.33-1,1.84,1.84,0,0,0-1.59,1.49,5.6,5.6,0,0,0-.08,2c0,.22.1.29.31.28h1.86m2.73,3.14-6.6,0h-.25c-.31,0-.32,0-.37-.32s-.13-.78-.17-1.17a24.29,24.29,0,0,1-.11-3.62,6.7,6.7,0,0,1,.56-2.53,4.14,4.14,0,0,1,3.71-2.51,5.38,5.38,0,0,1,1.6.12,4.45,4.45,0,0,1,3.24,2.86,8.3,8.3,0,0,1,.53,3.35c0,.6,0,.6.61.6l4.06,0c.49,0,.63.13.63.61,0,.65,0,1.3,0,1.94,0,.45-.15.6-.6.6l-6.85,0" transform="translate(75.9 5.5)"/><path class="cls-72" d="M466.15,1237.57a.31.31,0,0,0-.23-.13l-6-1.69c-.39-.11-.39-.12-.4-.54,0-.77,0-1.55,0-2.32,0-.4.26-.6.62-.46,3,1.1,6.06,2.11,9,3.29a19.1,19.1,0,0,1,2.77,1.34,7.11,7.11,0,0,1,2.58,2.56,5.78,5.78,0,0,1,.68,3l-1.86.07c-.26,0-.57.1-.78,0s-.18-.45-.25-.69a4.44,4.44,0,0,0-2.16-2.59.77.77,0,0,0-.72,0l-9.11,3.68c-.14.06-.27.17-.44.08a.48.48,0,0,1-.32-.48c0-.83,0-1.66,0-2.49,0-.24.07-.33.3-.41l6.07-2.06.24-.09" transform="translate(75.9 5.5)"/><path class="cls-72" d="M466.3,1247.53h-.71c-.1,0-.15,0-.15.15a4.41,4.41,0,0,0,.53,2.22,1.26,1.26,0,0,0,.68.54,1.19,1.19,0,0,0,1.56-.68,1.83,1.83,0,0,0-1.27-2.21,2.9,2.9,0,0,0-.64,0m3.42-.26c0,.16.14.23.21.34a4.2,4.2,0,0,1,.6,3.77,3.3,3.3,0,0,1-3.57,2.28,3.59,3.59,0,0,1-2.89-1.94,7.29,7.29,0,0,1-.82-2.81c-.05-.42-.08-.84-.11-1.25a1.15,1.15,0,0,0-1.18.77,3,3,0,0,0-.11,1.62,5,5,0,0,0,.56,1.76.45.45,0,0,1-.28.71c-.47.15-.95.28-1.42.44a.29.29,0,0,1-.4-.16,7,7,0,0,1-.84-2.46,7.32,7.32,0,0,1,0-2.76,3.77,3.77,0,0,1,3.21-3,8.68,8.68,0,0,1,1.26-.11l4.31,0a14.18,14.18,0,0,0,1.6-.12.47.47,0,0,1,.58.48c0,.7,0,1.4,0,2.1,0,.22-.08.3-.28.32a1.22,1.22,0,0,0-.48.1" transform="translate(75.9 5.5)"/><path class="cls-72" d="M460.77,1258.06c-.06-.17-.2-.23-.3-.32a3.1,3.1,0,0,1-1-3c0-.17.1-.23.27-.23.76,0,1.52,0,2.28,0a.44.44,0,0,1,.45.55,2.64,2.64,0,0,0,0,1,2,2,0,0,0,1.62,1.52,4.28,4.28,0,0,0,1,.1l4.77,0c.54,0,.67.12.67.67s0,1.26,0,1.89c0,.47-.16.63-.62.63l-7.23,0c-.83,0-1.66,0-2.49.08a.46.46,0,0,1-.55-.48c0-.7,0-1.4,0-2.1,0-.22.09-.26.28-.26a4,4,0,0,0,.84,0" transform="translate(75.9 5.5)"/><path class="cls-72" d="M465.23,1275.69l4.78,0c.52,0,.64.11.64.63s0,1.32,0,2c0,.41-.18.58-.59.58q-4.86,0-9.72.06c-.4,0-.57-.16-.58-.54,0-.7,0-1.4,0-2.11,0-.4.14-.54.56-.54l4.9,0" transform="translate(75.9 5.5)"/><path class="cls-72" d="M458.87,1277.35a1.65,1.65,0,0,1-1.67,1.73,1.75,1.75,0,0,1,0-3.5,1.65,1.65,0,0,1,1.68,1.77" transform="translate(75.9 5.5)"/><path class="cls-30" d="M460.29,1270.47h1.95c.19,0,.28-.07.28-.27a7.58,7.58,0,0,0,0-1.26,3,3,0,0,0-.38-1.23,2.15,2.15,0,0,0-2.34-1,1.85,1.85,0,0,0-1.58,1.49,5.43,5.43,0,0,0-.08,2c0,.22.1.28.31.27h1.86m2.72,3.14-6.59,0h-.26c-.31,0-.31,0-.36-.32s-.13-.78-.17-1.17a25.72,25.72,0,0,1-.12-3.62,6.91,6.91,0,0,1,.57-2.53,4.11,4.11,0,0,1,3.71-2.5,5.31,5.31,0,0,1,1.59.11,4.46,4.46,0,0,1,3.25,2.86,8.51,8.51,0,0,1,.53,3.35c0,.61,0,.61.61.6l4.06,0c.49,0,.62.13.63.62,0,.64,0,1.29,0,1.93,0,.45-.16.6-.61.6l-6.85,0" transform="translate(75.9 5.5)"/><path class="cls-30" d="M466,1238.33a.32.32,0,0,0-.22-.13l-6-1.69c-.4-.11-.4-.11-.4-.54,0-.77,0-1.55,0-2.32,0-.4.26-.59.62-.46,3,1.11,6.05,2.12,9,3.3a17.63,17.63,0,0,1,2.77,1.33,7,7,0,0,1,2.58,2.56,5.81,5.81,0,0,1,.69,3l-1.86.07c-.27,0-.58.1-.78,0s-.18-.46-.26-.7a4.37,4.37,0,0,0-2.16-2.59.74.74,0,0,0-.71,0l-9.12,3.68c-.14.06-.27.17-.44.08a.47.47,0,0,1-.31-.48c0-.83,0-1.66,0-2.49a.37.37,0,0,1,.3-.41l6.08-2.06a2.18,2.18,0,0,0,.23-.09" transform="translate(75.9 5.5)"/><path class="cls-30" d="M466.14,1248.29h-.71c-.1,0-.16,0-.15.15a4.4,4.4,0,0,0,.52,2.22,1.28,1.28,0,0,0,.69.54,1.18,1.18,0,0,0,1.55-.68,1.83,1.83,0,0,0-1.26-2.21,3.75,3.75,0,0,0-.64,0m3.42-.25a.85.85,0,0,0,.21.33,4.26,4.26,0,0,1,.6,3.77,3.3,3.3,0,0,1-3.58,2.28,3.6,3.6,0,0,1-2.89-1.94,7.42,7.42,0,0,1-.82-2.81c0-.41-.07-.83-.11-1.25a1.16,1.16,0,0,0-1.18.78,3.18,3.18,0,0,0-.11,1.62,5,5,0,0,0,.57,1.75.45.45,0,0,1-.29.71l-1.41.44a.3.3,0,0,1-.41-.16,7,7,0,0,1-.83-2.46,7.32,7.32,0,0,1,0-2.76,3.77,3.77,0,0,1,3.21-3,7.64,7.64,0,0,1,1.26-.1l4.32,0a14.35,14.35,0,0,0,1.6-.12.47.47,0,0,1,.58.48c0,.7,0,1.4,0,2.1,0,.23-.09.3-.29.32a1,1,0,0,0-.47.11" transform="translate(75.9 5.5)"/><path class="cls-30" d="M460.61,1258.82c-.06-.17-.2-.22-.3-.32a3.07,3.07,0,0,1-1-3c0-.18.09-.24.27-.24h2.28a.44.44,0,0,1,.45.55,2.87,2.87,0,0,0,0,1,2,2,0,0,0,1.62,1.52,4.28,4.28,0,0,0,1,.1c1.59,0,3.19,0,4.78,0,.54,0,.66.11.67.66s0,1.26,0,1.89c0,.47-.16.63-.63.64l-7.22,0c-.84,0-1.67,0-2.5.08a.45.45,0,0,1-.54-.47c0-.71,0-1.41,0-2.11,0-.21.09-.25.27-.26a4.09,4.09,0,0,0,.85,0" transform="translate(75.9 5.5)"/><path class="cls-30" d="M465.07,1276.45l4.77,0c.53,0,.65.11.65.64s0,1.31,0,2c0,.41-.17.58-.59.59l-9.71.06c-.4,0-.57-.17-.58-.55,0-.7,0-1.4,0-2.1,0-.41.14-.55.56-.55l4.9,0" transform="translate(75.9 5.5)"/><path class="cls-30" d="M458.71,1278.11a1.65,1.65,0,0,1-1.68,1.73,1.75,1.75,0,0,1,0-3.5,1.67,1.67,0,0,1,1.69,1.77" transform="translate(75.9 5.5)"/><text class="cls-78" transform="translate(549.55 1070.15) rotate(-90) scale(0.96 1)">JU<tspan class="cls-23" x="25.43" y="0">L</tspan><tspan x="35.12" y="0">Y </tspan><tspan class="cls-24" x="53.95" y="0">T</tspan><tspan class="cls-25" x="61.47" y="0">O</tspan></text><text class="cls-27" transform="translate(549.38 1071.18) rotate(-90) scale(0.96 1)">JU<tspan class="cls-23" x="25.43" y="0">L</tspan><tspan x="35.12" y="0">Y</tspan><tspan class="cls-79" x="48.65" y="0"> </tspan><tspan class="cls-24" x="54.62" y="0">T</tspan><tspan class="cls-25" x="62.14" y="0">O</tspan></text><text class="cls-78" transform="translate(549.89 992.83) rotate(-90) scale(0.96 1)">DECEMBER</text><text class="cls-27" transform="translate(549.49 993.51) rotate(-90) scale(0.96 1)">DECEMBER</text><text class="cls-78" transform="translate(550.07 1213.89) rotate(-90) scale(0.96 1)">2022 -<tspan class="cls-80" x="64.27" y="0"> </tspan><tspan class="cls-81" x="68.67" y="0">VOL II</tspan></text><text class="cls-82" transform="translate(877.65 1021.31) rotate(90) scale(0.96 1)"><tspan class="cls-83">[</tspan><tspan x="5.34" y="0">VO</tspan><tspan class="cls-84" x="25.3" y="0">L</tspan><tspan x="32.27" y="0">UME II ]</tspan></text><rect class="cls-2" x="55.75" width="981.31" height="718.11"/><path class="cls-3" d="M-9.17,163.39s-8.8,0-8.8,7.65V452.33s0,7.65,8.8,7.65H407.11s8.8,0,8.8-7.65V171s0-7.65-8.8-7.65Z" transform="translate(75.9 5.5)"/><path class="cls-4" d="M589.66,180.58c8-23.65,16-46.12,23.24-68.81,2.48-7.7,6.82-6.7,12.3-5.16a443.63,443.63,0,0,1,88.56,34.92C811,193,885.44,269.68,940.75,367.13c38.36,67.58,62.58,140.42,71.49,218.4,3.86,33.74,4.84,67.79,1.17,101.74-1.14,10.49-1.26,10.73-11.4,10.21-20.59-1.05-41.15-2.53-61.74-3.57-6.18-.31-8.43-2.7-7.48-9.36,12.08-84.81-6.5-164-41.91-239.6-39.06-83.38-94.27-152.84-168-205.49C686.62,213.53,647.48,194,604.1,184.64c-4.18-.9-8.25-2.3-14.44-4.06" transform="translate(75.9 5.5)"/><path class="cls-4" d="M776.9,683.76c-2.37-4.45-1.58-7.47-1.22-10.38,6.92-57.12-5.37-110.49-30.12-161-29-59.23-69.82-107.42-125.76-140.55-23.52-13.93-48.42-23.91-75.46-27.51-9.38-1.26-9.56-1.64-6.35-11.3,7.06-21.26,14.52-42.37,21.39-63.69,2-6.19,4.65-7.06,10.58-5.66,41.84,9.88,79.53,29.17,113.66,55.71,85.09,66.18,140.56,153.17,165.32,261a324.9,324.9,0,0,1,6.91,98.38c-.45,5.76-1.56,9.35-8.29,8.91-23.86-1.55-47.74-2.7-70.66-4" transform="translate(75.9 5.5)"/><path class="cls-4" d="M653.76,675.87c-8.63-.47-17.26-1.38-25.87-1.28-7.6.09-9.42-3.37-9.8-10.84C615.19,606.21,591.7,559,550.75,521c-15.92-14.78-34.2-25.66-53.9-34-9.64-4.08-9.75-4.14-6.64-13.48,5.51-16.53,11.44-32.91,16.64-49.55,2.28-7.27,4.68-8.91,12.29-6.14,51.13,18.62,91.55,51.73,122.73,97.43,29.11,42.66,44.65,90.38,47,142.73.9,20.09.85,20.09-17.88,19-5.74-.34-11.49-.63-17.24-1v-.17" transform="translate(75.9 5.5)"/><g class="cls-5"><g class="cls-85"><path class="cls-7" d="M25.37,192.79c8-23.65,16-46.12,23.24-68.81,2.47-7.7,6.82-6.7,12.3-5.17a443.9,443.9,0,0,1,88.56,34.93c97.26,51.47,171.67,128.15,227,225.6C414.82,446.91,439,519.75,448,597.74c3.85,33.74,4.84,67.79,1.16,101.74-1.13,10.49-1.25,10.73-11.39,10.21-20.59-1.05-41.16-2.53-61.75-3.57-6.17-.32-8.42-2.7-7.47-9.36,12.07-84.81-6.51-164-41.92-239.6-39.05-83.39-94.26-152.84-168-205.49-36.29-25.93-75.43-45.45-118.8-54.82-4.18-.9-8.26-2.3-14.44-4.06" transform="translate(75.9 5.5)"/><path class="cls-7" d="M212.61,696c-2.37-4.45-1.58-7.47-1.23-10.38,6.92-57.12-5.37-110.49-30.11-161-29-59.23-69.83-107.42-125.77-140.55C32,370.13,7.08,360.15-19.95,356.54c-9.38-1.25-9.56-1.63-6.35-11.29,7.05-21.26,14.51-42.37,21.39-63.69,2-6.19,4.64-7.06,10.58-5.66,41.84,9.88,79.53,29.17,113.65,55.71,85.09,66.18,140.57,153.17,165.33,261A325.54,325.54,0,0,1,291.56,691c-.45,5.76-1.56,9.35-8.3,8.91-23.85-1.55-47.73-2.7-70.65-4" transform="translate(75.9 5.5)"/><path class="cls-7" d="M89.46,688.08c-8.62-.47-17.25-1.38-25.87-1.28-7.6.09-9.42-3.37-9.79-10.84-2.9-57.54-26.39-104.72-67.34-142.74-15.92-14.78-34.2-25.66-53.91-34-9.64-4.08-9.75-4.14-6.63-13.48,5.5-16.53,11.44-32.92,16.64-49.55,2.27-7.27,4.67-8.91,12.28-6.14C6,448.68,46.4,481.79,77.58,527.49c29.11,42.66,44.65,90.38,47,142.72.91,20.1.86,20.09-17.87,19-5.75-.34-11.5-.63-17.25-1v-.17" transform="translate(75.9 5.5)"/></g></g><rect class="cls-3" x="4.03" y="56.83" width="119.37" height="43.93"/><rect class="cls-3" x="408.98" y="57.6" width="3.31" height="44"/><rect class="cls-3" x="415.78" y="57.6" width="83.42" height="44"/><path class="cls-86" d="M615,161.49c0,3.22,0,6.43,0,9.65,0,1,.33,1.4,1.26,1.43a37.8,37.8,0,0,0,6,0,14.35,14.35,0,0,0,5.91-1.89c4.27-2.63,5.31-6.75,4.78-11.54-.44-3.93-3-6.71-7.06-7.89a25.49,25.49,0,0,0-9.57-.48c-1.06.1-1.36.5-1.34,1.54.05,3.08,0,6.16,0,9.23M600,174.9V142.18c0-.42,0-.84,0-1.26,0-1.53,0-1.56,1.54-1.8,1.86-.3,3.71-.62,5.57-.8a110.56,110.56,0,0,1,17.26-.46,31.28,31.28,0,0,1,12.06,2.88c7.5,3.66,11.31,9.95,11.85,18.48a28,28,0,0,1-.6,7.91c-1.79,8-6.66,13-13.76,16a38.16,38.16,0,0,1-16,2.52c-2.9-.07-2.9-.06-2.9,3q0,10.06,0,20.13c0,2.41-.66,3.1-3,3.1-3.08,0-6.16,0-9.24,0-2.12,0-2.85-.79-2.85-3q0-17,0-34" transform="translate(75.9 5.5)"/><path class="cls-86" d="M768.16,190.71a1.62,1.62,0,0,0,.62-1.11q4.11-14.88,8.24-29.76c.54-2,.55-2,2.59-2,3.68,0,7.36,0,11,0,1.89,0,2.84,1.31,2.19,3.09-5.37,14.9-10.27,30-16,44.72a94.79,94.79,0,0,1-6.46,13.71,34.47,34.47,0,0,1-12.27,12.7c-4.4,2.58-9.16,3.37-14.3,3.31-.09-3.09-.21-6.15-.26-9.21,0-1.32-.48-2.87.18-3.89s2.18-.85,3.32-1.23a21.19,21.19,0,0,0,12.41-10.63,4,4,0,0,0,.15-3.57q-8.71-22.63-17.31-45.32c-.26-.68-.8-1.34-.37-2.17a2.31,2.31,0,0,1,2.31-1.56c4,.11,7.91.09,11.86,0,1.14,0,1.6.38,2,1.51,3.17,10.08,6.41,20.13,9.63,30.19.13.39.3.76.45,1.16" transform="translate(75.9 5.5)"/><path class="cls-86" d="M720.63,191.17v-3.5c0-.5-.21-.78-.73-.76-3.69.14-7.35.45-10.6,2.54a6.1,6.1,0,0,0-2.58,3.36c-1.08,3.41.32,6.81,3.2,7.75,4.29,1.4,9.52-1.67,10.56-6.21a14.42,14.42,0,0,0,.15-3.18m1.13,17c-.74.13-1.1.69-1.59,1a19.57,19.57,0,0,1-18,2.87c-7.59-2.45-11.56-10.06-10.76-17.81A17.73,17.73,0,0,1,700.72,180a34.07,34.07,0,0,1,13.42-4c2-.22,4-.34,6-.51a5.75,5.75,0,0,0-3.68-5.87c-2.5-1.08-5.12-.94-7.72-.6a23.32,23.32,0,0,0-8.37,2.75c-1.58.87-2.88.31-3.41-1.44-.69-2.33-1.32-4.69-2-7a1.5,1.5,0,0,1,.78-2,32.37,32.37,0,0,1,11.74-4.08,33.43,33.43,0,0,1,13.18.23c8,1.92,13,7.52,14.44,16a38.64,38.64,0,0,1,.47,6.26c0,7.14,0,14.27.05,21.4a68.14,68.14,0,0,0,.52,7.94,2.31,2.31,0,0,1-2.29,2.88c-3.35,0-6.7,0-10,0-1.07,0-1.43-.43-1.52-1.43a5.11,5.11,0,0,0-.47-2.36" transform="translate(75.9 5.5)"/><path class="cls-86" d="M670.58,163.42c.82-.29,1.08-1,1.53-1.46,3.91-4.2,8.55-6.08,14.18-4.93.82.17,1.13.47,1.12,1.34,0,3.77,0,7.55,0,11.32a2.11,2.11,0,0,1-2.66,2.2,12.69,12.69,0,0,0-4.6.06c-4.09,1-6.38,3.86-7.33,8a22.46,22.46,0,0,0-.47,5c0,7.9,0,15.79,0,23.69,0,2.69-.58,3.29-3.18,3.29-3,0-6,0-9,0-2.22,0-3-.8-3-3.11,0-12,0-23.9,0-35.85,0-4.12,0-8.24-.3-12.36a2.21,2.21,0,0,1,2.27-2.69c3.35,0,6.7,0,10,0,1,0,1.22.45,1.23,1.38a21.92,21.92,0,0,0,.22,4.18" transform="translate(75.9 5.5)"/><path class="cls-86" d="M586.38,185q0,11.85,0,23.69c0,2.61-.55,3.18-3.06,3.18-3.14,0-6.29,0-9.43,0-1.95,0-2.76-.87-2.76-2.94q0-24.09,0-48.2c0-2,.8-2.82,2.61-2.84,3.35,0,6.69,0,10,0,1.94,0,2.6.72,2.6,2.8q0,12.17,0,24.31" transform="translate(75.9 5.5)"/><path class="cls-2" d="M578.65,153.41a8,8,0,0,1-8.2-8.36,8.34,8.34,0,1,1,16.67.06,8,8,0,0,1-8.47,8.3" transform="translate(75.9 5.5)"/><text class="cls-8" transform="translate(685.04 240.11) scale(0.96 1)"><tspan class="cls-9">W</tspan><tspan x="15.82" y="0">ith the </tspan><tspan class="cls-10" x="72.95" y="0">G</tspan><tspan x="85.56" y="0">os</tspan><tspan class="cls-11" x="104.11" y="0">p</tspan><tspan class="cls-12" x="115.15" y="0">el</tspan></text><line class="cls-13" x1="630.93" y1="245.87" x2="881.11" y2="245.87"/><text class="cls-14" transform="translate(644.72 261.91) scale(0.96 1)">P<tspan class="cls-15" x="7.44" y="0">R</tspan><tspan class="cls-16" x="15.03" y="0">A</tspan><tspan class="cls-17" x="22.49" y="0">Y</tspan><tspan x="29.97" y="0">ER RESOU</tspan><tspan class="cls-18" x="87.32" y="0">R</tspan><tspan x="94.88" y="0">CES FOR</tspan><tspan class="cls-19" x="143.7" y="0"> </tspan><tspan class="cls-20" x="146.04" y="0">Y</tspan><tspan x="153.11" y="0">OUNG PEOPLE</tspan></text><path class="cls-4" d="M215.47,526.14c.7-2.37,1.39-4.61,2-6.88.21-.77.66-.7,1.23-.57a46.06,46.06,0,0,1,9.22,2.95,56.27,56.27,0,0,1,24.33,20.92,54.55,54.55,0,0,1,8.41,21.06,43.28,43.28,0,0,1,.64,10c-.06,1-.07,1.06-1.11,1.06-2.1,0-4.21,0-6.32,0-.63,0-.87-.22-.81-.88.8-8.39-1.5-16.06-5.51-23.29a51,51,0,0,0-18.2-19.27,33.35,33.35,0,0,0-12.4-4.74c-.43-.07-.86-.18-1.5-.32" transform="translate(75.9 5.5)"/><path class="cls-4" d="M237.16,574.52a1.35,1.35,0,0,1-.17-1,26.91,26.91,0,0,0-3.9-15.64,32.25,32.25,0,0,0-13.56-13.12,20.94,20.94,0,0,0-7.85-2.3c-1-.07-1-.1-.7-1.07.61-2.13,1.26-4.24,1.85-6.37.18-.62.44-.71,1.06-.61a30.67,30.67,0,0,1,11.88,4.86A43.86,43.86,0,0,1,244,564a30.93,30.93,0,0,1,1.21,9.62c0,.57-.11.93-.8.92-2.45,0-4.89,0-7.24,0" transform="translate(75.9 5.5)"/><path class="cls-4" d="M224.55,574.41c-.88,0-1.77,0-2.65,0s-1-.28-1.05-1a19.56,19.56,0,0,0-7.61-13.65,19.08,19.08,0,0,0-5.67-3c-1-.34-1-.35-.75-1.28.48-1.66,1-3.3,1.45-5,.19-.72.43-.9,1.22-.66a25.38,25.38,0,0,1,13,8.9,25.85,25.85,0,0,1,5.53,13.76c.19,2,.19,2-1.73,2h-1.77Z" transform="translate(75.9 5.5)"/><line class="cls-13" x1="109.06" y1="632.46" x2="292.27" y2="632.46"/><text class="cls-21" transform="translate(146.79 102.01) scale(0.96 1.11)">2022</text><text class="cls-22" transform="translate(300.12 81.67) scale(0.96 1)">JAN<tspan class="cls-87" x="41" y="0">U</tspan><tspan x="56.32" y="0">A</tspan><tspan class="cls-88" x="71.62" y="0">R</tspan><tspan x="84.8" y="0">Y</tspan><tspan class="cls-79" x="98.32" y="0"> </tspan></text><text class="cls-89" transform="translate(328.54 99.11) scale(0.96 1)"><tspan class="cls-90">T</tspan><tspan x="7.52" y="0">O </tspan><tspan class="cls-91" x="21.94" y="0">JUNE</tspan></text><text class="cls-27" transform="translate(299.38 81.33) scale(0.96 1)">JAN<tspan class="cls-87" x="41" y="0">U</tspan><tspan x="56.32" y="0">A</tspan><tspan class="cls-88" x="71.62" y="0">R</tspan><tspan x="84.8" y="0">Y</tspan></text><text class="cls-82" transform="translate(327.82 99.11) scale(0.96 1)"><tspan class="cls-90">T</tspan><tspan x="7.52" y="0">O </tspan><tspan class="cls-91" x="21.94" y="0">JUNE</tspan></text><text class="cls-29" transform="translate(145.58 101.68) scale(0.96 1.11)">2022</text><path class="cls-30" d="M613.41,160.65c0,3.22,0,6.44,0,9.65,0,1,.33,1.4,1.26,1.44a39,39,0,0,0,6-.06,14.49,14.49,0,0,0,5.91-1.88c4.27-2.64,5.31-6.75,4.78-11.54-.44-3.94-3-6.72-7.06-7.9a25.49,25.49,0,0,0-9.57-.47c-1.06.09-1.36.49-1.34,1.53.05,3.08,0,6.16,0,9.23m-15,13.42V141.34c0-.41,0-.83,0-1.25,0-1.54,0-1.57,1.55-1.81,1.85-.3,3.7-.61,5.56-.8a111.83,111.83,0,0,1,17.26-.46,31.24,31.24,0,0,1,12.06,2.88c7.51,3.66,11.31,9.95,11.85,18.48a28,28,0,0,1-.6,7.91c-1.79,8-6.66,13-13.76,16a38.17,38.17,0,0,1-16,2.53c-2.9-.08-2.9-.07-2.9,3q0,10.07,0,20.14c0,2.41-.66,3.09-3,3.1q-4.62,0-9.24,0c-2.11,0-2.85-.79-2.85-3q0-17,0-34" transform="translate(75.9 5.5)"/><path class="cls-30" d="M766.53,189.87a1.6,1.6,0,0,0,.62-1.1q4.11-14.9,8.24-29.77c.54-1.95.55-1.95,2.59-1.95,3.68,0,7.37,0,11,0,1.9,0,2.84,1.31,2.19,3.1-5.37,14.89-10.27,30-16,44.72a94.68,94.68,0,0,1-6.46,13.7,34.47,34.47,0,0,1-12.27,12.7c-4.39,2.59-9.16,3.37-14.3,3.31-.09-3.09-.2-6.15-.25-9.21,0-1.32-.49-2.87.17-3.89s2.19-.85,3.33-1.23a21.17,21.17,0,0,0,12.4-10.63,3.89,3.89,0,0,0,.15-3.56q-8.7-22.65-17.31-45.32c-.25-.68-.8-1.34-.37-2.17a2.29,2.29,0,0,1,2.31-1.56c4,.1,7.91.08,11.86,0,1.14,0,1.6.37,2,1.5,3.17,10.08,6.41,20.13,9.63,30.19.13.39.3.77.45,1.16" transform="translate(75.9 5.5)"/><path class="cls-30" d="M719,190.33v-3.5c0-.5-.21-.78-.73-.76-3.69.15-7.34.45-10.6,2.54a6.12,6.12,0,0,0-2.58,3.37c-1.08,3.4.32,6.8,3.2,7.74,4.29,1.4,9.53-1.67,10.56-6.2a14.51,14.51,0,0,0,.15-3.19m1.13,17c-.74.13-1.1.68-1.59,1a19.59,19.59,0,0,1-18,2.86C693,208.77,689,201.15,689.77,193.4a17.74,17.74,0,0,1,9.32-14.27,34.08,34.08,0,0,1,13.42-4c2-.21,4-.34,6-.5a5.72,5.72,0,0,0-3.67-5.87c-2.51-1.09-5.13-1-7.73-.61a23.71,23.71,0,0,0-8.37,2.75c-1.58.88-2.88.31-3.4-1.44-.7-2.33-1.33-4.69-2-7a1.47,1.47,0,0,1,.78-2,32.07,32.07,0,0,1,11.73-4.08,33.62,33.62,0,0,1,13.18.22c8,1.92,13,7.52,14.44,16a38.55,38.55,0,0,1,.47,6.26c0,7.13,0,14.26.05,21.39a65.9,65.9,0,0,0,.53,7.94,2.32,2.32,0,0,1-2.3,2.88c-3.35,0-6.7,0-10,0-1.06,0-1.43-.43-1.51-1.43a5.24,5.24,0,0,0-.48-2.35" transform="translate(75.9 5.5)"/><path class="cls-30" d="M669,162.58c.83-.28,1.08-1,1.53-1.46,3.91-4.2,8.55-6.08,14.18-4.93.82.17,1.13.48,1.12,1.34,0,3.78,0,7.55,0,11.32a2.12,2.12,0,0,1-2.66,2.21,12.48,12.48,0,0,0-4.6.05c-4.09,1-6.37,3.86-7.33,8a22.57,22.57,0,0,0-.47,5c0,7.9,0,15.8,0,23.69,0,2.69-.58,3.29-3.18,3.3h-9c-2.23,0-3-.8-3-3.12,0-12,0-23.9,0-35.85,0-4.12,0-8.24-.3-12.36a2.21,2.21,0,0,1,2.28-2.69c3.34,0,6.69,0,10,0,1,0,1.21.44,1.22,1.37a21.92,21.92,0,0,0,.22,4.18" transform="translate(75.9 5.5)"/><path class="cls-30" d="M584.75,184.18q0,11.83,0,23.68c0,2.61-.55,3.18-3.06,3.18-3.14,0-6.29,0-9.43,0-2,0-2.76-.87-2.76-2.93q0-24.11,0-48.21c0-2,.8-2.82,2.61-2.83q5,0,10,0c1.94,0,2.6.72,2.6,2.8q0,12.15,0,24.31" transform="translate(75.9 5.5)"/><path class="cls-30" d="M577,152.57a8,8,0,0,1-8.2-8.36,8.34,8.34,0,1,1,16.67.06,8,8,0,0,1-8.47,8.3" transform="translate(75.9 5.5)"/><path class="cls-31" d="M76.73,570.11c0,2.26,0,4.53,0,6.79,0,.68.24,1,.92,1a29.49,29.49,0,0,0,4.41,0,10.67,10.67,0,0,0,4.33-1.33c3.13-1.85,3.89-4.75,3.5-8.12-.32-2.77-2.17-4.73-5.17-5.56a19.44,19.44,0,0,0-7-.34c-.77.07-1,.35-1,1.09,0,2.16,0,4.33,0,6.5m-11,9.44V555.62c0-1.08,0-1.1,1.13-1.27,1.36-.21,2.72-.43,4.08-.56a84.7,84.7,0,0,1,12.64-.32,23.42,23.42,0,0,1,8.83,2c5.5,2.58,8.28,7,8.68,13a19.07,19.07,0,0,1-.44,5.58c-1.31,5.59-4.88,9.17-10.07,11.25a28.94,28.94,0,0,1-11.69,1.78c-2.13-.05-2.13,0-2.13,2.14,0,4.72,0,9.45,0,14.18,0,1.7-.48,2.18-2.17,2.18H67.8c-1.55,0-2.09-.56-2.09-2.13V579.55" transform="translate(75.9 5.5)"/><path class="cls-31" d="M188.86,590.68a1.11,1.11,0,0,0,.46-.78l6-21c.4-1.37.41-1.37,1.9-1.37,2.7,0,5.39,0,8.09,0,1.39,0,2.08.92,1.61,2.18-3.93,10.48-7.53,21.1-11.71,31.49a67.37,67.37,0,0,1-4.73,9.65,24.85,24.85,0,0,1-9,8.94,20.2,20.2,0,0,1-10.47,2.33c-.07-2.18-.15-4.33-.19-6.48,0-.93-.35-2,.13-2.74s1.6-.6,2.43-.87a15.39,15.39,0,0,0,9.09-7.48,2.71,2.71,0,0,0,.11-2.52q-6.37-15.93-12.68-31.91c-.18-.47-.58-.94-.27-1.52a1.68,1.68,0,0,1,1.69-1.1c2.9.07,5.79.06,8.69,0a1.26,1.26,0,0,1,1.43,1.06c2.33,7.1,4.7,14.18,7.06,21.26.09.28.21.54.32.82" transform="translate(75.9 5.5)"/><path class="cls-31" d="M154.06,591v-2.46c0-.35-.16-.55-.53-.54-2.71.1-5.38.32-7.77,1.79a4.3,4.3,0,0,0-1.88,2.37c-.8,2.4.23,4.79,2.34,5.45a6.36,6.36,0,0,0,7.73-4.37,10.57,10.57,0,0,0,.11-2.24m.82,12c-.54.09-.8.49-1.16.73a14.79,14.79,0,0,1-13.19,2,11.53,11.53,0,0,1-7.88-12.54,12.5,12.5,0,0,1,6.83-10,25.61,25.61,0,0,1,9.83-2.8c1.46-.16,2.92-.24,4.38-.36a4,4,0,0,0-2.69-4.13,10.76,10.76,0,0,0-5.65-.43,17.62,17.62,0,0,0-6.14,1.94,1.58,1.58,0,0,1-2.49-1c-.51-1.64-1-3.3-1.49-4.93a1,1,0,0,1,.57-1.42,24.16,24.16,0,0,1,8.59-2.87,25.47,25.47,0,0,1,9.65.15,13.16,13.16,0,0,1,10.58,11.27,26.13,26.13,0,0,1,.34,4.41c0,5,0,10.05,0,15.07a45.51,45.51,0,0,0,.38,5.59,1.65,1.65,0,0,1-1.68,2c-2.45,0-4.91,0-7.36,0-.78,0-1-.31-1.11-1a3.41,3.41,0,0,0-.35-1.66" transform="translate(75.9 5.5)"/><path class="cls-31" d="M117.41,571.46c.6-.2.79-.69,1.12-1A10.81,10.81,0,0,1,128.91,567c.6.12.83.34.82.95,0,2.66,0,5.31,0,8,0,1.12-.78,1.69-1.94,1.55a9.54,9.54,0,0,0-3.37,0A6.92,6.92,0,0,0,119,583.1a15.26,15.26,0,0,0-.34,3.51c0,5.56,0,11.12,0,16.68,0,1.89-.43,2.32-2.33,2.32h-6.62c-1.63,0-2.19-.56-2.19-2.19q0-12.63,0-25.25c0-2.9,0-5.8-.22-8.7a1.58,1.58,0,0,1,1.67-1.9c2.45,0,4.9,0,7.35,0,.75,0,.89.31.89,1a14.64,14.64,0,0,0,.17,2.94" transform="translate(75.9 5.5)"/><text class="cls-32" transform="translate(151.68 627.33)"><tspan class="cls-33">W</tspan><tspan x="11.14" y="0">ith the </tspan><tspan class="cls-34" x="51.36" y="0">G</tspan><tspan x="60.24" y="0">os</tspan><tspan class="cls-35" x="73.31" y="0">p</tspan><tspan x="81.08" y="0">el</tspan></text><path class="cls-31" d="M55.75,586.67v16.67c0,1.84-.41,2.24-2.24,2.25H46.6c-1.43,0-2-.62-2-2.07q0-17,0-33.94c0-1.38.58-2,1.91-2,2.45,0,4.9,0,7.35,0,1.42,0,1.9.51,1.91,2v17.12" transform="translate(75.9 5.5)"/><path class="cls-31" d="M50.09,564.41a5.75,5.75,0,0,1-6-5.88,6.11,6.11,0,0,1,12.21,0c0,3.42-2.58,5.86-6.2,5.84" transform="translate(75.9 5.5)"/><text class="cls-36" transform="translate(114.52 643.32)">P<tspan class="cls-37" x="5.24" y="0">R</tspan><tspan class="cls-38" x="10.59" y="0">A</tspan><tspan class="cls-39" x="15.84" y="0">Y</tspan><tspan class="cls-40" x="21.1" y="0">ER RESOU</tspan><tspan class="cls-41" x="61.49" y="0">R</tspan><tspan x="66.81" y="0">CES FOR</tspan><tspan class="cls-42" x="101.19" y="0"> </tspan><tspan class="cls-43" x="102.83" y="0">Y</tspan><tspan class="cls-44" x="107.81" y="0">OUNG PEOPLE</tspan></text><path class="cls-30" d="M75.08,569.52c0,2.26,0,4.53,0,6.79,0,.68.24,1,.93,1a29.51,29.51,0,0,0,4.41,0A10.81,10.81,0,0,0,84.72,576c3.13-1.86,3.89-4.76,3.5-8.13-.32-2.77-2.16-4.73-5.17-5.56a19.44,19.44,0,0,0-7-.34c-.77.07-1,.35-1,1.09,0,2.16,0,4.33,0,6.5m-11,9.44V555c0-1.08,0-1.1,1.14-1.27,1.35-.21,2.71-.43,4.08-.56a84.57,84.57,0,0,1,12.63-.32,23.42,23.42,0,0,1,8.83,2c5.5,2.58,8.28,7,8.68,13a18.71,18.71,0,0,1-.44,5.58c-1.31,5.59-4.87,9.18-10.07,11.25a28.91,28.91,0,0,1-11.69,1.78c-2.12,0-2.12,0-2.12,2.14q0,7.08,0,14.18c0,1.7-.48,2.18-2.17,2.18H66.14c-1.55,0-2.08-.56-2.08-2.13q0-12,0-23.93" transform="translate(75.9 5.5)"/><path class="cls-30" d="M187.21,590.09a1.14,1.14,0,0,0,.45-.78q3-10.47,6-21c.39-1.37.4-1.37,1.89-1.37h8.1c1.38,0,2.07.92,1.6,2.18-3.93,10.49-7.52,21.1-11.71,31.49a65.32,65.32,0,0,1-4.73,9.65,24.7,24.7,0,0,1-9,8.94,20.16,20.16,0,0,1-10.47,2.33c-.06-2.17-.15-4.33-.19-6.48,0-.93-.35-2,.13-2.74s1.6-.6,2.44-.87a15.38,15.38,0,0,0,9.08-7.48,2.69,2.69,0,0,0,.11-2.51q-6.37-15.94-12.67-31.92c-.19-.47-.59-.94-.28-1.52a1.69,1.69,0,0,1,1.7-1.1c2.89.07,5.79.06,8.68,0a1.25,1.25,0,0,1,1.44,1c2.32,7.1,4.69,14.18,7,21.26.09.28.22.54.33.82" transform="translate(75.9 5.5)"/><path class="cls-30" d="M152.4,590.41V588c0-.35-.15-.55-.53-.53-2.7.1-5.38.31-7.77,1.78a4.35,4.35,0,0,0-1.88,2.37c-.79,2.4.23,4.79,2.34,5.45a6.36,6.36,0,0,0,7.73-4.36,9.49,9.49,0,0,0,.11-2.25m.83,12c-.54.09-.81.49-1.17.73a14.78,14.78,0,0,1-13.19,2A11.51,11.51,0,0,1,131,592.58a12.47,12.47,0,0,1,6.82-10.06,25.79,25.79,0,0,1,9.83-2.8c1.46-.15,2.92-.24,4.38-.36a4,4,0,0,0-2.69-4.13,10.86,10.86,0,0,0-5.65-.43,17.5,17.5,0,0,0-6.13,1.94,1.58,1.58,0,0,1-2.5-1c-.51-1.64-1-3.3-1.49-4.93a1,1,0,0,1,.57-1.42,24.21,24.21,0,0,1,8.6-2.87,25.48,25.48,0,0,1,9.65.15A13.15,13.15,0,0,1,163,577.93a25.93,25.93,0,0,1,.34,4.4c0,5,0,10,0,15.07a45.52,45.52,0,0,0,.39,5.59,1.65,1.65,0,0,1-1.69,2c-2.45,0-4.9,0-7.35,0-.78,0-1.05-.31-1.11-1a3.65,3.65,0,0,0-.35-1.66" transform="translate(75.9 5.5)"/><path class="cls-30" d="M115.75,570.87c.6-.2.79-.69,1.12-1,2.87-3,6.26-4.28,10.38-3.46.61.11.83.33.82.94,0,2.66,0,5.31,0,8,0,1.12-.78,1.69-2,1.55a9.54,9.54,0,0,0-3.37,0,6.93,6.93,0,0,0-5.36,5.63A14.73,14.73,0,0,0,117,586c0,5.56,0,11.12,0,16.68,0,1.89-.43,2.32-2.33,2.32h-6.62c-1.63,0-2.19-.56-2.19-2.19q0-12.63,0-25.25c0-2.9,0-5.8-.22-8.7a1.59,1.59,0,0,1,1.67-1.9c2.45,0,4.9,0,7.35,0,.75,0,.89.32.9,1a14.59,14.59,0,0,0,.16,2.94" transform="translate(75.9 5.5)"/><path class="cls-30" d="M54.09,586.08v16.68c0,1.83-.4,2.23-2.24,2.24H44.94c-1.43,0-2-.62-2-2.07V569c0-1.38.59-2,1.92-2h7.35c1.41,0,1.9.51,1.9,2,0,5.71,0,11.41,0,17.12" transform="translate(75.9 5.5)"/><path class="cls-30" d="M48.43,563.82a5.75,5.75,0,0,1-6-5.88,6.11,6.11,0,0,1,12.21,0c0,3.42-2.57,5.86-6.2,5.84" transform="translate(75.9 5.5)"/><text class="cls-45" transform="translate(633.17 357.61) scale(0.96 1.11)">2022</text><text class="cls-46" transform="translate(631.87 357.61) scale(0.96 1.11)">2022</text><text class="cls-47" transform="translate(136.21 198.73) scale(0.96 1.11)">«“My<tspan class="cls-48" x="27.09" y="0"> </tspan><tspan x="30.41" y="0">friends,</tspan><tspan class="cls-49" x="69.73" y="0"> </tspan><tspan x="73.05" y="0">Jesus</tspan><tspan class="cls-48" x="101.63" y="0"> </tspan><tspan x="104.95" y="0">is</tspan><tspan class="cls-49" x="113.08" y="0"> </tspan><tspan x="116.4" y="0">the</tspan><tspan class="cls-48" x="133.81" y="0"> </tspan><tspan x="137.13" y="0">Lord</tspan><tspan class="cls-49" x="161.28" y="0"> </tspan><tspan x="164.6" y="0">of</tspan><tspan class="cls-48" x="175.65" y="0"> </tspan><tspan x="178.97" y="0">risk,</tspan><tspan class="cls-49" x="200.43" y="0"> </tspan><tspan x="203.74" y="0">he</tspan><tspan class="cls-48" x="216.81" y="0"> </tspan><tspan x="220.13" y="0">is</tspan><tspan class="cls-49" x="228.26" y="0"> </tspan><tspan x="231.58" y="0">the</tspan><tspan class="cls-48" x="248.99" y="0"> </tspan><tspan x="252.31" y="0">Lord</tspan><tspan class="cls-49" x="276.46" y="0"> </tspan><tspan x="279.78" y="0">of</tspan><tspan class="cls-48" x="290.83" y="0"> </tspan><tspan x="294.15" y="0">the</tspan><tspan class="cls-49" x="311.56" y="0"> </tspan><tspan x="314.88" y="0">eternal </tspan><tspan x="-26.65" y="13.5">“more”.</tspan><tspan class="cls-50" x="12.57" y="13.5"> </tspan><tspan x="16.89" y="13.5">Jesus</tspan><tspan class="cls-50" x="45.47" y="13.5"> </tspan><tspan x="49.78" y="13.5">is</tspan><tspan class="cls-50" x="57.92" y="13.5"> </tspan><tspan x="62.23" y="13.5">not</tspan><tspan class="cls-50" x="80.11" y="13.5"> </tspan><tspan x="84.42" y="13.5">the</tspan><tspan class="cls-50" x="101.83" y="13.5"> </tspan><tspan x="106.14" y="13.5">Lord</tspan><tspan class="cls-50" x="130.29" y="13.5"> </tspan><tspan x="134.61" y="13.5">of</tspan><tspan class="cls-50" x="145.66" y="13.5"> </tspan><tspan x="149.97" y="13.5">comfort,</tspan><tspan class="cls-50" x="195.01" y="13.5"> </tspan><tspan class="cls-51" x="199.32" y="13.5">security</tspan><tspan class="cls-50" x="241.22" y="13.5"> </tspan><tspan x="245.53" y="13.5">and</tspan><tspan class="cls-50" x="264.98" y="13.5"> </tspan><tspan x="269.3" y="13.5">ease.</tspan><tspan class="cls-50" x="296.04" y="13.5"> </tspan><tspan x="300.35" y="13.5">Following </tspan><tspan x="-26.65" y="27">Jesus</tspan><tspan class="cls-52" x="1.93" y="27"> </tspan><tspan x="5.33" y="27">demands</tspan><tspan class="cls-53" x="53.01" y="27"> </tspan><tspan x="56.41" y="27">a</tspan><tspan class="cls-52" x="62.4" y="27"> </tspan><tspan x="65.8" y="27">good</tspan><tspan class="cls-52" x="92.47" y="27"> </tspan><tspan x="95.86" y="27">dose</tspan><tspan class="cls-52" x="121" y="27"> </tspan><tspan x="124.4" y="27">of</tspan><tspan class="cls-53" x="135.46" y="27"> </tspan><tspan x="138.86" y="27">courage,</tspan><tspan class="cls-52" x="183.89" y="27"> </tspan><tspan x="187.29" y="27">a</tspan><tspan class="cls-52" x="193.29" y="27"> </tspan><tspan x="196.69" y="27">readiness</tspan><tspan class="cls-53" x="246.59" y="27"> </tspan><tspan x="249.99" y="27">to</tspan><tspan class="cls-52" x="261.16" y="27"> </tspan><tspan x="264.56" y="27">trade</tspan><tspan class="cls-52" x="292.4" y="27"> </tspan><tspan x="295.79" y="27">in</tspan><tspan class="cls-52" x="305.43" y="27"> </tspan><tspan x="308.83" y="27">the</tspan><tspan class="cls-53" x="326.24" y="27"> </tspan><tspan x="329.64" y="27">sofa </tspan><tspan x="-26.65" y="40.5">for</tspan><tspan class="cls-54" x="-11.2" y="40.5"> </tspan><tspan x="-7.64" y="40.5">a</tspan><tspan class="cls-54" x="-1.65" y="40.5"> </tspan><tspan x="1.9" y="40.5">pair</tspan><tspan class="cls-54" x="21.97" y="40.5"> </tspan><tspan x="25.52" y="40.5">of</tspan><tspan class="cls-55" x="36.58" y="40.5"> </tspan><tspan x="40.13" y="40.5">walking</tspan><tspan class="cls-54" x="80.54" y="40.5"> </tspan><tspan x="84.09" y="40.5">shoes</tspan><tspan class="cls-54" x="114.42" y="40.5"> </tspan><tspan x="117.97" y="40.5">and</tspan><tspan class="cls-54" x="137.42" y="40.5"> </tspan><tspan x="140.98" y="40.5">to</tspan><tspan class="cls-54" x="152.15" y="40.5"> </tspan><tspan x="155.7" y="40.5">set</tspan><tspan class="cls-54" x="171.61" y="40.5"> </tspan><tspan x="175.17" y="40.5">out</tspan><tspan class="cls-54" x="193.05" y="40.5"> </tspan><tspan x="196.6" y="40.5">on</tspan><tspan class="cls-54" x="210.14" y="40.5"> </tspan><tspan x="213.69" y="40.5">new</tspan><tspan class="cls-55" x="236.24" y="40.5"> </tspan><tspan x="239.79" y="40.5">and</tspan><tspan class="cls-54" x="259.24" y="40.5"> </tspan><tspan x="262.79" y="40.5">uncharted</tspan><tspan class="cls-54" x="316.5" y="40.5"> </tspan><tspan x="320.06" y="40.5">paths. </tspan><tspan x="-26.65" y="54">To blaze trails that open up new horizons capable of spreading joy.”</tspan><tspan x="0" y="71.73">“God</tspan><tspan class="cls-56" x="26.78" y="71.73"> </tspan><tspan x="29.43" y="71.73">expects</tspan><tspan class="cls-56" x="70.24" y="71.73"> </tspan><tspan x="72.89" y="71.73">something</tspan><tspan class="cls-56" x="128.16" y="71.73"> </tspan><tspan x="130.81" y="71.73">from</tspan><tspan class="cls-56" x="156.19" y="71.73"> </tspan><tspan x="158.84" y="71.73">you,</tspan><tspan class="cls-56" x="181.34" y="71.73"> </tspan><tspan x="184" y="71.73">God</tspan><tspan class="cls-56" x="206.32" y="71.73"> </tspan><tspan x="208.97" y="71.73">wants</tspan><tspan class="cls-56" x="240.71" y="71.73"> </tspan><tspan x="243.37" y="71.73">something</tspan><tspan class="cls-56" x="298.64" y="71.73"> </tspan><tspan x="301.29" y="71.73">from</tspan><tspan class="cls-56" x="326.66" y="71.73"> </tspan><tspan x="329.32" y="71.73">you. </tspan><tspan x="-26.65" y="85.23">God</tspan><tspan class="cls-57" x="-4.33" y="85.23"> </tspan><tspan x="-1.66" y="85.23">hopes</tspan><tspan class="cls-57" x="30.2" y="85.23"> </tspan><tspan x="32.86" y="85.23">in</tspan><tspan class="cls-58" x="42.5" y="85.23"> </tspan><tspan x="45.16" y="85.23">you.</tspan><tspan class="cls-57" x="67.75" y="85.23"> </tspan><tspan x="70.42" y="85.23">God</tspan><tspan class="cls-57" x="92.74" y="85.23"> </tspan><tspan x="95.41" y="85.23">comes</tspan><tspan class="cls-57" x="129.46" y="85.23"> </tspan><tspan x="132.12" y="85.23">to</tspan><tspan class="cls-57" x="143.3" y="85.23"> </tspan><tspan x="145.96" y="85.23">break</tspan><tspan class="cls-58" x="175.63" y="85.23"> </tspan><tspan x="178.29" y="85.23">down</tspan><tspan class="cls-57" x="208.05" y="85.23"> </tspan><tspan x="210.71" y="85.23">all</tspan><tspan class="cls-57" x="222.44" y="85.23"> </tspan><tspan x="225.11" y="85.23">our</tspan><tspan class="cls-57" x="243.04" y="85.23"> </tspan><tspan x="245.71" y="85.23">fences.</tspan><tspan class="cls-57" x="283.15" y="85.23"> </tspan><tspan x="285.81" y="85.23">He</tspan><tspan class="cls-58" x="301.35" y="85.23"> </tspan><tspan x="304.01" y="85.23">comes</tspan><tspan class="cls-57" x="338.07" y="85.23"> </tspan><tspan x="340.73" y="85.23">to </tspan><tspan x="-26.65" y="98.73">open</tspan><tspan class="cls-59" x="-0.01" y="98.73"> </tspan><tspan x="3.29" y="98.73">the</tspan><tspan class="cls-60" x="20.7" y="98.73"> </tspan><tspan x="23.99" y="98.73">doors</tspan><tspan class="cls-59" x="54" y="98.73"> </tspan><tspan x="57.3" y="98.73">of</tspan><tspan class="cls-60" x="68.35" y="98.73"> </tspan><tspan x="71.65" y="98.73">our</tspan><tspan class="cls-59" x="89.58" y="98.73"> </tspan><tspan x="92.88" y="98.73">lives,</tspan><tspan class="cls-60" x="119.21" y="98.73"> </tspan><tspan x="122.5" y="98.73">our</tspan><tspan class="cls-59" x="140.44" y="98.73"> </tspan><tspan x="143.73" y="98.73">dreams,</tspan><tspan class="cls-59" x="185.1" y="98.73"> </tspan><tspan x="188.39" y="98.73">our</tspan><tspan class="cls-60" x="206.33" y="98.73"> </tspan><tspan x="209.62" y="98.73">ways</tspan><tspan class="cls-59" x="236.52" y="98.73"> </tspan><tspan x="239.82" y="98.73">of</tspan><tspan class="cls-60" x="250.87" y="98.73"> </tspan><tspan x="254.17" y="98.73">seeing</tspan><tspan class="cls-59" x="287.99" y="98.73"> </tspan><tspan x="291.28" y="98.73">things.</tspan><tspan class="cls-60" x="326.29" y="98.73"> </tspan><tspan x="329.58" y="98.73">God </tspan><tspan x="-26.65" y="112.23">comes</tspan><tspan class="cls-61" x="7.4" y="112.23"> </tspan><tspan x="10.52" y="112.23">to</tspan><tspan class="cls-61" x="21.69" y="112.23"> </tspan><tspan x="24.81" y="112.23">break</tspan><tspan class="cls-61" x="54.47" y="112.23"> </tspan><tspan x="57.59" y="112.23">open</tspan><tspan class="cls-61" x="84.24" y="112.23"> </tspan><tspan x="87.35" y="112.23">everything</tspan><tspan class="cls-62" x="143.87" y="112.23"> </tspan><tspan x="146.98" y="112.23">that</tspan><tspan class="cls-61" x="168.38" y="112.23"> </tspan><tspan x="171.5" y="112.23">keeps</tspan><tspan class="cls-61" x="202.34" y="112.23"> </tspan><tspan x="205.46" y="112.23">you</tspan><tspan class="cls-61" x="225.22" y="112.23"> </tspan><tspan x="228.34" y="112.23">closed</tspan><tspan class="cls-61" x="262.09" y="112.23"> </tspan><tspan x="265.2" y="112.23">in.</tspan><tspan class="cls-61" x="277.67" y="112.23"> </tspan><tspan x="280.79" y="112.23">He</tspan><tspan class="cls-61" x="296.33" y="112.23"> </tspan><tspan x="299.45" y="112.23">is</tspan><tspan class="cls-61" x="307.58" y="112.23"> </tspan><tspan x="310.7" y="112.23">encour</tspan><tspan x="347.44" y="112.23">-</tspan><tspan x="-26.65" y="125.73">aging</tspan><tspan class="cls-63" x="1.51" y="125.73"> </tspan><tspan x="4.42" y="125.73">you</tspan><tspan class="cls-64" x="24.18" y="125.73"> </tspan><tspan x="27.1" y="125.73">to</tspan><tspan class="cls-63" x="38.27" y="125.73"> </tspan><tspan x="41.19" y="125.73">dream.</tspan><tspan class="cls-63" x="77.42" y="125.73"> </tspan><tspan x="80.34" y="125.73">He</tspan><tspan class="cls-64" x="95.88" y="125.73"> </tspan><tspan x="98.8" y="125.73">wants</tspan><tspan class="cls-63" x="130.54" y="125.73"> </tspan><tspan x="133.45" y="125.73">to</tspan><tspan class="cls-64" x="144.63" y="125.73"> </tspan><tspan x="147.54" y="125.73">make</tspan><tspan class="cls-63" x="175.98" y="125.73"> </tspan><tspan x="178.9" y="125.73">you</tspan><tspan class="cls-63" x="198.66" y="125.73"> </tspan><tspan x="201.57" y="125.73">see</tspan><tspan class="cls-64" x="219.5" y="125.73"> </tspan><tspan x="222.41" y="125.73">that,</tspan><tspan class="cls-63" x="246.56" y="125.73"> </tspan><tspan x="249.47" y="125.73">with</tspan><tspan class="cls-63" x="272.93" y="125.73"> </tspan><tspan x="275.84" y="125.73">you,</tspan><tspan class="cls-64" x="298.35" y="125.73"> </tspan><tspan x="301.27" y="125.73">the</tspan><tspan class="cls-63" x="318.68" y="125.73"> </tspan><tspan x="321.6" y="125.73">world </tspan><tspan x="-26.65" y="139.23">can</tspan><tspan class="cls-65" x="-8.2" y="139.23"> </tspan><tspan x="-4.9" y="139.23">be</tspan><tspan class="cls-66" x="8.2" y="139.23"> </tspan><tspan x="11.51" y="139.23">different.</tspan><tspan class="cls-65" x="60.21" y="139.23"> </tspan><tspan x="63.51" y="139.23">For</tspan><tspan class="cls-66" x="81.52" y="139.23"> </tspan><tspan x="84.83" y="139.23">the</tspan><tspan class="cls-65" x="102.24" y="139.23"> </tspan><tspan x="105.55" y="139.23">fact</tspan><tspan class="cls-66" x="125.86" y="139.23"> </tspan><tspan x="129.17" y="139.23">is,</tspan><tspan class="cls-65" x="140.05" y="139.23"> </tspan><tspan x="143.36" y="139.23">unless</tspan><tspan class="cls-66" x="176.43" y="139.23"> </tspan><tspan x="179.74" y="139.23">you</tspan><tspan class="cls-65" x="199.49" y="139.23"> </tspan><tspan x="202.8" y="139.23">offer</tspan><tspan class="cls-66" x="228.42" y="139.23"> </tspan><tspan x="231.72" y="139.23">the</tspan><tspan class="cls-65" x="249.13" y="139.23"> </tspan><tspan x="252.44" y="139.23">best</tspan><tspan class="cls-65" x="275.1" y="139.23"> </tspan><tspan x="278.4" y="139.23">of</tspan><tspan class="cls-66" x="289.46" y="139.23"> </tspan><tspan x="292.77" y="139.23">yourselves, </tspan><tspan x="-26.65" y="152.73">the world will never be different. This is the challenge.”</tspan><tspan x="0" y="170.47">“So</tspan><tspan class="cls-67" x="17.81" y="170.47"> </tspan><tspan x="22.58" y="170.47">today,</tspan><tspan class="cls-68" x="55.46" y="170.47"> </tspan><tspan x="60.22" y="170.47">my</tspan><tspan class="cls-67" x="76.36" y="170.47"> </tspan><tspan x="81.13" y="170.47">friends,</tspan><tspan class="cls-68" x="120.45" y="170.47"> </tspan><tspan x="125.22" y="170.47">Jesus</tspan><tspan class="cls-67" x="153.8" y="170.47"> </tspan><tspan x="158.57" y="170.47">is</tspan><tspan class="cls-68" x="166.71" y="170.47"> </tspan><tspan x="171.47" y="170.47">inviting</tspan><tspan class="cls-67" x="210.71" y="170.47"> </tspan><tspan x="215.48" y="170.47">you,</tspan><tspan class="cls-68" x="237.99" y="170.47"> </tspan><tspan x="242.75" y="170.47">calling</tspan><tspan class="cls-67" x="276.13" y="170.47"> </tspan><tspan x="280.89" y="170.47">you,</tspan><tspan class="cls-68" x="303.4" y="170.47"> </tspan><tspan x="308.17" y="170.47">to</tspan><tspan class="cls-67" x="319.34" y="170.47"> </tspan><tspan x="324.11" y="170.47">leave </tspan><tspan x="-26.65" y="183.97">your</tspan><tspan class="cls-69" x="-2.5" y="183.97"> </tspan><tspan x="0.37" y="183.97">mark</tspan><tspan class="cls-69" x="26.85" y="183.97"> </tspan><tspan x="29.71" y="183.97">on</tspan><tspan class="cls-69" x="43.26" y="183.97"> </tspan><tspan x="46.12" y="183.97">life,</tspan><tspan class="cls-69" x="65.24" y="183.97"> </tspan><tspan x="68.1" y="183.97">to</tspan><tspan class="cls-69" x="79.28" y="183.97"> </tspan><tspan x="82.14" y="183.97">leave</tspan><tspan class="cls-69" x="109.94" y="183.97"> </tspan><tspan x="112.8" y="183.97">a</tspan><tspan class="cls-69" x="118.8" y="183.97"> </tspan><tspan x="121.66" y="183.97">mark</tspan><tspan class="cls-70" x="148.14" y="183.97"> </tspan><tspan x="151.01" y="183.97">on</tspan><tspan class="cls-69" x="164.55" y="183.97"> </tspan><tspan x="167.41" y="183.97">history,</tspan><tspan class="cls-69" x="206.8" y="183.97"> </tspan><tspan x="209.66" y="183.97">your</tspan><tspan class="cls-69" x="233.82" y="183.97"> </tspan><tspan x="236.68" y="183.97">own</tspan><tspan class="cls-69" x="259.7" y="183.97"> </tspan><tspan x="262.56" y="183.97">and</tspan><tspan class="cls-69" x="282.01" y="183.97"> </tspan><tspan x="284.88" y="183.97">that</tspan><tspan class="cls-69" x="306.27" y="183.97"> </tspan><tspan x="309.14" y="183.97">of</tspan><tspan class="cls-69" x="320.2" y="183.97"> </tspan><tspan x="323.06" y="183.97">many </tspan><tspan x="-26.65" y="197.47">others as well.”» </tspan><tspan class="cls-71" x="0" y="222.25">	</tspan><tspan x="63.83" y="222.25" xml:space="preserve">              (Pope Francis, in Krakow, 30 July 2016) </tspan></text><rect class="cls-31" x="119.18" y="189.13" width="11.36" height="12.68"/><rect class="cls-30" x="117.22" y="187.56" width="11.36" height="12.68"/><text class="cls-92" transform="translate(650.93 395.04) scale(0.96 1)">JAN<tspan class="cls-93" x="46.21" y="0">U</tspan><tspan x="63.49" y="0">A</tspan><tspan class="cls-94" x="80.73" y="0">R</tspan><tspan x="95.58" y="0">Y </tspan><tspan class="cls-75" x="116.8" y="0">T</tspan><tspan class="cls-76" x="128.55" y="0">O</tspan><tspan x="145.78" y="0" xml:space="preserve"> JUNE</tspan></text><text class="cls-77" transform="translate(649.88 394.56) scale(0.96 1)">JAN<tspan class="cls-93" x="46.21" y="0">U</tspan><tspan x="63.49" y="0">A</tspan><tspan class="cls-94" x="80.73" y="0">R</tspan><tspan x="95.58" y="0">Y </tspan><tspan class="cls-75" x="116.8" y="0">T</tspan><tspan class="cls-76" x="128.55" y="0">O</tspan><tspan x="145.78" y="0" xml:space="preserve"> JUNE</tspan></text><line class="cls-13" x1="630.57" y1="368.27" x2="880.75" y2="368.27"/><text class="cls-82" transform="translate(883.73 280.8) rotate(90) scale(0.96 1)"><tspan class="cls-83">[</tspan><tspan x="5.34" y="0">VO</tspan><tspan class="cls-84" x="25.3" y="0">L</tspan><tspan x="32.27" y="0">UME I ]</tspan></text><path class="cls-72" d="M453.46,525.31h1.94c.2,0,.29-.07.29-.27a7.58,7.58,0,0,0,0-1.26,3.15,3.15,0,0,0-.38-1.23,2.15,2.15,0,0,0-2.34-1,1.85,1.85,0,0,0-1.58,1.49,5.43,5.43,0,0,0-.08,2c0,.22.1.28.31.27h1.86m2.72,3.14-6.59,0h-.26c-.31,0-.31,0-.36-.32s-.13-.78-.17-1.17a24.3,24.3,0,0,1-.12-3.62,6.91,6.91,0,0,1,.57-2.53,4.11,4.11,0,0,1,3.71-2.5,5.31,5.31,0,0,1,1.59.11,4.43,4.43,0,0,1,3.24,2.86,8.16,8.16,0,0,1,.53,3.35c0,.61,0,.61.62.6l4.06,0c.48,0,.62.13.63.62s0,1.29,0,1.93c0,.45-.16.6-.61.61l-6.85,0" transform="translate(75.9 5.5)"/><path class="cls-72" d="M459.15,493.17a.32.32,0,0,0-.22-.13l-6-1.69c-.4-.11-.4-.11-.4-.54,0-.77,0-1.54,0-2.32a.44.44,0,0,1,.63-.46c3,1.11,6.05,2.12,9,3.3a17.63,17.63,0,0,1,2.77,1.33,7.12,7.12,0,0,1,2.58,2.56,5.81,5.81,0,0,1,.69,3l-1.86.07c-.27,0-.58.1-.79,0s-.17-.46-.25-.7a4.37,4.37,0,0,0-2.16-2.59.76.76,0,0,0-.72,0l-9.11,3.68c-.14.06-.27.17-.44.08a.47.47,0,0,1-.31-.48c0-.83,0-1.66,0-2.49a.37.37,0,0,1,.3-.41l6.08-2.06a2.18,2.18,0,0,0,.23-.09" transform="translate(75.9 5.5)"/><path class="cls-72" d="M459.3,503.13h-.7c-.1,0-.16,0-.15.15a4.4,4.4,0,0,0,.52,2.22,1.26,1.26,0,0,0,.68.54,1.19,1.19,0,0,0,1.56-.68,1.83,1.83,0,0,0-1.26-2.21,3.82,3.82,0,0,0-.65,0m3.43-.25c0,.15.14.23.21.33a4.26,4.26,0,0,1,.6,3.77,3.31,3.31,0,0,1-3.58,2.28,3.57,3.57,0,0,1-2.89-1.94,7.42,7.42,0,0,1-.82-2.81c-.05-.41-.07-.83-.11-1.25A1.16,1.16,0,0,0,455,504a3.18,3.18,0,0,0-.11,1.62,5,5,0,0,0,.57,1.75.45.45,0,0,1-.29.71l-1.41.44a.3.3,0,0,1-.41-.16,7.11,7.11,0,0,1-.84-2.46,7.53,7.53,0,0,1,0-2.76,3.77,3.77,0,0,1,3.21-3.05A7.64,7.64,0,0,1,457,500l4.32,0a14.53,14.53,0,0,0,1.6-.12.47.47,0,0,1,.58.48c0,.7,0,1.4,0,2.1,0,.23-.09.3-.29.32a1,1,0,0,0-.47.11" transform="translate(75.9 5.5)"/><path class="cls-72" d="M453.78,513.66c-.06-.17-.2-.22-.3-.32a3.07,3.07,0,0,1-1-3c0-.18.09-.24.27-.24H455c.32,0,.48.22.45.55a2.87,2.87,0,0,0,0,1,2,2,0,0,0,1.62,1.53,4.87,4.87,0,0,0,1,.09c1.59,0,3.18,0,4.78,0,.54,0,.66.11.66.66s0,1.26,0,1.89c0,.47-.16.63-.63.64l-7.23,0c-.83,0-1.66,0-2.49.08a.45.45,0,0,1-.54-.47c0-.7,0-1.41,0-2.11,0-.21.09-.25.27-.26a4.09,4.09,0,0,0,.85-.05" transform="translate(75.9 5.5)"/><path class="cls-72" d="M458.24,531.29l4.77,0c.53,0,.64.11.65.64s0,1.31,0,2c0,.41-.17.58-.59.59l-9.72.06c-.39,0-.57-.17-.57-.55,0-.7,0-1.4,0-2.1,0-.41.14-.55.56-.55l4.9,0" transform="translate(75.9 5.5)"/><path class="cls-72" d="M451.88,533a1.65,1.65,0,0,1-1.68,1.73,1.75,1.75,0,0,1,0-3.5,1.67,1.67,0,0,1,1.69,1.77" transform="translate(75.9 5.5)"/><path class="cls-30" d="M453.29,526.07h1.95c.2,0,.28-.07.29-.26a9,9,0,0,0,0-1.27,3.17,3.17,0,0,0-.39-1.23,2.16,2.16,0,0,0-2.33-1,1.85,1.85,0,0,0-1.58,1.49,5.65,5.65,0,0,0-.09,2c0,.22.1.28.31.28.62,0,1.24,0,1.86,0m2.73,3.14-6.6,0h-.25c-.31,0-.32,0-.37-.32s-.13-.78-.17-1.17a24.2,24.2,0,0,1-.11-3.61,6.75,6.75,0,0,1,.56-2.54,4.13,4.13,0,0,1,3.71-2.5,5.38,5.38,0,0,1,1.6.11,4.44,4.44,0,0,1,3.24,2.87,8.25,8.25,0,0,1,.53,3.34c0,.61,0,.61.62.6l4.05,0c.49,0,.63.13.63.62s0,1.29,0,1.94c0,.44-.16.59-.61.6l-6.85,0" transform="translate(75.9 5.5)"/><path class="cls-30" d="M459,493.93c-.06-.09-.15-.1-.23-.13l-6-1.69c-.39-.11-.39-.11-.4-.54,0-.77,0-1.54,0-2.32,0-.39.26-.59.62-.46,3,1.11,6.06,2.12,9,3.3a19.1,19.1,0,0,1,2.77,1.34,7.09,7.09,0,0,1,2.58,2.55,5.81,5.81,0,0,1,.68,3l-1.85.06c-.27,0-.58.11-.79,0s-.17-.46-.25-.7a4.42,4.42,0,0,0-2.16-2.58.74.74,0,0,0-.72,0q-4.54,1.86-9.11,3.68c-.14.06-.27.17-.44.09a.5.5,0,0,1-.32-.49c0-.83,0-1.66,0-2.48a.36.36,0,0,1,.3-.42c2-.67,4.05-1.37,6.07-2.05l.24-.1" transform="translate(75.9 5.5)"/><path class="cls-30" d="M459.14,503.9h-.71a.13.13,0,0,0-.15.15,4.39,4.39,0,0,0,.53,2.22,1.26,1.26,0,0,0,.68.54,1.19,1.19,0,0,0,1.56-.68,1.83,1.83,0,0,0-1.27-2.21,2.84,2.84,0,0,0-.64,0m3.42-.26a.85.85,0,0,0,.21.33,4.2,4.2,0,0,1,.6,3.77A3.28,3.28,0,0,1,459.8,510a3.55,3.55,0,0,1-2.89-1.94,7.24,7.24,0,0,1-.82-2.81c0-.41-.08-.83-.11-1.25a1.14,1.14,0,0,0-1.18.78,3,3,0,0,0-.11,1.62,5.2,5.2,0,0,0,.56,1.75.46.46,0,0,1-.28.72l-1.41.43a.29.29,0,0,1-.41-.16,6.93,6.93,0,0,1-.84-2.45,7.37,7.37,0,0,1,0-2.77,3.78,3.78,0,0,1,3.21-3.05,7.48,7.48,0,0,1,1.26-.1l4.31,0a12.18,12.18,0,0,0,1.6-.12.47.47,0,0,1,.58.48c0,.7,0,1.4,0,2.11,0,.22-.08.3-.28.31a1.11,1.11,0,0,0-.48.11" transform="translate(75.9 5.5)"/><path class="cls-30" d="M453.61,514.42c-.06-.17-.2-.22-.3-.32a3.09,3.09,0,0,1-1-3c0-.17.1-.24.27-.24h2.28c.32,0,.49.22.45.56a2.58,2.58,0,0,0,0,1,2,2,0,0,0,1.62,1.53,4.87,4.87,0,0,0,1,.09l4.77,0c.54,0,.67.12.67.66s0,1.26,0,1.9c0,.46-.16.62-.62.63l-7.23,0c-.83,0-1.66,0-2.49.08a.46.46,0,0,1-.55-.47c0-.7,0-1.41,0-2.11,0-.21.09-.25.28-.25a4.75,4.75,0,0,0,.84-.06" transform="translate(75.9 5.5)"/><path class="cls-30" d="M458.07,532.05l4.78,0c.52,0,.64.11.64.64s0,1.32,0,2c0,.4-.18.57-.59.58l-9.72.06c-.39,0-.57-.17-.57-.55,0-.7,0-1.4,0-2.1,0-.41.14-.55.56-.55l4.9,0" transform="translate(75.9 5.5)"/><path class="cls-30" d="M451.71,533.71a1.65,1.65,0,0,1-1.67,1.73,1.75,1.75,0,0,1,0-3.5,1.66,1.66,0,0,1,1.68,1.77" transform="translate(75.9 5.5)"/><text class="cls-27" transform="translate(542.39 326.79) rotate(-90) scale(0.96 1)">JAN<tspan class="cls-87" x="41" y="0">U</tspan><tspan x="56.32" y="0">A</tspan><tspan class="cls-88" x="71.62" y="0">R</tspan><tspan x="84.8" y="0">Y</tspan><tspan class="cls-79" x="98.32" y="0"> </tspan><tspan class="cls-24" x="104.3" y="0">T</tspan><tspan class="cls-25" x="111.82" y="0">O</tspan></text><text class="cls-27" transform="translate(542.26 200.41) rotate(-90) scale(0.96 1)">JUNE</text><text class="cls-78" transform="translate(543.08 468.49) rotate(-90) scale(0.96 1)">2022 -<tspan class="cls-80" x="64.27" y="0"> </tspan><tspan class="cls-81" x="68.67" y="0">VOL I</tspan></text></svg>