<?xml version="1.0" encoding="UTF-8"?><svg id="Lent_Easter" xmlns="http://www.w3.org/2000/svg" xmlns:xlink="http://www.w3.org/1999/xlink" viewBox="0 0 958.1 666"><defs><style>.cls-1{letter-spacing:0em;}.cls-2{letter-spacing:.03em;}.cls-3{letter-spacing:-.03em;}.cls-4,.cls-5,.cls-6,.cls-7,.cls-8{fill:#1a2845;}.cls-9,.cls-10,.cls-11,.cls-12,.cls-13,.cls-14,.cls-15,.cls-16{fill:#fff;}.cls-17{letter-spacing:0em;}.cls-18,.cls-19{font-size:16px;}.cls-20{letter-spacing:-.08em;}.cls-21{letter-spacing:-.03em;}.cls-21,.cls-12,.cls-22{font-size:12px;}.cls-10,.cls-7{font-size:18.36px;}.cls-10,.cls-7,.cls-15{font-family:MyriadPro-Bold, 'Myriad Pro';font-weight:700;}.cls-23{letter-spacing:0em;}.cls-24{stroke:#fff;}.cls-24,.cls-25{fill:none;}.cls-26,.cls-27{font-size:23px;}.cls-28,.cls-29,.cls-30,.cls-31{font-size:25px;}.cls-5,.cls-11,.cls-13,.cls-32,.cls-31,.cls-8,.cls-16{font-family:MyriadPro-Regular, 'Myriad Pro';}.cls-5,.cls-13{font-size:13.99px;}.cls-33{letter-spacing:.03em;}.cls-34{letter-spacing:0em;}.cls-35{letter-spacing:-.03em;}.cls-36{opacity:.44;}.cls-36,.cls-37,.cls-38,.cls-32,.cls-31{fill:#c0e0cd;}.cls-29{letter-spacing:-.01em;}.cls-39{letter-spacing:-.08em;}.cls-19{letter-spacing:-.03em;}.cls-40{letter-spacing:0em;}.cls-41{letter-spacing:-.03em;}.cls-42{letter-spacing:0em;}.cls-43{letter-spacing:5.07em;}.cls-37{font-size:49.31px;letter-spacing:-.02em;}.cls-37,.cls-6,.cls-12,.cls-14{font-weight:500;}.cls-37,.cls-6,.cls-14{font-family:KeepCalm-Medium, 'Keep Calm';}.cls-6,.cls-14{font-size:91.17px;letter-spacing:-.02em;}.cls-44{letter-spacing:.02em;}.cls-45{opacity:.53;}.cls-45,.cls-46{fill:#80b2b2;}.cls-47{letter-spacing:.14em;}.cls-48{clip-path:url(#clippath-4);}.cls-49{letter-spacing:.02em;}.cls-50{letter-spacing:.02em;}.cls-12{font-family:Lato-Medium, Lato;}.cls-51{letter-spacing:0em;}.cls-52{letter-spacing:.02em;}.cls-53{letter-spacing:0em;}.cls-54{font-size:28.18px;}.cls-55{letter-spacing:.04em;}.cls-56{letter-spacing:-.01em;}.cls-57{letter-spacing:-.04em;}.cls-58{letter-spacing:-.03em;}.cls-59{letter-spacing:0em;}.cls-30{letter-spacing:-.03em;}.cls-60{letter-spacing:-.01em;}.cls-61{letter-spacing:0em;}.cls-62{letter-spacing:-.04em;}.cls-63{letter-spacing:0em;}.cls-64{opacity:.35;}.cls-65{letter-spacing:-.05em;}.cls-66{letter-spacing:.14em;}.cls-67{letter-spacing:.02em;}.cls-68{letter-spacing:0em;}.cls-69{letter-spacing:0em;}.cls-15{font-size:12.93px;}.cls-70{letter-spacing:0em;}.cls-71{fill:#386388;}.cls-72{letter-spacing:.04em;}.cls-73{letter-spacing:0em;}.cls-16{font-size:9.85px;}.cls-74{letter-spacing:0em;}.cls-75{letter-spacing:-.03em;}.cls-76{letter-spacing:.02em;}.cls-77{letter-spacing:0em;}.cls-78{letter-spacing:-.03em;}.cls-79{letter-spacing:0em;}.cls-80{letter-spacing:.11em;}.cls-27{letter-spacing:-.03em;}.cls-81{fill:#4c4847;}</style><clipPath id="clippath-4"><rect class="cls-25" x="-101.67" y="89.89" width="615.18" height="623.4"/></clipPath></defs><path class="cls-25" d="M104.53,241.91s-5.67,0-5.67,5.67v208.28s0,5.67,5.67,5.67H372.8s5.67,0,5.67-5.67V247.58s0-5.67-5.67-5.67H104.53Z"/><rect class="cls-4" x="-12.86" y="-5.5" width="1002.25" height="718.11"/><path class="cls-45" d="M-123.24,163.39s-11.29,0-11.29,7.66V452.33s0,7.66,11.29,7.66H410.85s11.29,0,11.29-7.66V171.04s0-7.66-11.29-7.66H-123.24Z"/><g><path class="cls-46" d="M620.88,180.58c8.04-23.66,15.97-46.12,23.25-68.81,2.47-7.7,6.81-6.7,12.3-5.17,30.64,8.56,60.27,19.96,88.55,34.93,97.27,51.47,171.68,128.14,226.99,225.6,38.36,67.58,62.57,140.42,71.49,218.4,3.85,33.73,4.84,67.78,1.17,101.74-1.13,10.49-1.26,10.73-11.39,10.21-20.59-1.06-41.16-2.53-61.75-3.57-6.18-.31-8.43-2.7-7.48-9.36,12.08-84.81-6.5-164-41.91-239.6-39.06-83.38-94.27-152.84-167.97-205.49-36.29-25.92-75.43-45.44-118.81-54.81-4.18-.9-8.25-2.3-14.44-4.06"/><path class="cls-46" d="M808.12,683.76c-2.37-4.45-1.57-7.47-1.22-10.38,6.92-57.12-5.37-110.5-30.11-160.99-29.02-59.23-69.83-107.41-125.77-140.55-23.52-13.93-48.42-23.9-75.46-27.51-9.38-1.25-9.56-1.63-6.35-11.3,7.05-21.26,14.51-42.37,21.39-63.69,2-6.19,4.65-7.06,10.58-5.66,41.84,9.88,79.53,29.17,113.66,55.71,85.09,66.18,140.57,153.17,165.33,261.03,7.41,32.3,9.48,65.19,6.91,98.37-.45,5.76-1.56,9.35-8.29,8.92-23.86-1.55-47.73-2.71-70.66-3.96"/><path class="cls-46" d="M684.98,675.87c-8.62-.47-17.25-1.38-25.87-1.28-7.6,.09-9.42-3.36-9.8-10.84-2.9-57.54-26.39-104.71-67.34-142.74-15.92-14.78-34.2-25.66-53.91-33.99-9.64-4.08-9.75-4.13-6.64-13.48,5.51-16.53,11.44-32.92,16.64-49.55,2.27-7.27,4.67-8.91,12.28-6.14,51.13,18.62,91.56,51.73,122.74,97.43,29.11,42.66,44.65,90.38,47,142.73q.9,20.09-17.87,18.98c-5.75-.34-11.5-.63-17.25-.95,0-.06,0-.11,0-.17"/></g><g class="cls-64"><g class="cls-48"><path class="cls-36" d="M34.59,192.79c8.04-23.66,15.97-46.12,23.25-68.81,2.47-7.7,6.81-6.7,12.3-5.17,30.64,8.56,60.27,19.96,88.55,34.93,97.27,51.47,171.68,128.14,226.99,225.6,38.36,67.58,62.57,140.42,71.49,218.4,3.85,33.73,4.84,67.78,1.17,101.74-1.13,10.49-1.26,10.73-11.39,10.21-20.59-1.06-41.16-2.53-61.75-3.57-6.18-.31-8.43-2.7-7.48-9.36,12.08-84.81-6.5-164-41.91-239.6-39.06-83.38-94.27-152.84-167.97-205.49-36.29-25.92-75.43-45.44-118.81-54.81-4.18-.9-8.25-2.3-14.44-4.06"/><path class="cls-36" d="M221.83,695.97c-2.37-4.45-1.57-7.47-1.22-10.38,6.92-57.12-5.37-110.5-30.11-160.99-29.02-59.23-69.83-107.41-125.77-140.55-23.52-13.93-48.42-23.9-75.46-27.51-9.38-1.25-9.56-1.63-6.35-11.3,7.05-21.26,14.51-42.37,21.39-63.69,2-6.19,4.65-7.06,10.58-5.66,41.84,9.88,79.53,29.17,113.66,55.71,85.09,66.18,140.57,153.17,165.33,261.03,7.41,32.3,9.48,65.19,6.91,98.37-.45,5.76-1.56,9.35-8.29,8.92-23.86-1.55-47.73-2.71-70.66-3.96"/><path class="cls-36" d="M98.69,688.08c-8.62-.47-17.25-1.38-25.87-1.28-7.6,.09-9.42-3.36-9.8-10.84-2.9-57.54-26.39-104.71-67.34-142.74-15.92-14.78-34.2-25.66-53.91-33.99-9.64-4.08-9.75-4.13-6.64-13.48,5.51-16.53,11.44-32.92,16.64-49.55,2.27-7.27,4.67-8.91,12.28-6.14,51.13,18.62,91.56,51.73,122.74,97.43,29.11,42.66,44.65,90.38,47,142.73q.9,20.09-17.87,18.98c-5.75-.34-11.5-.63-17.25-.95,0-.06,0-.11,0-.17"/></g></g><rect class="cls-45" x="-62.65" y="51.33" width="119.37" height="43.93"/><rect class="cls-45" x="342.3" y="52.11" width="3.31" height="44"/><rect class="cls-45" x="349.11" y="52.11" width="93.15" height="44"/><path class="cls-4" d="M668.26,161.49c0,3.22,.02,6.43-.02,9.65-.01,.97,.32,1.4,1.26,1.43,2.01,.06,4.02,.2,6.02-.06,2.07-.26,4.09-.76,5.91-1.88,4.27-2.64,5.31-6.75,4.77-11.54-.44-3.93-2.96-6.71-7.06-7.9-3.16-.91-6.35-.76-9.57-.47-1.06,.1-1.36,.49-1.34,1.54,.05,3.08,.02,6.15,.02,9.23m-15.05,13.41v-32.72c0-.42,0-.84,0-1.26,.03-1.53,.03-1.56,1.55-1.81,1.85-.3,3.7-.61,5.57-.8,5.74-.57,11.5-.78,17.26-.46,4.16,.24,8.24,1.02,12.06,2.88,7.51,3.66,11.31,9.95,11.85,18.48,.17,2.66,0,5.31-.59,7.92-1.8,7.95-6.66,13.03-13.76,15.98-5.12,2.13-10.5,2.68-15.96,2.53-2.9-.08-2.9-.07-2.9,3.03,0,6.71,0,13.42,0,20.14,0,2.41-.66,3.1-2.97,3.1-3.08,0-6.16,.01-9.24,0-2.11-.01-2.85-.79-2.85-3.03,0-11.33,0-22.65,0-33.98"/><path class="cls-4" d="M821.38,190.71c.44-.28,.51-.7,.62-1.1,2.75-9.92,5.49-19.85,8.24-29.77,.54-1.95,.55-1.95,2.59-1.95,3.68,0,7.37-.01,11.05,0,1.9,0,2.84,1.31,2.19,3.1-5.37,14.89-10.28,29.96-15.99,44.72-1.83,4.73-3.91,9.34-6.46,13.71-3.09,5.29-7.07,9.64-12.27,12.7-4.39,2.58-9.15,3.37-14.29,3.31-.09-3.09-.21-6.15-.26-9.21-.02-1.32-.49-2.87,.18-3.89,.62-.96,2.18-.85,3.32-1.23,5.49-1.83,9.61-5.36,12.41-10.63,.64-1.21,.64-2.27,.15-3.57-5.8-15.09-11.56-30.21-17.3-45.32-.26-.68-.8-1.34-.37-2.17,.5-.97,1.06-1.59,2.31-1.56,3.95,.11,7.9,.09,11.86,.01,1.14-.02,1.61,.37,1.96,1.5,3.17,10.08,6.41,20.13,9.63,30.19,.13,.39,.29,.77,.45,1.16"/><path class="cls-4" d="M773.85,191.17c0-1.41,0-2.46,0-3.5,0-.5-.21-.77-.73-.76-3.69,.14-7.35,.45-10.61,2.54-1.24,.79-2.11,1.91-2.57,3.36-1.08,3.4,.32,6.8,3.2,7.74,4.29,1.4,9.53-1.67,10.56-6.2,.27-1.17,.13-2.36,.15-3.19m1.13,16.99c-.74,.13-1.1,.69-1.59,1.03-5.58,3.91-11.63,4.92-18.01,2.86-7.58-2.44-11.56-10.06-10.76-17.81,.67-6.48,3.9-11.18,9.32-14.27,4.18-2.38,8.73-3.47,13.42-3.99,1.99-.22,3.99-.34,5.98-.51,.05-2.85-1.16-4.79-3.67-5.87-2.51-1.08-5.13-.95-7.72-.6-2.94,.38-5.74,1.3-8.38,2.75-1.58,.87-2.88,.31-3.4-1.44-.7-2.33-1.32-4.69-2.04-7.01-.3-.97-.08-1.5,.78-2.01,3.66-2.19,7.61-3.43,11.74-4.08,4.39-.69,8.79-.83,13.18,.22,8.01,1.92,13.06,7.52,14.44,16.01,.34,2.08,.47,4.16,.47,6.26,0,7.13-.01,14.26,.05,21.39,.02,2.65,.18,5.31,.52,7.94,.22,1.66-.71,2.86-2.3,2.88-3.35,.03-6.7-.03-10.05,.03-1.06,.02-1.43-.44-1.51-1.43-.06-.76-.02-1.55-.48-2.35"/><path class="cls-4" d="M723.8,163.42c.82-.28,1.08-.98,1.53-1.46,3.91-4.2,8.55-6.08,14.18-4.93,.82,.17,1.13,.47,1.12,1.34-.03,3.77,.02,7.55-.02,11.32-.02,1.59-1.07,2.41-2.66,2.2-1.54-.19-3.08-.31-4.6,.05-4.09,.99-6.38,3.86-7.33,7.99-.38,1.63-.47,3.3-.47,4.99,.02,7.9,.01,15.79,0,23.69,0,2.69-.59,3.29-3.18,3.29-3.01,0-6.02,.01-9.04,0-2.23,0-2.99-.8-3-3.12,0-11.95,0-23.9,0-35.85,0-4.12,.03-8.24-.3-12.36-.13-1.64,.74-2.68,2.28-2.7,3.35-.04,6.69,.02,10.04-.03,1.03-.02,1.21,.45,1.22,1.38,.01,1.37-.05,2.76,.23,4.18"/><path class="cls-4" d="M639.61,185.01c0,7.89,0,15.79,0,23.68,0,2.61-.55,3.18-3.06,3.19-3.15,0-6.29,.02-9.44,0-1.95-.01-2.76-.87-2.76-2.94,0-16.07,0-32.13,0-48.2,0-1.96,.8-2.83,2.61-2.84,3.35-.02,6.69-.02,10.04,0,1.94,.01,2.6,.72,2.6,2.8,.01,8.1,0,16.21,0,24.31"/><path class="cls-4" d="M631.87,153.41c-4.77-.02-8.21-3.52-8.2-8.36,0-4.87,3.58-8.49,8.37-8.48,4.8,.02,8.29,3.6,8.3,8.54,.01,4.86-3.52,8.31-8.47,8.3"/><text class="cls-7" transform="translate(663.26 234.59) scale(.96 1)"><tspan class="cls-75" x="0" y="0">W</tspan><tspan x="15.82" y="0">ith the </tspan><tspan class="cls-69" x="72.95" y="0">G</tspan><tspan x="85.56" y="0">os</tspan><tspan class="cls-61" x="104.11" y="0">p</tspan><tspan class="cls-68" x="115.15" y="0">el</tspan></text><text class="cls-10" transform="translate(662.36 234.61) scale(.96 1)"><tspan class="cls-75" x="0" y="0">W</tspan><tspan x="15.82" y="0">ith the </tspan><tspan class="cls-69" x="72.95" y="0">G</tspan><tspan x="85.56" y="0">os</tspan><tspan class="cls-61" x="104.11" y="0">p</tspan><tspan class="cls-68" x="115.15" y="0">el</tspan></text><line class="cls-24" x1="608.26" y1="240.37" x2="858.44" y2="240.37"/><text class="cls-5" transform="translate(621.04 256.56) scale(.96 1)"><tspan x="0" y="0">P</tspan><tspan class="cls-74" x="7.44" y="0">R</tspan><tspan class="cls-20" x="15.03" y="0">A</tspan><tspan class="cls-70" x="22.49" y="0">Y</tspan><tspan x="29.97" y="0">ER RESOU</tspan><tspan class="cls-34" x="87.32" y="0">R</tspan><tspan x="94.88" y="0">CES FOR</tspan><tspan class="cls-62" x="143.7" y="0"> </tspan><tspan class="cls-57" x="146.04" y="0">Y</tspan><tspan x="153.11" y="0">OUNG PEOPLE</tspan></text><text class="cls-13" transform="translate(620.04 256.41) scale(.96 1)"><tspan x="0" y="0">P</tspan><tspan class="cls-74" x="7.44" y="0">R</tspan><tspan class="cls-20" x="15.03" y="0">A</tspan><tspan class="cls-70" x="22.49" y="0">Y</tspan><tspan x="29.97" y="0">ER RESOU</tspan><tspan class="cls-34" x="87.32" y="0">R</tspan><tspan x="94.88" y="0">CES FOR</tspan><tspan class="cls-62" x="143.7" y="0"> </tspan><tspan class="cls-57" x="146.04" y="0">Y</tspan><tspan x="153.11" y="0">OUNG PEOPLE</tspan></text><path class="cls-46" d="M224.69,526.14c.7-2.36,1.39-4.61,2.02-6.88,.21-.77,.66-.69,1.23-.57,3.17,.68,6.25,1.64,9.22,2.95,10.19,4.53,18.18,11.66,24.33,20.92,4.26,6.43,7.11,13.45,8.42,21.05,.57,3.29,.84,6.63,.64,9.98-.06,1.04-.07,1.06-1.11,1.06-2.11,0-4.21-.03-6.32-.02-.63,0-.87-.22-.81-.88,.8-8.39-1.5-16.06-5.51-23.29-4.41-7.97-10.41-14.49-18.2-19.27-3.84-2.35-7.93-4.05-12.41-4.74-.43-.07-.85-.18-1.49-.32"/><path class="cls-46" d="M246.39,574.52c-.26-.42-.2-.73-.18-1.01,.41-5.64-1.11-10.82-3.9-15.64-3.27-5.66-7.68-10.17-13.56-13.12-2.47-1.24-5.07-2.09-7.84-2.29-.96-.07-.98-.11-.71-1.07,.61-2.12,1.26-4.24,1.86-6.37,.17-.62,.44-.72,1.05-.61,4.32,.74,8.27,2.44,11.89,4.86,9.03,6.04,15.13,14.28,18.21,24.73,.92,3.13,1.3,6.35,1.21,9.62-.02,.57-.11,.93-.8,.92-2.44-.02-4.89,0-7.23,0"/><path class="cls-46" d="M233.77,574.41c-.88,0-1.77-.04-2.65,.01-.78,.05-.98-.28-1.05-1.01-.59-5.63-3.23-10.14-7.61-13.65-1.7-1.37-3.62-2.33-5.68-3.05-1-.35-1.02-.35-.75-1.29,.48-1.65,1-3.29,1.44-4.95,.2-.73,.43-.9,1.22-.67,5.31,1.55,9.61,4.59,13.03,8.9,3.19,4.03,5.02,8.63,5.53,13.76q.19,1.97-1.73,1.96c-.59,0-1.18,0-1.76,0v-.02Z"/><line class="cls-24" x1="42.38" y1="626.96" x2="225.59" y2="626.96"/><text class="cls-37" transform="translate(80.12 96.51) scale(.96 1.11)"><tspan x="0" y="0">2023</tspan></text><text class="cls-32" transform="translate(233.44 76.17) scale(.96 1)"><tspan class="cls-28" x="0" y="0">JAN</tspan><tspan class="cls-30" x="41" y="0">U</tspan><tspan class="cls-28" x="56.32" y="0">A</tspan><tspan class="cls-29" x="71.62" y="0">R</tspan><tspan class="cls-28" x="84.8" y="0">Y</tspan><tspan class="cls-54" x="98.32" y="0"> </tspan></text><text class="cls-32" transform="translate(240.52 90.06) scale(.96 1)"><tspan class="cls-21" x="0" y="0">T</tspan><tspan class="cls-22" x="5.64" y="0">O </tspan><tspan class="cls-18" x="16.45" y="0">DECEMBER</tspan></text><path class="cls-9" d="M665.63,160.65c0,3.22,.02,6.43-.02,9.65-.01,.97,.32,1.4,1.26,1.43,2.01,.06,4.02,.2,6.02-.06,2.07-.26,4.09-.76,5.91-1.88,4.27-2.64,5.31-6.75,4.77-11.54-.44-3.93-2.96-6.71-7.06-7.9-3.16-.91-6.35-.76-9.57-.47-1.06,.1-1.36,.49-1.34,1.54,.05,3.08,.02,6.15,.02,9.23m-15.05,13.41v-32.72c0-.42,0-.84,0-1.26,.03-1.53,.03-1.56,1.55-1.81,1.85-.3,3.7-.61,5.57-.8,5.74-.57,11.5-.78,17.26-.46,4.16,.24,8.24,1.02,12.06,2.88,7.51,3.66,11.31,9.95,11.85,18.48,.17,2.66,0,5.31-.59,7.92-1.8,7.95-6.66,13.03-13.76,15.98-5.12,2.13-10.5,2.68-15.96,2.53-2.9-.08-2.9-.07-2.9,3.03,0,6.71,0,13.42,0,20.14,0,2.41-.66,3.1-2.97,3.1-3.08,0-6.16,.01-9.24,0-2.11-.01-2.85-.79-2.85-3.03,0-11.33,0-22.65,0-33.98"/><path class="cls-9" d="M818.75,189.87c.44-.28,.51-.7,.62-1.1,2.75-9.92,5.49-19.85,8.24-29.77,.54-1.95,.55-1.95,2.59-1.95,3.68,0,7.37-.01,11.05,0,1.9,0,2.84,1.31,2.19,3.1-5.37,14.89-10.28,29.96-15.99,44.72-1.83,4.73-3.91,9.34-6.46,13.71-3.09,5.29-7.07,9.64-12.27,12.7-4.39,2.58-9.15,3.37-14.29,3.31-.09-3.09-.21-6.15-.26-9.21-.02-1.32-.49-2.87,.18-3.89,.62-.96,2.18-.85,3.32-1.23,5.49-1.83,9.61-5.36,12.41-10.63,.64-1.21,.64-2.27,.15-3.57-5.8-15.09-11.56-30.21-17.3-45.32-.26-.68-.8-1.34-.37-2.17,.5-.97,1.06-1.59,2.31-1.56,3.95,.11,7.9,.09,11.86,.01,1.14-.02,1.61,.37,1.96,1.5,3.17,10.08,6.41,20.13,9.63,30.19,.13,.39,.29,.77,.45,1.16"/><path class="cls-9" d="M771.22,190.33c0-1.41,0-2.46,0-3.5,0-.5-.21-.77-.73-.76-3.69,.14-7.35,.45-10.61,2.54-1.24,.79-2.11,1.91-2.57,3.36-1.08,3.4,.32,6.8,3.2,7.74,4.29,1.4,9.53-1.67,10.56-6.2,.27-1.17,.13-2.36,.15-3.19m1.13,16.99c-.74,.13-1.1,.69-1.59,1.03-5.58,3.91-11.63,4.92-18.01,2.86-7.58-2.44-11.56-10.06-10.76-17.81,.67-6.48,3.9-11.18,9.32-14.27,4.18-2.38,8.73-3.47,13.42-3.99,1.99-.22,3.99-.34,5.98-.51,.05-2.85-1.16-4.79-3.67-5.87-2.51-1.08-5.13-.95-7.72-.6-2.94,.38-5.74,1.3-8.38,2.75-1.58,.87-2.88,.31-3.4-1.44-.7-2.33-1.32-4.69-2.04-7.01-.3-.97-.08-1.5,.78-2.01,3.66-2.19,7.61-3.43,11.74-4.08,4.39-.69,8.79-.83,13.18,.22,8.01,1.92,13.06,7.52,14.44,16.01,.34,2.08,.47,4.16,.47,6.26,0,7.13-.01,14.26,.05,21.39,.02,2.65,.18,5.31,.52,7.94,.22,1.66-.71,2.86-2.3,2.88-3.35,.03-6.7-.03-10.05,.03-1.06,.02-1.43-.44-1.51-1.43-.06-.76-.02-1.55-.48-2.35"/><path class="cls-9" d="M721.18,162.58c.82-.28,1.08-.98,1.53-1.46,3.91-4.2,8.55-6.08,14.18-4.93,.82,.17,1.13,.47,1.12,1.34-.03,3.77,.02,7.55-.02,11.32-.02,1.59-1.07,2.41-2.66,2.2-1.54-.19-3.08-.31-4.6,.05-4.09,.99-6.38,3.86-7.33,7.99-.38,1.63-.47,3.3-.47,4.99,.02,7.9,.01,15.79,0,23.69,0,2.69-.59,3.29-3.18,3.29-3.01,0-6.02,.01-9.04,0-2.23,0-2.99-.8-3-3.12,0-11.95,0-23.9,0-35.85,0-4.12,.03-8.24-.3-12.36-.13-1.64,.74-2.68,2.28-2.7,3.35-.04,6.69,.02,10.04-.03,1.03-.02,1.21,.45,1.22,1.38,.01,1.37-.05,2.76,.23,4.18"/><path class="cls-9" d="M636.98,184.18c0,7.89,0,15.79,0,23.68,0,2.61-.55,3.18-3.06,3.19-3.15,0-6.29,.02-9.44,0-1.95-.01-2.76-.87-2.76-2.94,0-16.07,0-32.13,0-48.2,0-1.96,.8-2.83,2.61-2.84,3.35-.02,6.69-.02,10.04,0,1.94,.01,2.6,.72,2.6,2.8,.01,8.1,0,16.21,0,24.31"/><path class="cls-9" d="M629.25,152.57c-4.77-.02-8.21-3.52-8.2-8.36,0-4.87,3.58-8.49,8.37-8.48,4.8,.02,8.29,3.6,8.3,8.54,.01,4.86-3.52,8.31-8.47,8.3"/><path class="cls-81" d="M85.96,570.11c0,2.27,.02,4.53-.01,6.79,0,.68,.24,.99,.92,1.01,1.47,.05,2.95,.14,4.41-.04,1.51-.18,2.99-.53,4.33-1.32,3.13-1.86,3.89-4.76,3.5-8.13-.32-2.77-2.16-4.73-5.17-5.56-2.31-.64-4.65-.54-7.01-.33-.77,.07-.99,.35-.98,1.08,.04,2.17,.01,4.33,.01,6.5m-11.02,9.44v-23.04c0-.3,0-.59,0-.89,.02-1.08,.02-1.1,1.13-1.27,1.36-.21,2.71-.43,4.08-.56,4.2-.4,8.42-.55,12.64-.32,3.05,.17,6.04,.72,8.83,2.02,5.5,2.58,8.28,7.01,8.68,13.01,.12,1.87,0,3.74-.43,5.57-1.31,5.6-4.88,9.18-10.08,11.25-3.75,1.5-7.69,1.88-11.69,1.78-2.12-.05-2.12-.05-2.12,2.13,0,4.73,0,9.45,0,14.18,0,1.7-.48,2.18-2.17,2.18-2.26,0-4.51,0-6.77,0-1.55,0-2.08-.56-2.09-2.13,0-7.98,0-15.95,0-23.93"/><path class="cls-81" d="M198.09,590.68c.32-.2,.37-.5,.45-.78,2.01-6.99,4.02-13.97,6.04-20.96,.4-1.37,.41-1.37,1.89-1.37,2.7,0,5.4,0,8.09,0,1.39,0,2.08,.92,1.61,2.18-3.93,10.49-7.53,21.1-11.71,31.49-1.34,3.33-2.86,6.58-4.73,9.65-2.26,3.72-5.17,6.79-8.99,8.94-3.22,1.82-6.7,2.37-10.47,2.33-.07-2.18-.15-4.33-.19-6.48-.02-.93-.36-2.02,.13-2.74,.46-.67,1.6-.6,2.43-.87,4.02-1.29,7.04-3.78,9.09-7.48,.47-.85,.47-1.6,.11-2.51-4.25-10.63-8.46-21.27-12.67-31.91-.19-.48-.59-.94-.27-1.53,.37-.68,.77-1.12,1.69-1.1,2.89,.08,5.79,.06,8.68,0,.84-.01,1.18,.26,1.44,1.06,2.32,7.1,4.69,14.18,7.06,21.26,.09,.27,.21,.54,.33,.82"/><path class="cls-81" d="M163.28,591c0-.99,0-1.73,0-2.47,0-.35-.16-.55-.53-.53-2.7,.1-5.38,.32-7.77,1.79-.91,.56-1.55,1.34-1.88,2.37-.79,2.4,.23,4.79,2.34,5.45,3.14,.99,6.98-1.17,7.73-4.37,.19-.82,.09-1.66,.11-2.24m.82,11.96c-.54,.09-.8,.48-1.16,.73-4.08,2.75-8.52,3.46-13.19,2.02-5.55-1.72-8.47-7.08-7.88-12.54,.49-4.56,2.85-7.87,6.83-10.05,3.06-1.68,6.39-2.44,9.83-2.81,1.46-.15,2.92-.24,4.38-.36,.04-2.01-.85-3.37-2.69-4.13-1.84-.76-3.76-.67-5.65-.43-2.15,.27-4.21,.91-6.13,1.94-1.16,.62-2.11,.22-2.49-1.02-.51-1.64-.97-3.3-1.49-4.94-.22-.68-.06-1.05,.57-1.42,2.68-1.54,5.58-2.42,8.59-2.87,3.22-.49,6.44-.58,9.65,.16,5.86,1.36,9.56,5.3,10.58,11.27,.25,1.46,.34,2.93,.34,4.41,0,5.02,0,10.04,.04,15.06,.02,1.87,.13,3.74,.38,5.59,.16,1.17-.52,2.01-1.68,2.02-2.45,.02-4.91-.02-7.36,.02-.78,.01-1.05-.31-1.11-1.01-.05-.53-.01-1.09-.35-1.66"/><path class="cls-81" d="M126.63,571.46c.6-.2,.79-.69,1.12-1.03,2.86-2.96,6.26-4.28,10.38-3.47,.6,.12,.83,.33,.82,.94-.02,2.66,.01,5.31-.02,7.97-.01,1.12-.78,1.69-1.95,1.55-1.12-.14-2.26-.22-3.37,.04-3,.7-4.67,2.72-5.37,5.63-.27,1.15-.35,2.33-.34,3.51,.02,5.56,0,11.12,0,16.68,0,1.89-.43,2.32-2.33,2.32-2.21,0-4.41,0-6.62,0-1.63,0-2.19-.57-2.19-2.2,0-8.41,0-16.83,0-25.24,0-2.9,.02-5.8-.22-8.7-.1-1.16,.54-1.89,1.67-1.9,2.45-.03,4.9,.02,7.35-.02,.75-.01,.89,.31,.89,.97,0,.96-.04,1.94,.17,2.94"/><text class="cls-15" transform="translate(85 621.83)"><tspan class="cls-58" x="0" y="0">W</tspan><tspan x="11.14" y="0">ith the </tspan><tspan class="cls-40" x="51.36" y="0">G</tspan><tspan x="60.24" y="0">os</tspan><tspan class="cls-59" x="73.31" y="0">p</tspan><tspan x="81.08" y="0">el</tspan></text><path class="cls-81" d="M64.97,586.67c0,5.56,0,11.12,0,16.68,0,1.84-.4,2.24-2.24,2.24-2.3,0-4.61,.01-6.91,0-1.43,0-2.02-.61-2.02-2.07,0-11.31,0-22.63,0-33.94,0-1.38,.58-1.99,1.91-2,2.45-.01,4.9-.01,7.35,0,1.42,0,1.9,.51,1.9,1.97,0,5.71,0,11.41,0,17.12"/><path class="cls-81" d="M59.31,564.41c-3.49-.01-6.01-2.48-6.01-5.89,0-3.43,2.62-5.98,6.13-5.97,3.51,.01,6.07,2.54,6.08,6.01,0,3.42-2.57,5.85-6.2,5.84"/><text class="cls-16" transform="translate(47.84 637.83)"><tspan x="0" y="0">P</tspan><tspan class="cls-63" x="5.24" y="0">R</tspan><tspan class="cls-39" x="10.59" y="0">A</tspan><tspan class="cls-17" x="15.84" y="0">Y</tspan><tspan class="cls-51" x="21.1" y="0">ER RESOU</tspan><tspan class="cls-53" x="61.49" y="0">R</tspan><tspan x="66.81" y="0">CES FOR</tspan><tspan class="cls-65" x="101.19" y="0"> </tspan><tspan class="cls-3" x="102.83" y="0">Y</tspan><tspan class="cls-1" x="107.81" y="0">OUNG PEOPLE</tspan></text><path class="cls-9" d="M84.3,569.52c0,2.27,.02,4.53-.01,6.79,0,.68,.24,.99,.92,1.01,1.47,.05,2.95,.14,4.41-.04,1.51-.18,2.99-.53,4.33-1.32,3.13-1.86,3.89-4.76,3.5-8.13-.32-2.77-2.16-4.73-5.17-5.56-2.31-.64-4.65-.54-7.01-.33-.77,.07-.99,.35-.98,1.08,.04,2.17,.01,4.33,.01,6.5m-11.02,9.44v-23.04c0-.3,0-.59,0-.89,.02-1.08,.02-1.1,1.13-1.27,1.36-.21,2.71-.43,4.08-.56,4.2-.4,8.42-.55,12.64-.32,3.05,.17,6.04,.72,8.83,2.02,5.5,2.58,8.28,7.01,8.68,13.01,.12,1.87,0,3.74-.43,5.57-1.31,5.6-4.88,9.18-10.08,11.25-3.75,1.5-7.69,1.88-11.69,1.78-2.12-.05-2.12-.05-2.12,2.13,0,4.73,0,9.45,0,14.18,0,1.7-.48,2.18-2.17,2.18-2.26,0-4.51,0-6.77,0-1.55,0-2.08-.56-2.09-2.13,0-7.98,0-15.95,0-23.93"/><path class="cls-9" d="M196.43,590.09c.32-.2,.37-.5,.45-.78,2.01-6.99,4.02-13.97,6.04-20.96,.4-1.37,.41-1.37,1.89-1.37,2.7,0,5.4,0,8.09,0,1.39,0,2.08,.92,1.61,2.18-3.93,10.49-7.53,21.1-11.71,31.49-1.34,3.33-2.86,6.58-4.73,9.65-2.26,3.72-5.17,6.79-8.99,8.94-3.22,1.82-6.7,2.37-10.47,2.33-.07-2.18-.15-4.33-.19-6.48-.02-.93-.36-2.02,.13-2.74,.46-.67,1.6-.6,2.43-.87,4.02-1.29,7.04-3.78,9.09-7.48,.47-.85,.47-1.6,.11-2.51-4.25-10.63-8.46-21.27-12.67-31.91-.19-.48-.59-.94-.27-1.53,.37-.68,.77-1.12,1.69-1.1,2.89,.08,5.79,.06,8.68,0,.84-.01,1.18,.26,1.44,1.06,2.32,7.1,4.69,14.18,7.06,21.26,.09,.27,.21,.54,.33,.82"/><path class="cls-9" d="M161.62,590.41c0-.99,0-1.73,0-2.47,0-.35-.16-.55-.53-.53-2.7,.1-5.38,.32-7.77,1.79-.91,.56-1.55,1.34-1.88,2.37-.79,2.4,.23,4.79,2.34,5.45,3.14,.99,6.98-1.17,7.73-4.37,.19-.82,.09-1.66,.11-2.24m.82,11.96c-.54,.09-.8,.48-1.16,.73-4.08,2.75-8.52,3.46-13.19,2.02-5.55-1.72-8.47-7.08-7.88-12.54,.49-4.56,2.85-7.87,6.83-10.05,3.06-1.68,6.39-2.44,9.83-2.81,1.46-.15,2.92-.24,4.38-.36,.04-2.01-.85-3.37-2.69-4.13-1.84-.76-3.76-.67-5.65-.43-2.15,.27-4.21,.91-6.13,1.94-1.16,.62-2.11,.22-2.49-1.02-.51-1.64-.97-3.3-1.49-4.94-.22-.68-.06-1.05,.57-1.42,2.68-1.54,5.58-2.42,8.59-2.87,3.22-.49,6.44-.58,9.65,.16,5.86,1.36,9.56,5.3,10.58,11.27,.25,1.46,.34,2.93,.34,4.41,0,5.02,0,10.04,.04,15.06,.02,1.87,.13,3.74,.38,5.59,.16,1.17-.52,2.01-1.68,2.02-2.45,.02-4.91-.02-7.36,.02-.78,.01-1.05-.31-1.11-1.01-.05-.53-.01-1.09-.35-1.66"/><path class="cls-9" d="M124.97,570.87c.6-.2,.79-.69,1.12-1.03,2.86-2.96,6.26-4.28,10.38-3.47,.6,.12,.83,.33,.82,.94-.02,2.66,.01,5.31-.02,7.97-.01,1.12-.78,1.69-1.95,1.55-1.12-.14-2.26-.22-3.37,.04-3,.7-4.67,2.72-5.37,5.63-.27,1.15-.35,2.33-.34,3.51,.02,5.56,0,11.12,0,16.68,0,1.89-.43,2.32-2.33,2.32-2.21,0-4.41,0-6.62,0-1.63,0-2.19-.57-2.19-2.2,0-8.41,0-16.83,0-25.24,0-2.9,.02-5.8-.22-8.7-.1-1.16,.54-1.89,1.67-1.9,2.45-.03,4.9,.02,7.35-.02,.75-.01,.89,.31,.89,.97,0,.96-.04,1.94,.17,2.94"/><path class="cls-9" d="M63.31,586.08c0,5.56,0,11.12,0,16.68,0,1.84-.4,2.24-2.24,2.24-2.3,0-4.61,.01-6.91,0-1.43,0-2.02-.61-2.02-2.07,0-11.31,0-22.63,0-33.94,0-1.38,.58-1.99,1.91-2,2.45-.01,4.9-.01,7.35,0,1.42,0,1.9,.51,1.9,1.97,0,5.71,0,11.41,0,17.12"/><path class="cls-9" d="M57.65,563.82c-3.49-.01-6.01-2.48-6.01-5.89,0-3.43,2.62-5.98,6.13-5.97,3.51,.01,6.07,2.54,6.08,6.01,0,3.42-2.57,5.85-6.2,5.84"/><text class="cls-6" transform="translate(610.49 352.11) scale(.96 1.11)"><tspan x="0" y="0">2023</tspan></text><text class="cls-14" transform="translate(607.89 352.11) scale(.96 1.11)"><tspan x="0" y="0">2023</tspan></text><text class="cls-12" transform="translate(66.53 193.23) scale(.96 1.11)"><tspan x="0" y="0">«“My</tspan><tspan class="cls-52" x="27.09" y="0"> </tspan><tspan x="30.41" y="0">friends,</tspan><tspan class="cls-44" x="69.73" y="0"> </tspan><tspan x="73.05" y="0">Jesus</tspan><tspan class="cls-52" x="101.63" y="0"> </tspan><tspan x="104.95" y="0">is</tspan><tspan class="cls-44" x="113.08" y="0"> </tspan><tspan x="116.4" y="0">the</tspan><tspan class="cls-52" x="133.81" y="0"> </tspan><tspan x="137.13" y="0">Lord</tspan><tspan class="cls-44" x="161.28" y="0"> </tspan><tspan x="164.6" y="0">of</tspan><tspan class="cls-52" x="175.65" y="0"> </tspan><tspan x="178.97" y="0">risk,</tspan><tspan class="cls-44" x="200.43" y="0"> </tspan><tspan x="203.74" y="0">he</tspan><tspan class="cls-52" x="216.81" y="0"> </tspan><tspan x="220.13" y="0">is</tspan><tspan class="cls-44" x="228.26" y="0"> </tspan><tspan x="231.58" y="0">the</tspan><tspan class="cls-52" x="248.99" y="0"> </tspan><tspan x="252.31" y="0">Lord</tspan><tspan class="cls-44" x="276.46" y="0"> </tspan><tspan x="279.78" y="0">of</tspan><tspan class="cls-52" x="290.83" y="0"> </tspan><tspan x="294.15" y="0">the</tspan><tspan class="cls-44" x="311.56" y="0"> </tspan><tspan x="314.88" y="0">eternal </tspan><tspan x="-26.65" y="13.5">“more”.</tspan><tspan class="cls-80" x="12.57" y="13.5"> </tspan><tspan x="16.89" y="13.5">Jesus</tspan><tspan class="cls-80" x="45.47" y="13.5"> </tspan><tspan x="49.78" y="13.5">is</tspan><tspan class="cls-80" x="57.92" y="13.5"> </tspan><tspan x="62.23" y="13.5">not</tspan><tspan class="cls-80" x="80.11" y="13.5"> </tspan><tspan x="84.42" y="13.5">the</tspan><tspan class="cls-80" x="101.83" y="13.5"> </tspan><tspan x="106.14" y="13.5">Lord</tspan><tspan class="cls-80" x="130.29" y="13.5"> </tspan><tspan x="134.61" y="13.5">of</tspan><tspan class="cls-80" x="145.66" y="13.5"> </tspan><tspan x="149.97" y="13.5">comfort,</tspan><tspan class="cls-80" x="195.01" y="13.5"> </tspan><tspan class="cls-73" x="199.32" y="13.5">security</tspan><tspan class="cls-80" x="241.22" y="13.5"> </tspan><tspan x="245.53" y="13.5">and</tspan><tspan class="cls-80" x="264.98" y="13.5"> </tspan><tspan x="269.3" y="13.5">ease.</tspan><tspan class="cls-80" x="296.04" y="13.5"> </tspan><tspan x="300.35" y="13.5">Following </tspan><tspan x="-26.65" y="27">Jesus</tspan><tspan class="cls-33" x="1.93" y="27"> </tspan><tspan x="5.33" y="27">demands</tspan><tspan class="cls-2" x="53.01" y="27"> </tspan><tspan x="56.41" y="27">a</tspan><tspan class="cls-33" x="62.4" y="27"> </tspan><tspan x="65.8" y="27">good</tspan><tspan class="cls-33" x="92.47" y="27"> </tspan><tspan x="95.86" y="27">dose</tspan><tspan class="cls-33" x="121" y="27"> </tspan><tspan x="124.4" y="27">of</tspan><tspan class="cls-2" x="135.46" y="27"> </tspan><tspan x="138.86" y="27">courage,</tspan><tspan class="cls-33" x="183.89" y="27"> </tspan><tspan x="187.29" y="27">a</tspan><tspan class="cls-33" x="193.29" y="27"> </tspan><tspan x="196.69" y="27">readiness</tspan><tspan class="cls-2" x="246.59" y="27"> </tspan><tspan x="249.99" y="27">to</tspan><tspan class="cls-33" x="261.16" y="27"> </tspan><tspan x="264.56" y="27">trade</tspan><tspan class="cls-33" x="292.4" y="27"> </tspan><tspan x="295.79" y="27">in</tspan><tspan class="cls-33" x="305.43" y="27"> </tspan><tspan x="308.83" y="27">the</tspan><tspan class="cls-2" x="326.24" y="27"> </tspan><tspan x="329.64" y="27">sofa </tspan><tspan x="-26.65" y="40.5">for</tspan><tspan class="cls-55" x="-11.2" y="40.5"> </tspan><tspan x="-7.64" y="40.5">a</tspan><tspan class="cls-55" x="-1.65" y="40.5"> </tspan><tspan x="1.9" y="40.5">pair</tspan><tspan class="cls-55" x="21.97" y="40.5"> </tspan><tspan x="25.52" y="40.5">of</tspan><tspan class="cls-72" x="36.58" y="40.5"> </tspan><tspan x="40.13" y="40.5">walking</tspan><tspan class="cls-55" x="80.54" y="40.5"> </tspan><tspan x="84.09" y="40.5">shoes</tspan><tspan class="cls-55" x="114.42" y="40.5"> </tspan><tspan x="117.97" y="40.5">and</tspan><tspan class="cls-55" x="137.42" y="40.5"> </tspan><tspan x="140.98" y="40.5">to</tspan><tspan class="cls-55" x="152.15" y="40.5"> </tspan><tspan x="155.7" y="40.5">set</tspan><tspan class="cls-55" x="171.61" y="40.5"> </tspan><tspan x="175.17" y="40.5">out</tspan><tspan class="cls-55" x="193.05" y="40.5"> </tspan><tspan x="196.6" y="40.5">on</tspan><tspan class="cls-55" x="210.14" y="40.5"> </tspan><tspan x="213.69" y="40.5">new</tspan><tspan class="cls-72" x="236.24" y="40.5"> </tspan><tspan x="239.79" y="40.5">and</tspan><tspan class="cls-55" x="259.24" y="40.5"> </tspan><tspan x="262.79" y="40.5">uncharted</tspan><tspan class="cls-55" x="316.5" y="40.5"> </tspan><tspan x="320.06" y="40.5">paths. </tspan><tspan x="-26.65" y="54">To blaze trails that open up new horizons capable of spreading joy.”</tspan><tspan x="0" y="71.73">“God</tspan><tspan class="cls-41" x="26.78" y="71.73"> </tspan><tspan x="29.43" y="71.73">expects</tspan><tspan class="cls-41" x="70.24" y="71.73"> </tspan><tspan x="72.89" y="71.73">something</tspan><tspan class="cls-41" x="128.16" y="71.73"> </tspan><tspan x="130.81" y="71.73">from</tspan><tspan class="cls-41" x="156.19" y="71.73"> </tspan><tspan x="158.84" y="71.73">you,</tspan><tspan class="cls-41" x="181.34" y="71.73"> </tspan><tspan x="184" y="71.73">God</tspan><tspan class="cls-41" x="206.32" y="71.73"> </tspan><tspan x="208.97" y="71.73">wants</tspan><tspan class="cls-41" x="240.71" y="71.73"> </tspan><tspan x="243.37" y="71.73">something</tspan><tspan class="cls-41" x="298.64" y="71.73"> </tspan><tspan x="301.29" y="71.73">from</tspan><tspan class="cls-41" x="326.66" y="71.73"> </tspan><tspan x="329.32" y="71.73">you. </tspan><tspan x="-26.65" y="85.23">God</tspan><tspan class="cls-35" x="-4.33" y="85.23"> </tspan><tspan x="-1.66" y="85.23">hopes</tspan><tspan class="cls-35" x="30.2" y="85.23"> </tspan><tspan x="32.86" y="85.23">in</tspan><tspan class="cls-78" x="42.5" y="85.23"> </tspan><tspan x="45.16" y="85.23">you.</tspan><tspan class="cls-35" x="67.75" y="85.23"> </tspan><tspan x="70.42" y="85.23">God</tspan><tspan class="cls-35" x="92.74" y="85.23"> </tspan><tspan x="95.41" y="85.23">comes</tspan><tspan class="cls-35" x="129.46" y="85.23"> </tspan><tspan x="132.12" y="85.23">to</tspan><tspan class="cls-35" x="143.3" y="85.23"> </tspan><tspan x="145.96" y="85.23">break</tspan><tspan class="cls-78" x="175.63" y="85.23"> </tspan><tspan x="178.29" y="85.23">down</tspan><tspan class="cls-35" x="208.05" y="85.23"> </tspan><tspan x="210.71" y="85.23">all</tspan><tspan class="cls-35" x="222.44" y="85.23"> </tspan><tspan x="225.11" y="85.23">our</tspan><tspan class="cls-35" x="243.04" y="85.23"> </tspan><tspan x="245.71" y="85.23">fences.</tspan><tspan class="cls-35" x="283.15" y="85.23"> </tspan><tspan x="285.81" y="85.23">He</tspan><tspan class="cls-78" x="301.35" y="85.23"> </tspan><tspan x="304.01" y="85.23">comes</tspan><tspan class="cls-35" x="338.07" y="85.23"> </tspan><tspan x="340.73" y="85.23">to </tspan><tspan x="-26.65" y="98.73">open</tspan><tspan class="cls-76" x="0" y="98.73"> </tspan><tspan x="3.29" y="98.73">the</tspan><tspan class="cls-49" x="20.7" y="98.73"> </tspan><tspan x="23.99" y="98.73">doors</tspan><tspan class="cls-76" x="54" y="98.73"> </tspan><tspan x="57.3" y="98.73">of</tspan><tspan class="cls-49" x="68.35" y="98.73"> </tspan><tspan x="71.65" y="98.73">our</tspan><tspan class="cls-76" x="89.58" y="98.73"> </tspan><tspan x="92.88" y="98.73">lives,</tspan><tspan class="cls-49" x="119.21" y="98.73"> </tspan><tspan x="122.5" y="98.73">our</tspan><tspan class="cls-76" x="140.44" y="98.73"> </tspan><tspan x="143.73" y="98.73">dreams,</tspan><tspan class="cls-76" x="185.1" y="98.73"> </tspan><tspan x="188.39" y="98.73">our</tspan><tspan class="cls-49" x="206.33" y="98.73"> </tspan><tspan x="209.62" y="98.73">ways</tspan><tspan class="cls-76" x="236.52" y="98.73"> </tspan><tspan x="239.82" y="98.73">of</tspan><tspan class="cls-49" x="250.87" y="98.73"> </tspan><tspan x="254.17" y="98.73">seeing</tspan><tspan class="cls-76" x="287.99" y="98.73"> </tspan><tspan x="291.28" y="98.73">things.</tspan><tspan class="cls-49" x="326.29" y="98.73"> </tspan><tspan x="329.58" y="98.73">God </tspan><tspan x="-26.65" y="112.23">comes</tspan><tspan class="cls-79" x="7.4" y="112.23"> </tspan><tspan x="10.52" y="112.23">to</tspan><tspan class="cls-79" x="21.69" y="112.23"> </tspan><tspan x="24.81" y="112.23">break</tspan><tspan class="cls-79" x="54.47" y="112.23"> </tspan><tspan x="57.59" y="112.23">open</tspan><tspan class="cls-79" x="84.24" y="112.23"> </tspan><tspan x="87.35" y="112.23">everything</tspan><tspan class="cls-42" x="143.87" y="112.23"> </tspan><tspan x="146.98" y="112.23">that</tspan><tspan class="cls-79" x="168.38" y="112.23"> </tspan><tspan x="171.5" y="112.23">keeps</tspan><tspan class="cls-79" x="202.34" y="112.23"> </tspan><tspan x="205.46" y="112.23">you</tspan><tspan class="cls-79" x="225.22" y="112.23"> </tspan><tspan x="228.34" y="112.23">closed</tspan><tspan class="cls-79" x="262.09" y="112.23"> </tspan><tspan x="265.2" y="112.23">in.</tspan><tspan class="cls-79" x="277.67" y="112.23"> </tspan><tspan x="280.79" y="112.23">He</tspan><tspan class="cls-79" x="296.33" y="112.23"> </tspan><tspan x="299.45" y="112.23">is</tspan><tspan class="cls-79" x="307.58" y="112.23"> </tspan><tspan x="310.7" y="112.23">encour</tspan><tspan x="347.44" y="112.23">-</tspan><tspan x="-26.65" y="125.73">aging</tspan><tspan class="cls-23" x="1.51" y="125.73"> </tspan><tspan x="4.42" y="125.73">you</tspan><tspan class="cls-77" x="24.18" y="125.73"> </tspan><tspan x="27.1" y="125.73">to</tspan><tspan class="cls-23" x="38.27" y="125.73"> </tspan><tspan x="41.19" y="125.73">dream.</tspan><tspan class="cls-23" x="77.42" y="125.73"> </tspan><tspan x="80.34" y="125.73">He</tspan><tspan class="cls-77" x="95.88" y="125.73"> </tspan><tspan x="98.8" y="125.73">wants</tspan><tspan class="cls-23" x="130.54" y="125.73"> </tspan><tspan x="133.45" y="125.73">to</tspan><tspan class="cls-77" x="144.63" y="125.73"> </tspan><tspan x="147.54" y="125.73">make</tspan><tspan class="cls-23" x="175.98" y="125.73"> </tspan><tspan x="178.9" y="125.73">you</tspan><tspan class="cls-23" x="198.66" y="125.73"> </tspan><tspan x="201.57" y="125.73">see</tspan><tspan class="cls-77" x="219.5" y="125.73"> </tspan><tspan x="222.41" y="125.73">that,</tspan><tspan class="cls-23" x="246.56" y="125.73"> </tspan><tspan x="249.47" y="125.73">with</tspan><tspan class="cls-23" x="272.93" y="125.73"> </tspan><tspan x="275.84" y="125.73">you,</tspan><tspan class="cls-77" x="298.35" y="125.73"> </tspan><tspan x="301.27" y="125.73">the</tspan><tspan class="cls-23" x="318.68" y="125.73"> </tspan><tspan x="321.6" y="125.73">world </tspan><tspan x="-26.65" y="139.23">can</tspan><tspan class="cls-67" x="-8.2" y="139.23"> </tspan><tspan x="-4.9" y="139.23">be</tspan><tspan class="cls-50" x="8.2" y="139.23"> </tspan><tspan x="11.51" y="139.23">different.</tspan><tspan class="cls-67" x="60.21" y="139.23"> </tspan><tspan x="63.51" y="139.23">For</tspan><tspan class="cls-50" x="81.52" y="139.23"> </tspan><tspan x="84.83" y="139.23">the</tspan><tspan class="cls-67" x="102.24" y="139.23"> </tspan><tspan x="105.55" y="139.23">fact</tspan><tspan class="cls-50" x="125.86" y="139.23"> </tspan><tspan x="129.17" y="139.23">is,</tspan><tspan class="cls-67" x="140.05" y="139.23"> </tspan><tspan x="143.36" y="139.23">unless</tspan><tspan class="cls-50" x="176.43" y="139.23"> </tspan><tspan x="179.74" y="139.23">you</tspan><tspan class="cls-67" x="199.49" y="139.23"> </tspan><tspan x="202.8" y="139.23">offer</tspan><tspan class="cls-50" x="228.42" y="139.23"> </tspan><tspan x="231.72" y="139.23">the</tspan><tspan class="cls-67" x="249.13" y="139.23"> </tspan><tspan x="252.44" y="139.23">best</tspan><tspan class="cls-67" x="275.1" y="139.23"> </tspan><tspan x="278.4" y="139.23">of</tspan><tspan class="cls-50" x="289.46" y="139.23"> </tspan><tspan x="292.77" y="139.23">yourselves, </tspan><tspan x="-26.65" y="152.73">the world will never be different. This is the challenge.”</tspan><tspan x="0" y="170.47">“So</tspan><tspan class="cls-47" x="17.81" y="170.47"> </tspan><tspan x="22.58" y="170.47">today,</tspan><tspan class="cls-66" x="55.46" y="170.47"> </tspan><tspan x="60.22" y="170.47">my</tspan><tspan class="cls-47" x="76.36" y="170.47"> </tspan><tspan x="81.13" y="170.47">friends,</tspan><tspan class="cls-66" x="120.45" y="170.47"> </tspan><tspan x="125.22" y="170.47">Jesus</tspan><tspan class="cls-47" x="153.8" y="170.47"> </tspan><tspan x="158.57" y="170.47">is</tspan><tspan class="cls-66" x="166.71" y="170.47"> </tspan><tspan x="171.47" y="170.47">inviting</tspan><tspan class="cls-47" x="210.71" y="170.47"> </tspan><tspan x="215.48" y="170.47">you,</tspan><tspan class="cls-66" x="237.99" y="170.47"> </tspan><tspan x="242.75" y="170.47">calling</tspan><tspan class="cls-47" x="276.13" y="170.47"> </tspan><tspan x="280.89" y="170.47">you,</tspan><tspan class="cls-66" x="303.4" y="170.47"> </tspan><tspan x="308.17" y="170.47">to</tspan><tspan class="cls-47" x="319.34" y="170.47"> </tspan><tspan x="324.11" y="170.47">leave </tspan><tspan x="-26.65" y="183.97">your</tspan><tspan class="cls-60" x="-2.5" y="183.97"> </tspan><tspan x=".37" y="183.97">mark</tspan><tspan class="cls-60" x="26.85" y="183.97"> </tspan><tspan x="29.71" y="183.97">on</tspan><tspan class="cls-60" x="43.26" y="183.97"> </tspan><tspan x="46.12" y="183.97">life,</tspan><tspan class="cls-60" x="65.24" y="183.97"> </tspan><tspan x="68.1" y="183.97">to</tspan><tspan class="cls-60" x="79.28" y="183.97"> </tspan><tspan x="82.14" y="183.97">leave</tspan><tspan class="cls-60" x="109.94" y="183.97"> </tspan><tspan x="112.8" y="183.97">a</tspan><tspan class="cls-60" x="118.8" y="183.97"> </tspan><tspan x="121.66" y="183.97">mark</tspan><tspan class="cls-56" x="148.14" y="183.97"> </tspan><tspan x="151.01" y="183.97">on</tspan><tspan class="cls-60" x="164.55" y="183.97"> </tspan><tspan x="167.41" y="183.97">history,</tspan><tspan class="cls-60" x="206.8" y="183.97"> </tspan><tspan x="209.66" y="183.97">your</tspan><tspan class="cls-60" x="233.82" y="183.97"> </tspan><tspan x="236.68" y="183.97">own</tspan><tspan class="cls-60" x="259.7" y="183.97"> </tspan><tspan x="262.56" y="183.97">and</tspan><tspan class="cls-60" x="282.01" y="183.97"> </tspan><tspan x="284.88" y="183.97">that</tspan><tspan class="cls-60" x="306.27" y="183.97"> </tspan><tspan x="309.14" y="183.97">of</tspan><tspan class="cls-60" x="320.2" y="183.97"> </tspan><tspan x="323.06" y="183.97">many </tspan><tspan x="-26.65" y="197.47">others as well.”» </tspan><tspan class="cls-43" x="0" y="222.25">	</tspan><tspan x="63.83" y="222.25" xml:space="preserve">              (Pope Francis, in Krakow, 30 July 2016) </tspan></text><rect class="cls-46" x="48.51" y="181.63" width="7.67" height="8.56"/><text class="cls-8" transform="translate(611.31 387.17) scale(.96 1)"><tspan class="cls-28" x="0" y="0">JAN</tspan><tspan class="cls-30" x="41" y="0">U</tspan><tspan class="cls-28" x="56.32" y="0">A</tspan><tspan class="cls-29" x="71.62" y="0">R</tspan><tspan class="cls-28" x="84.8" y="0">Y </tspan><tspan class="cls-27" x="103.62" y="0">T</tspan><tspan class="cls-26" x="114.43" y="0">O</tspan><tspan class="cls-28" x="130.28" y="0" xml:space="preserve"> DECEMBER</tspan></text><rect class="cls-9" x="49.97" y="183.1" width="8.26" height="9.22"/><text class="cls-11" transform="translate(610.19 387.17) scale(.96 1)"><tspan class="cls-28" x="0" y="0">JAN</tspan><tspan class="cls-30" x="41" y="0">U</tspan><tspan class="cls-28" x="56.32" y="0">A</tspan><tspan class="cls-29" x="71.62" y="0">R</tspan><tspan class="cls-28" x="84.8" y="0">Y </tspan><tspan class="cls-27" x="103.62" y="0">T</tspan><tspan class="cls-26" x="114.43" y="0">O</tspan><tspan class="cls-28" x="130.28" y="0" xml:space="preserve"> DECEMBER</tspan></text><line class="cls-24" x1="607.89" y1="362.77" x2="858.07" y2="362.77"/><g><path class="cls-71" d="M477.68,525.31c.65,0,1.3-.01,1.95,0,.2,0,.28-.07,.29-.27,.01-.42,.03-.84-.02-1.26-.06-.43-.16-.86-.39-1.24-.54-.89-1.37-1.1-2.33-.99-.79,.1-1.35,.63-1.58,1.49-.18,.66-.15,1.33-.08,2.01,.02,.22,.1,.28,.31,.28,.62-.01,1.24-.01,1.86-.02m2.72,3.14l-6.6,.04c-.08,0-.17,0-.25,0-.31,0-.32,0-.37-.32-.06-.39-.13-.78-.17-1.17-.12-1.2-.17-2.41-.11-3.62,.04-.87,.19-1.73,.56-2.53,.73-1.58,1.99-2.38,3.71-2.51,.54-.04,1.07,0,1.6,.11,1.6,.37,2.64,1.38,3.24,2.86,.44,1.07,.55,2.2,.53,3.34-.01,.61,0,.61,.61,.6,1.35,0,2.71-.02,4.06-.02,.49,0,.63,.13,.63,.62,0,.65,.01,1.29,.01,1.94,0,.44-.16,.6-.61,.6-2.28,.02-4.57,.03-6.85,.04"/><path class="cls-71" d="M483.37,493.17c-.06-.09-.14-.11-.22-.13-2-.56-4.01-1.13-6.01-1.69-.39-.11-.39-.11-.4-.54,0-.77-.01-1.54-.01-2.32,0-.4,.26-.6,.62-.46,3.01,1.11,6.05,2.12,9.04,3.3,.96,.38,1.89,.81,2.77,1.34,1.07,.64,1.95,1.47,2.58,2.56,.53,.92,.69,1.92,.69,2.99-.62,.02-1.24,.05-1.86,.07-.27,0-.58,.11-.79-.03-.19-.13-.17-.46-.25-.7-.38-1.15-1.09-2.01-2.16-2.59-.25-.13-.46-.13-.72-.03-3.04,1.24-6.07,2.46-9.11,3.68-.14,.05-.27,.17-.44,.08-.2-.1-.32-.22-.32-.48,.02-.83,0-1.66-.01-2.49,0-.24,.07-.34,.3-.41,2.03-.68,4.05-1.37,6.07-2.06,.08-.03,.15-.06,.23-.09"/><path class="cls-71" d="M483.53,503.13c-.28,0-.5,0-.71,0-.1,0-.16,.05-.15,.15,.03,.77,.1,1.54,.53,2.22,.16,.26,.39,.44,.68,.54,.69,.22,1.37-.08,1.56-.68,.28-.9-.35-2-1.26-2.21-.24-.05-.48-.02-.64-.03m3.42-.26c.03,.15,.14,.23,.21,.33,.79,1.16,1.01,2.43,.6,3.77-.48,1.59-2.01,2.44-3.58,2.28-1.31-.13-2.26-.8-2.89-1.94-.49-.87-.71-1.83-.82-2.81-.05-.42-.07-.84-.11-1.25-.57,0-.96,.25-1.18,.78-.22,.53-.18,1.08-.11,1.62,.08,.62,.27,1.2,.57,1.75,.18,.33,.07,.6-.29,.71-.47,.15-.94,.28-1.41,.44-.2,.06-.3,.02-.41-.16-.45-.76-.7-1.59-.84-2.46-.14-.92-.18-1.84,.03-2.76,.38-1.68,1.5-2.75,3.21-3.05,.42-.07,.84-.1,1.26-.11,1.44,0,2.88-.02,4.31-.04,.53,0,1.07-.04,1.6-.12,.33-.05,.58,.15,.58,.48,.01,.7,0,1.4,.02,2.11,0,.22-.09,.3-.29,.32-.15,.01-.31,0-.47,.1"/><path class="cls-71" d="M478,513.66c-.06-.17-.2-.23-.3-.32-.85-.81-1.24-1.78-1.01-2.97,.03-.17,.09-.24,.27-.24,.76,0,1.52-.01,2.28,0,.32,0,.49,.22,.45,.55-.04,.32-.06,.65,.02,.96,.21,.86,.79,1.33,1.62,1.53,.33,.08,.67,.1,1.01,.09,1.59-.01,3.18-.02,4.78-.03,.54,0,.66,.12,.67,.66,0,.63,0,1.26,.01,1.89,0,.47-.16,.63-.62,.63-2.41,.02-4.82,.03-7.23,.05-.83,0-1.66,0-2.49,.08-.33,.03-.54-.15-.55-.47-.01-.7,0-1.4-.02-2.1,0-.22,.09-.26,.28-.26,.28,0,.56,0,.84-.05"/><path class="cls-71" d="M482.46,531.29c1.59,0,3.18-.02,4.77-.03,.53,0,.64,.11,.65,.64,0,.66,.01,1.32,.01,1.98,0,.41-.17,.58-.59,.58-3.24,.02-6.48,.04-9.72,.06-.4,0-.57-.16-.58-.54,0-.7-.01-1.4-.01-2.1,0-.41,.14-.55,.56-.55,1.63-.01,3.27-.02,4.9-.03"/><path class="cls-71" d="M476.1,532.95c0,1-.7,1.73-1.67,1.73-.98,0-1.72-.74-1.72-1.74,0-1.01,.72-1.74,1.71-1.75,.98,0,1.68,.73,1.68,1.76"/><path class="cls-9" d="M477.52,526.07c.65,0,1.3-.01,1.95,0,.2,0,.28-.07,.29-.27,.01-.42,.03-.84-.02-1.26-.06-.43-.16-.86-.39-1.24-.54-.89-1.37-1.1-2.33-.99-.79,.1-1.35,.63-1.58,1.49-.18,.66-.15,1.33-.08,2.01,.02,.22,.1,.28,.31,.28,.62-.01,1.24-.01,1.86-.02m2.72,3.14l-6.6,.04c-.08,0-.17,0-.25,0-.31,0-.32,0-.37-.32-.06-.39-.13-.78-.17-1.17-.12-1.2-.17-2.41-.11-3.62,.04-.87,.19-1.73,.56-2.53,.73-1.58,1.99-2.38,3.71-2.51,.54-.04,1.07,0,1.6,.11,1.6,.37,2.64,1.38,3.24,2.86,.44,1.07,.55,2.2,.53,3.34-.01,.61,0,.61,.61,.6,1.35,0,2.71-.02,4.06-.02,.49,0,.63,.13,.63,.62,0,.65,.01,1.29,.01,1.94,0,.44-.16,.6-.61,.6-2.28,.02-4.57,.03-6.85,.04"/><path class="cls-9" d="M483.21,493.93c-.06-.09-.14-.11-.22-.13-2-.56-4.01-1.13-6.01-1.69-.39-.11-.39-.11-.4-.54,0-.77-.01-1.54-.01-2.32,0-.4,.26-.6,.62-.46,3.01,1.11,6.05,2.12,9.04,3.3,.96,.38,1.89,.81,2.77,1.34,1.07,.64,1.95,1.47,2.58,2.56,.53,.92,.69,1.92,.69,2.99-.62,.02-1.24,.05-1.86,.07-.27,0-.58,.11-.79-.03-.19-.13-.17-.46-.25-.7-.38-1.15-1.09-2.01-2.16-2.59-.25-.13-.46-.13-.72-.03-3.04,1.24-6.07,2.46-9.11,3.68-.14,.05-.27,.17-.44,.08-.2-.1-.32-.22-.32-.48,.02-.83,0-1.66-.01-2.49,0-.24,.07-.34,.3-.41,2.03-.68,4.05-1.37,6.07-2.06,.08-.03,.15-.06,.23-.09"/><path class="cls-9" d="M483.36,503.9c-.28,0-.5,0-.71,0-.1,0-.16,.05-.15,.15,.03,.77,.1,1.54,.53,2.22,.16,.26,.39,.44,.68,.54,.69,.22,1.37-.08,1.56-.68,.28-.9-.35-2-1.26-2.21-.24-.05-.48-.02-.64-.03m3.42-.26c.03,.15,.14,.23,.21,.33,.79,1.16,1.01,2.43,.6,3.77-.48,1.59-2.01,2.44-3.58,2.28-1.31-.13-2.26-.8-2.89-1.94-.49-.87-.71-1.83-.82-2.81-.05-.42-.07-.84-.11-1.25-.57,0-.96,.25-1.18,.78-.22,.53-.18,1.08-.11,1.62,.08,.62,.27,1.2,.57,1.75,.18,.33,.07,.6-.29,.71-.47,.15-.94,.28-1.41,.44-.2,.06-.3,.02-.41-.16-.45-.76-.7-1.59-.84-2.46-.14-.92-.18-1.84,.03-2.76,.38-1.68,1.5-2.75,3.21-3.05,.42-.07,.84-.1,1.26-.11,1.44,0,2.88-.02,4.31-.04,.53,0,1.07-.04,1.6-.12,.33-.05,.58,.15,.58,.48,.01,.7,0,1.4,.02,2.11,0,.22-.09,.3-.29,.32-.15,.01-.31,0-.47,.1"/><path class="cls-9" d="M477.83,514.42c-.06-.17-.2-.23-.3-.32-.85-.81-1.24-1.78-1.01-2.97,.03-.17,.09-.24,.27-.24,.76,0,1.52-.01,2.28,0,.32,0,.49,.22,.45,.55-.04,.32-.06,.65,.02,.96,.21,.86,.79,1.33,1.62,1.53,.33,.08,.67,.1,1.01,.09,1.59-.01,3.18-.02,4.78-.03,.54,0,.66,.12,.67,.66,0,.63,0,1.26,.01,1.89,0,.47-.16,.63-.62,.63-2.41,.02-4.82,.03-7.23,.05-.83,0-1.66,0-2.49,.08-.33,.03-.54-.15-.55-.47-.01-.7,0-1.4-.02-2.1,0-.22,.09-.26,.28-.26,.28,0,.56,0,.84-.05"/><path class="cls-9" d="M482.3,532.05c1.59,0,3.18-.02,4.77-.03,.53,0,.64,.11,.65,.64,0,.66,.01,1.32,.01,1.98,0,.41-.17,.58-.59,.58-3.24,.02-6.48,.04-9.72,.06-.4,0-.57-.16-.58-.54,0-.7-.01-1.4-.01-2.1,0-.41,.14-.55,.56-.55,1.63-.01,3.27-.02,4.9-.03"/><path class="cls-9" d="M475.93,533.71c0,1-.7,1.73-1.67,1.73-.98,0-1.72-.74-1.72-1.74,0-1.01,.72-1.74,1.71-1.75,.98,0,1.68,.73,1.68,1.76"/></g><g><text class="cls-32" transform="translate(489.71 361.29) rotate(-90) scale(.96 1)"><tspan class="cls-28" x="0" y="0">JAN</tspan><tspan class="cls-30" x="41" y="0">U</tspan><tspan class="cls-28" x="56.32" y="0">A</tspan><tspan class="cls-29" x="71.62" y="0">R</tspan><tspan class="cls-28" x="84.8" y="0">Y</tspan><tspan class="cls-54" x="98.32" y="0"> </tspan><tspan class="cls-19" x="104.3" y="0">T</tspan><tspan class="cls-18" x="111.82" y="0">O</tspan></text><text class="cls-31" transform="translate(489.59 234.91) rotate(-90) scale(.96 1)"><tspan x="0" y="0">DECEMBER</tspan></text><text class="cls-31" transform="translate(490.4 449.99) rotate(-90) scale(.96 1)"><tspan x="0" y="0">2023</tspan></text><circle class="cls-38" cx="481.69" cy="381.23" r="1.65"/><circle class="cls-38" cx="482.68" cy="466.99" r="1.65"/></g></svg>