<svg id="Lent_Easter" data-name="Lent/Easter" xmlns="http://www.w3.org/2000/svg" xmlns:xlink="http://www.w3.org/1999/xlink" viewBox="0 0 927.6 666"><defs><style>.cls-1,.cls-20{fill:none;}.cls-2{fill:#fcc156;}.cls-3{fill:#ed8115;}.cls-3,.cls-4,.cls-5,.cls-6{opacity:0.53;}.cls-13,.cls-4,.cls-9{fill:#f3a628;}.cls-10,.cls-14,.cls-5{fill:#f28f23;}.cls-11,.cls-12,.cls-28,.cls-29,.cls-45,.cls-47,.cls-6,.cls-78,.cls-81{fill:#e87406;}.cls-7{opacity:0.35;}.cls-8{clip-path:url(#clip-path);}.cls-10,.cls-11,.cls-9{opacity:0.44;}.cls-15{font-size:18.36px;}.cls-15,.cls-21,.cls-30,.cls-31,.cls-32,.cls-33,.cls-37,.cls-46,.cls-48,.cls-49,.cls-80,.cls-85{fill:#fff;}.cls-15,.cls-33,.cls-81,.cls-85{font-family:MyriadPro-Bold, Myriad Pro;font-weight:700;}.cls-16{letter-spacing:-0.03em;}.cls-17{letter-spacing:0em;}.cls-18{letter-spacing:0em;}.cls-19{letter-spacing:0em;}.cls-20{stroke:#fff;}.cls-21{font-size:13.99px;}.cls-21,.cls-29,.cls-30,.cls-37,.cls-45,.cls-46{font-family:MyriadPro-Regular, Myriad Pro;}.cls-22{letter-spacing:0em;}.cls-23{letter-spacing:-0.08em;}.cls-24{letter-spacing:-0.01em;}.cls-25{letter-spacing:0em;}.cls-26{letter-spacing:-0.04em;}.cls-27{letter-spacing:-0.04em;}.cls-28,.cls-31{font-size:49.31px;letter-spacing:-0.02em;}.cls-28,.cls-31,.cls-47,.cls-48{font-family:KeepCalm-Medium, Keep Calm;}.cls-28,.cls-31,.cls-47,.cls-48,.cls-49{font-weight:500;}.cls-29,.cls-30{font-size:28.18px;}.cls-33{font-size:16.46px;}.cls-34{letter-spacing:-0.03em;}.cls-35{letter-spacing:0.01em;}.cls-36{letter-spacing:0em;}.cls-37{font-size:12.54px;}.cls-38{letter-spacing:0em;}.cls-39{letter-spacing:-0.08em;}.cls-40{letter-spacing:-0.01em;}.cls-41{letter-spacing:0em;}.cls-42{letter-spacing:0em;}.cls-43{letter-spacing:-0.04em;}.cls-44{letter-spacing:-0.03em;}.cls-45,.cls-46{font-size:14px;}.cls-47,.cls-48{font-size:64.03px;letter-spacing:-0.02em;}.cls-49{font-size:14.11px;font-family:Lato-Medium, Lato;}.cls-49,.cls-77{letter-spacing:-0.02em;}.cls-50{letter-spacing:0.02em;}.cls-51{letter-spacing:0.02em;}.cls-52{letter-spacing:-0.02em;}.cls-53{letter-spacing:0.11em;}.cls-54{letter-spacing:0.11em;}.cls-55{letter-spacing:-0.02em;}.cls-56{letter-spacing:-0.02em;}.cls-57{letter-spacing:-0.06em;}.cls-58{letter-spacing:-0.06em;}.cls-59{letter-spacing:0.06em;}.cls-60{letter-spacing:0.06em;}.cls-61{letter-spacing:0.1em;}.cls-62{letter-spacing:0.1em;}.cls-63{letter-spacing:0.04em;}.cls-64{letter-spacing:-0.05em;}.cls-65{letter-spacing:-0.05em;}.cls-66{letter-spacing:-0.04em;}.cls-67{letter-spacing:-0.04em;}.cls-68{letter-spacing:0em;}.cls-69{letter-spacing:0em;}.cls-70{letter-spacing:0.02em;}.cls-71{letter-spacing:-0.04em;}.cls-72{letter-spacing:-0.04em;}.cls-73{letter-spacing:0.07em;}.cls-74{letter-spacing:0.07em;}.cls-75{letter-spacing:-0.05em;}.cls-76{letter-spacing:4.27em;}.cls-78,.cls-80,.cls-81,.cls-85{font-size:25px;}.cls-78,.cls-80{font-family:Lato-Regular, Lato;}.cls-79{letter-spacing:-0.03em;}.cls-82{letter-spacing:-0.01em;}.cls-83{letter-spacing:-0.01em;}.cls-84{letter-spacing:-0.01em;}</style><clipPath id="clip-path"><rect class="cls-1" x="-108.67" y="89.89" width="615.18" height="623.4"/></clipPath></defs><title>cover_template_print</title><rect class="cls-2" x="-18.74" y="-23.07" width="981.31" height="718.11"/><path class="cls-3" d="M-9.95,117.39s-8.79,0-8.79,8.89V452.82s0,8.89,8.79,8.89H406.34s8.8,0,8.8-8.89V126.28s0-8.89-8.8-8.89Z"/><path class="cls-4" d="M591.89,178c8-23.65,16-46.11,23.24-68.8,2.47-7.71,6.82-6.7,12.3-5.17A443.87,443.87,0,0,1,716,138.93c97.26,51.48,171.68,128.15,227,225.6,38.36,67.58,62.57,140.42,71.49,218.4,3.85,33.74,4.84,67.79,1.16,101.74-1.13,10.49-1.25,10.73-11.39,10.21-20.59-1-41.16-2.53-61.74-3.57-6.18-.31-8.43-2.7-7.48-9.36,12.08-84.81-6.51-164-41.92-239.6-39.05-83.38-94.26-152.84-168-205.49-36.28-25.92-75.42-45.45-118.8-54.82-4.18-.9-8.26-2.3-14.44-4.06"/><path class="cls-5" d="M779.13,681.16c-2.37-4.44-1.58-7.46-1.22-10.37,6.91-57.13-5.37-110.5-30.12-161C718.77,450.57,678,402.39,622,369.25c-23.52-13.93-48.43-23.9-75.46-27.51-9.38-1.26-9.56-1.63-6.35-11.3,7.06-21.26,14.51-42.37,21.39-63.69,2-6.19,4.65-7.06,10.58-5.66C614,271,651.72,290.26,685.84,316.8,770.93,383,826.41,470,851.17,577.84a325.45,325.45,0,0,1,6.91,98.37c-.45,5.76-1.56,9.35-8.29,8.92-23.86-1.56-47.74-2.71-70.66-4"/><path class="cls-6" d="M656,673.27c-8.62-.47-17.25-1.38-25.87-1.28-7.6.09-9.42-3.36-9.79-10.84-2.9-57.54-26.39-104.72-67.34-142.74-15.92-14.78-34.2-25.66-53.91-34-9.64-4.08-9.74-4.14-6.63-13.48,5.51-16.53,11.44-32.91,16.64-49.55,2.27-7.27,4.68-8.91,12.28-6.14C572.5,433.87,612.92,467,644.1,512.68c29.11,42.66,44.65,90.38,47,142.73.9,20.09.85,20.09-17.88,19-5.74-.34-11.49-.63-17.24-.95v-.17"/><g class="cls-7"><g class="cls-8"><path class="cls-9" d="M27.59,192.79c8.05-23.65,16-46.12,23.25-68.81,2.47-7.7,6.81-6.7,12.3-5.17a443.58,443.58,0,0,1,88.55,34.93c97.27,51.47,171.68,128.15,227,225.6,38.35,67.57,62.57,140.41,71.49,218.4,3.85,33.74,4.83,67.79,1.16,101.74-1.13,10.49-1.25,10.73-11.39,10.21-20.59-1.05-41.16-2.53-61.75-3.57-6.17-.32-8.42-2.7-7.47-9.36,12.07-84.81-6.51-164-41.92-239.6-39.05-83.39-94.26-152.84-168-205.49C124.55,225.74,85.41,206.22,42,196.85c-4.18-.9-8.26-2.3-14.45-4.06"/><path class="cls-10" d="M214.83,696c-2.36-4.45-1.57-7.47-1.22-10.38,6.92-57.12-5.37-110.49-30.11-161-29-59.23-69.83-107.42-125.77-140.55-23.51-13.93-48.42-23.91-75.46-27.52-9.38-1.25-9.55-1.63-6.34-11.29C-17,324-9.56,302.88-2.69,281.56c2-6.19,4.65-7.06,10.59-5.66,41.84,9.88,79.52,29.17,113.65,55.71,85.09,66.18,140.57,153.17,165.33,261A325.54,325.54,0,0,1,293.79,691c-.45,5.76-1.57,9.35-8.3,8.91-23.85-1.55-47.73-2.7-70.66-4"/><path class="cls-11" d="M91.69,688.08c-8.62-.47-17.25-1.38-25.87-1.28-7.6.09-9.42-3.37-9.8-10.84-2.89-57.54-26.38-104.72-67.33-142.74-15.92-14.78-34.2-25.66-53.91-34-9.64-4.08-9.75-4.14-6.64-13.48,5.51-16.53,11.45-32.92,16.65-49.55,2.27-7.27,4.67-8.91,12.28-6.14C8.2,448.68,48.63,481.79,79.81,527.49c29.1,42.66,44.64,90.38,47,142.72.9,20.1.86,20.09-17.87,19-5.75-.34-11.5-.63-17.25-1v-.17"/></g></g><rect class="cls-5" x="-69.65" y="51.33" width="119.37" height="43.93"/><rect class="cls-5" x="335.31" y="52.11" width="3.31" height="44"/><rect class="cls-5" x="342.11" y="52.11" width="98.22" height="44"/><path class="cls-12" d="M619.27,161.49c0,3.22,0,6.43,0,9.65,0,1,.32,1.4,1.26,1.43a37.8,37.8,0,0,0,6,0,14.35,14.35,0,0,0,5.91-1.89c4.27-2.63,5.31-6.75,4.78-11.54-.44-3.93-3-6.71-7.06-7.89a25.49,25.49,0,0,0-9.57-.48c-1.06.1-1.36.5-1.34,1.54,0,3.08,0,6.16,0,9.23M604.21,174.9v-34c0-1.53,0-1.56,1.55-1.8,1.85-.3,3.71-.62,5.57-.8a110.56,110.56,0,0,1,17.26-.46,31.28,31.28,0,0,1,12.06,2.88c7.5,3.66,11.3,9.95,11.84,18.48a27.68,27.68,0,0,1-.59,7.91c-1.79,8-6.66,13-13.76,16a38.18,38.18,0,0,1-16,2.52c-2.9-.07-2.9-.06-2.9,3v20.13c0,2.41-.67,3.1-3,3.1-3.08,0-6.16,0-9.24,0-2.12,0-2.85-.79-2.85-3q0-17,0-34"/><path class="cls-12" d="M772.39,190.71a1.6,1.6,0,0,0,.61-1.11l8.25-29.76c.54-2,.55-2,2.58-2,3.69,0,7.37,0,11.06,0,1.89,0,2.84,1.31,2.19,3.09-5.37,14.9-10.28,30-16,44.72a94.79,94.79,0,0,1-6.46,13.71,34.42,34.42,0,0,1-12.28,12.7c-4.39,2.58-9.15,3.37-14.29,3.31-.09-3.09-.21-6.15-.26-9.21,0-1.32-.48-2.87.18-3.89s2.18-.85,3.32-1.23a21.25,21.25,0,0,0,12.41-10.63,3.94,3.94,0,0,0,.14-3.57q-8.7-22.63-17.3-45.32c-.26-.68-.8-1.34-.37-2.17a2.31,2.31,0,0,1,2.31-1.56c4,.11,7.9.09,11.85,0,1.15,0,1.61.38,2,1.51,3.17,10.08,6.41,20.13,9.63,30.19.13.39.29.76.45,1.16"/><path class="cls-12" d="M724.86,191.17v-3.5c0-.5-.22-.78-.73-.76-3.69.14-7.35.45-10.6,2.54a6.05,6.05,0,0,0-2.58,3.36c-1.08,3.41.32,6.81,3.2,7.75,4.28,1.4,9.52-1.67,10.56-6.21a15.77,15.77,0,0,0,.15-3.18m1.12,17c-.73.13-1.09.69-1.59,1a19.54,19.54,0,0,1-18,2.87c-7.59-2.45-11.57-10.06-10.76-17.81A17.71,17.71,0,0,1,705,180a34.07,34.07,0,0,1,13.42-4c2-.22,4-.34,6-.51a5.73,5.73,0,0,0-3.67-5.87c-2.5-1.08-5.12-.94-7.72-.6a23.37,23.37,0,0,0-8.38,2.75c-1.58.87-2.87.31-3.4-1.44-.7-2.33-1.32-4.69-2-7a1.49,1.49,0,0,1,.78-2,32.3,32.3,0,0,1,11.74-4.08,33.38,33.38,0,0,1,13.17.23c8,1.92,13.06,7.52,14.45,16a39.8,39.8,0,0,1,.47,6.26c0,7.14,0,14.27,0,21.4a66,66,0,0,0,.52,7.94,2.31,2.31,0,0,1-2.3,2.88c-3.35,0-6.7,0-10,0-1.07,0-1.43-.43-1.52-1.43a5.12,5.12,0,0,0-.48-2.36"/><path class="cls-13" d="M805,97.19c1-3.35,1.9-6.55,2.76-9.76.29-1.1.9-1,1.67-.82a61.43,61.43,0,0,1,12.59,4.19c13.92,6.44,24.83,16.56,33.22,29.72a79.26,79.26,0,0,1,11.5,29.9,64,64,0,0,1,.87,14.17c-.08,1.47-.1,1.51-1.51,1.51-2.88,0-5.76,0-8.64,0-.86,0-1.19-.31-1.11-1.24,1.1-11.92-2-22.81-7.51-33.08A71.55,71.55,0,0,0,824,104.38a44.68,44.68,0,0,0-16.94-6.73c-.59-.09-1.17-.26-2-.46"/><path class="cls-12" d="M674.81,163.42c.82-.29,1.08-1,1.53-1.46,3.91-4.2,8.54-6.08,14.18-4.93.82.17,1.12.47,1.12,1.34,0,3.77,0,7.55,0,11.32a2.1,2.1,0,0,1-2.65,2.2,12.69,12.69,0,0,0-4.6.06c-4.1,1-6.38,3.86-7.33,8a21.88,21.88,0,0,0-.47,5c0,7.9,0,15.79,0,23.69,0,2.69-.59,3.29-3.18,3.29-3,0-6,0-9,0-2.23,0-3-.8-3-3.11q0-17.93,0-35.85c0-4.12,0-8.24-.31-12.36a2.22,2.22,0,0,1,2.28-2.69c3.35,0,6.7,0,10,0,1,0,1.22.45,1.22,1.38a21.94,21.94,0,0,0,.23,4.18"/><path class="cls-12" d="M590.61,185V208.7c0,2.61-.55,3.18-3.06,3.18-3.15,0-6.29,0-9.44,0-2,0-2.75-.87-2.75-2.94q0-24.09,0-48.2c0-2,.8-2.82,2.61-2.84,3.35,0,6.69,0,10,0,1.93,0,2.59.72,2.6,2.8q0,12.17,0,24.31"/><path class="cls-14" d="M834.65,165.91a2,2,0,0,1-.24-1.44,39.38,39.38,0,0,0-5.33-22.21c-4.46-8-10.48-14.44-18.51-18.64a27.65,27.65,0,0,0-10.71-3.25c-1.32-.11-1.35-.16-1-1.53.84-3,1.73-6,2.54-9,.23-.88.6-1,1.43-.87a40.93,40.93,0,0,1,16.24,6.9A62.19,62.19,0,0,1,844,151a45.25,45.25,0,0,1,1.65,13.66c0,.81-.15,1.32-1.09,1.31-3.34,0-6.68,0-9.88,0"/><path class="cls-12" d="M817.43,165.75c-1.21,0-2.42-.07-3.62,0s-1.33-.39-1.44-1.43A28.09,28.09,0,0,0,802,144.94a25.22,25.22,0,0,0-7.76-4.32c-1.37-.5-1.38-.5-1-1.83.65-2.35,1.36-4.68,2-7,.27-1,.59-1.28,1.67-.95a34.63,34.63,0,0,1,17.79,12.64A37.56,37.56,0,0,1,822.2,163c.26,2.79.26,2.79-2.36,2.78h-2.41Z"/><path class="cls-12" d="M582.88,153.41a8,8,0,0,1-8.2-8.36,8.34,8.34,0,1,1,16.67.06,8,8,0,0,1-8.47,8.3"/><text class="cls-15" transform="translate(614.18 234.59) scale(0.96 1)"><tspan class="cls-16">W</tspan><tspan x="15.82" y="0">ith the </tspan><tspan class="cls-17" x="72.95" y="0">G</tspan><tspan x="85.56" y="0">os</tspan><tspan class="cls-18" x="104.11" y="0">p</tspan><tspan class="cls-19" x="115.15" y="0">el</tspan></text><line class="cls-20" x1="557.26" y1="240.37" x2="807.44" y2="240.37"/><text class="cls-21" transform="translate(571.05 256.41) scale(0.96 1)">P<tspan class="cls-22" x="7.44" y="0">R</tspan><tspan class="cls-23" x="15.03" y="0">A</tspan><tspan class="cls-24" x="22.49" y="0">Y</tspan><tspan x="29.97" y="0">ER RESOU</tspan><tspan class="cls-25" x="87.32" y="0">R</tspan><tspan x="94.88" y="0">CES FOR</tspan><tspan class="cls-26" x="143.7" y="0"> </tspan><tspan class="cls-27" x="146.04" y="0">Y</tspan><tspan x="153.11" y="0">OUNG PEOPLE</tspan></text><path class="cls-13" d="M312.92,480.46c.86-3,1.71-5.87,2.48-8.76.26-1,.81-.88,1.5-.73a55.65,55.65,0,0,1,11.29,3.76c12.48,5.77,22.27,14.85,29.79,26.65a71,71,0,0,1,10.31,26.82,58.1,58.1,0,0,1,.79,12.71c-.08,1.31-.1,1.35-1.37,1.35-2.58,0-5.16,0-7.74,0-.77,0-1.07-.28-1-1.12,1-10.69-1.84-20.46-6.74-29.67A64.25,64.25,0,0,0,330,486.91a40,40,0,0,0-15.2-6c-.52-.08-1-.23-1.83-.41"/><path class="cls-14" d="M339.49,542.08a1.76,1.76,0,0,1-.22-1.28,35.24,35.24,0,0,0-4.78-19.92,40.21,40.21,0,0,0-16.6-16.71,24.93,24.93,0,0,0-9.6-2.93c-1.18-.09-1.21-.13-.87-1.37.75-2.7,1.55-5.39,2.27-8.1.22-.79.54-.92,1.29-.78a36.74,36.74,0,0,1,14.56,6.18,55.85,55.85,0,0,1,22.31,31.5,41.14,41.14,0,0,1,1.48,12.26c0,.72-.14,1.17-1,1.17-3,0-6,0-8.86,0"/><path class="cls-12" d="M324,541.94c-1.08,0-2.16-.06-3.24,0s-1.2-.36-1.29-1.29a25.21,25.21,0,0,0-9.32-17.39,22.87,22.87,0,0,0-6.95-3.88c-1.23-.44-1.24-.45-.91-1.64.58-2.1,1.22-4.19,1.77-6.3.24-.93.53-1.15,1.5-.85A31,31,0,0,1,321.55,522a33.58,33.58,0,0,1,6.77,17.52c.24,2.5.23,2.5-2.12,2.49H324Z"/><line class="cls-20" x1="89.66" y1="608.86" x2="314.02" y2="608.86"/><text class="cls-28" transform="translate(72.74 95.61) scale(0.96 1.11)">2020</text><text class="cls-29" transform="translate(230.45 74.17) scale(0.96 1)">LENT</text><text class="cls-29" transform="translate(230.45 95.83) scale(0.96 1)">EASTER</text><text class="cls-30" transform="translate(229.15 74.2) scale(0.96 1)">LENT</text><text class="cls-30" transform="translate(229.15 95.87) scale(0.96 1)">EASTER</text><text class="cls-31" transform="translate(70.59 95.16) scale(0.96 1.11)">2020</text><path class="cls-32" d="M615.64,160.65c0,3.22,0,6.44,0,9.65,0,1,.33,1.4,1.26,1.44a39,39,0,0,0,6-.06,14.49,14.49,0,0,0,5.91-1.88c4.27-2.64,5.31-6.75,4.78-11.54-.44-3.94-3-6.72-7.06-7.9a25.49,25.49,0,0,0-9.57-.47c-1.06.09-1.36.49-1.34,1.53,0,3.08,0,6.16,0,9.23m-15.06,13.42V141.34c0-.41,0-.83,0-1.25,0-1.54,0-1.57,1.54-1.81,1.86-.3,3.71-.61,5.57-.8A111.79,111.79,0,0,1,625,137,31.28,31.28,0,0,1,637,139.9c7.5,3.66,11.31,9.95,11.85,18.48a28,28,0,0,1-.6,7.91c-1.79,8-6.66,13-13.76,16a38.17,38.17,0,0,1-16,2.53c-2.9-.08-2.9-.07-2.9,3q0,10.07,0,20.14c0,2.41-.66,3.09-3,3.1q-4.62,0-9.24,0c-2.12,0-2.85-.79-2.85-3q0-17,0-34"/><path class="cls-32" d="M768.76,189.87a1.64,1.64,0,0,0,.62-1.1q4.11-14.9,8.24-29.77c.54-1.95.55-1.95,2.59-1.95,3.68,0,7.36,0,11,0,1.89,0,2.84,1.31,2.19,3.1-5.37,14.89-10.28,30-16,44.72a94.68,94.68,0,0,1-6.46,13.7,34.47,34.47,0,0,1-12.27,12.7c-4.4,2.59-9.16,3.37-14.3,3.31-.09-3.09-.21-6.15-.26-9.21,0-1.32-.48-2.87.18-3.89s2.18-.85,3.32-1.23a21.16,21.16,0,0,0,12.41-10.63,4,4,0,0,0,.15-3.56q-8.72-22.65-17.31-45.32c-.26-.68-.8-1.34-.37-2.17a2.29,2.29,0,0,1,2.31-1.56c3.95.1,7.91.08,11.86,0,1.14,0,1.6.37,2,1.5,3.17,10.08,6.41,20.13,9.63,30.19.13.39.29.77.45,1.16"/><path class="cls-32" d="M721.23,190.33v-3.5c0-.5-.21-.78-.73-.76-3.69.15-7.35.45-10.6,2.54a6.12,6.12,0,0,0-2.58,3.37c-1.08,3.4.32,6.8,3.2,7.74,4.29,1.4,9.52-1.67,10.56-6.2a14.51,14.51,0,0,0,.15-3.19m1.13,17c-.74.13-1.1.68-1.59,1a19.59,19.59,0,0,1-18,2.86c-7.59-2.44-11.56-10.06-10.76-17.81a17.71,17.71,0,0,1,9.32-14.27,34.08,34.08,0,0,1,13.42-4c2-.21,4-.34,6-.5a5.74,5.74,0,0,0-3.68-5.87c-2.5-1.09-5.12-1-7.72-.61a23.71,23.71,0,0,0-8.37,2.75c-1.58.88-2.88.31-3.41-1.44-.69-2.33-1.32-4.69-2-7a1.48,1.48,0,0,1,.78-2A32.18,32.18,0,0,1,708,156.37a33.62,33.62,0,0,1,13.18.22c8,1.92,13,7.52,14.44,16a38.55,38.55,0,0,1,.47,6.26c0,7.13,0,14.26,0,21.39a65.88,65.88,0,0,0,.52,7.94,2.31,2.31,0,0,1-2.3,2.88c-3.34,0-6.69,0-10,0-1.07,0-1.43-.43-1.52-1.43a5.09,5.09,0,0,0-.47-2.35"/><path class="cls-32" d="M671.18,162.58c.82-.28,1.08-1,1.53-1.46,3.91-4.2,8.55-6.08,14.18-4.93.82.17,1.13.48,1.12,1.34,0,3.78,0,7.55,0,11.32a2.12,2.12,0,0,1-2.66,2.21,12.48,12.48,0,0,0-4.6.05c-4.09,1-6.38,3.86-7.33,8a22.57,22.57,0,0,0-.47,5c0,7.9,0,15.8,0,23.69,0,2.69-.59,3.29-3.18,3.3h-9c-2.23,0-3-.8-3-3.12,0-12,0-23.9,0-35.85,0-4.12,0-8.24-.31-12.36a2.22,2.22,0,0,1,2.28-2.69c3.35,0,6.7,0,10,0,1,0,1.22.44,1.22,1.37a21.94,21.94,0,0,0,.23,4.18"/><path class="cls-32" d="M587,184.18q0,11.83,0,23.68c0,2.61-.55,3.18-3.06,3.18-3.14,0-6.29,0-9.43,0-2,0-2.76-.87-2.76-2.93q0-24.11,0-48.21c0-2,.8-2.82,2.61-2.83,3.35,0,6.69,0,10,0,1.94,0,2.6.72,2.6,2.8q0,12.15,0,24.31"/><path class="cls-32" d="M579.25,152.57a8,8,0,0,1-8.2-8.36,8.34,8.34,0,1,1,16.67.06,8,8,0,0,1-8.47,8.3"/><path class="cls-12" d="M144.25,536.46c0,2.88,0,5.77,0,8.65,0,.87.29,1.26,1.13,1.29a33.57,33.57,0,0,0,5.4,0,13,13,0,0,0,5.3-1.69c3.83-2.37,4.76-6.06,4.28-10.35-.39-3.53-2.65-6-6.33-7.08a23,23,0,0,0-8.58-.43c-1,.09-1.22.45-1.2,1.38,0,2.76,0,5.52,0,8.28m-13.5,12V519.14c0-.37,0-.75,0-1.13,0-1.37,0-1.4,1.39-1.62,1.66-.26,3.32-.55,5-.71a100,100,0,0,1,15.48-.41,27.87,27.87,0,0,1,10.81,2.58c6.73,3.28,10.14,8.92,10.62,16.57a24.58,24.58,0,0,1-.53,7.1c-1.61,7.13-6,11.69-12.34,14.33a34.3,34.3,0,0,1-14.31,2.27c-2.6-.07-2.6-.06-2.6,2.72q0,9,0,18.06c0,2.16-.59,2.77-2.66,2.78q-4.14,0-8.29,0c-1.89,0-2.55-.71-2.55-2.72q0-15.24,0-30.47"/><path class="cls-12" d="M281.56,562.66a1.43,1.43,0,0,0,.56-1q3.69-13.35,7.39-26.69c.49-1.75.5-1.75,2.32-1.75,3.31,0,6.61,0,9.91,0a1.91,1.91,0,0,1,2,2.78c-4.82,13.35-9.22,26.87-14.34,40.1a85.68,85.68,0,0,1-5.8,12.29,30.92,30.92,0,0,1-11,11.39c-3.94,2.32-8.21,3-12.82,3-.08-2.77-.19-5.52-.23-8.26,0-1.18-.44-2.58.16-3.49s1.95-.76,3-1.11a19,19,0,0,0,11.12-9.53,3.49,3.49,0,0,0,.13-3.19q-7.8-20.31-15.52-40.65c-.23-.61-.71-1.2-.33-1.94a2.07,2.07,0,0,1,2.07-1.4c3.55.1,7.09.08,10.64,0,1,0,1.44.33,1.75,1.35,2.85,9,5.75,18.05,8.64,27.07.12.35.27.69.4,1"/><path class="cls-12" d="M238.94,563.07v-3.14c0-.44-.19-.69-.65-.67-3.31.12-6.59.4-9.51,2.27a5.41,5.41,0,0,0-2.31,3c-1,3.05.29,6.1,2.87,6.94,3.84,1.26,8.54-1.49,9.47-5.56a13.9,13.9,0,0,0,.13-2.86m1,15.24c-.66.11-1,.61-1.42.92a17.53,17.53,0,0,1-16.15,2.57c-6.81-2.19-10.37-9-9.65-16a15.87,15.87,0,0,1,8.36-12.8,30.48,30.48,0,0,1,12-3.58c1.79-.19,3.58-.3,5.37-.45a5.13,5.13,0,0,0-3.29-5.26,12.8,12.8,0,0,0-6.93-.55,21.1,21.1,0,0,0-7.51,2.47,1.92,1.92,0,0,1-3-1.29c-.63-2.09-1.19-4.21-1.83-6.29a1.34,1.34,0,0,1,.7-1.81,29,29,0,0,1,10.52-3.65,30.15,30.15,0,0,1,11.82.19c7.18,1.73,11.71,6.75,13,14.36a34,34,0,0,1,.42,5.61c0,6.4,0,12.8.05,19.19a58.44,58.44,0,0,0,.47,7.12,2.07,2.07,0,0,1-2.06,2.58c-3,0-6,0-9,0-1,0-1.28-.39-1.36-1.28a4.67,4.67,0,0,0-.43-2.11"/><path class="cls-12" d="M194.06,538.19c.74-.26,1-.88,1.37-1.31,3.51-3.77,7.66-5.45,12.71-4.42.74.15,1,.42,1,1.2,0,3.39,0,6.77,0,10.15a1.9,1.9,0,0,1-2.39,2,11.41,11.41,0,0,0-4.12.05c-3.67.89-5.72,3.46-6.57,7.17a19.09,19.09,0,0,0-.42,4.47c0,7.08,0,14.16,0,21.25,0,2.4-.53,2.95-2.86,2.95-2.7,0-5.4,0-8.1,0-2,0-2.69-.72-2.69-2.8q0-16.07,0-32.14c0-3.7,0-7.4-.28-11.09a2,2,0,0,1,2-2.41c3,0,6,0,9,0,.92,0,1.09.4,1.09,1.23a19.85,19.85,0,0,0,.21,3.75"/><path class="cls-12" d="M118.55,557.55v21.24c0,2.34-.5,2.86-2.75,2.86-2.82,0-5.64,0-8.46,0-1.75,0-2.47-.78-2.47-2.64q0-21.6,0-43.22c0-1.76.72-2.54,2.34-2.55,3,0,6,0,9,0,1.74,0,2.33.65,2.33,2.51q0,10.9,0,21.8"/><path class="cls-12" d="M111.62,529.21a7.19,7.19,0,0,1-7.36-7.5,7.48,7.48,0,1,1,14.95.06,7.2,7.2,0,0,1-7.59,7.44"/><text class="cls-33" transform="translate(138.18 602.01) scale(0.96 1)"><tspan class="cls-34">W</tspan><tspan x="14.19" y="0">ith the </tspan><tspan class="cls-35" x="65.42" y="0">G</tspan><tspan x="76.73" y="0">os</tspan><tspan class="cls-36" x="93.37" y="0">p</tspan><tspan x="103.26" y="0">el</tspan></text><text class="cls-37" transform="translate(96.35 622.71) scale(0.96 1)">P<tspan class="cls-38" x="6.67" y="0">R</tspan><tspan class="cls-39" x="13.48" y="0">A</tspan><tspan class="cls-40" x="20.17" y="0">Y</tspan><tspan x="26.88" y="0">ER RESOU</tspan><tspan class="cls-41" x="78.31" y="0">R</tspan><tspan class="cls-42" x="85.09" y="0">CES FOR</tspan><tspan class="cls-43" x="128.87" y="0"> </tspan><tspan class="cls-44" x="130.96" y="0">Y</tspan><tspan x="137.31" y="0">OUNG PEOPLE</tspan></text><path class="cls-32" d="M141,535.71c0,2.88,0,5.77,0,8.65,0,.87.29,1.26,1.13,1.29a34.76,34.76,0,0,0,5.4,0,13.09,13.09,0,0,0,5.3-1.69c3.83-2.37,4.76-6.06,4.28-10.35-.39-3.53-2.65-6-6.33-7.08a23,23,0,0,0-8.58-.43c-1,.09-1.22.45-1.2,1.38,0,2.76,0,5.52,0,8.28m-13.5,12V517.26c0-1.37,0-1.4,1.39-1.62,1.66-.26,3.32-.55,5-.71a99.91,99.91,0,0,1,15.47-.41,27.92,27.92,0,0,1,10.82,2.58c6.73,3.28,10.14,8.92,10.62,16.57a24.94,24.94,0,0,1-.53,7.1c-1.61,7.13-6,11.69-12.34,14.33a34.35,34.35,0,0,1-14.32,2.27c-2.6-.07-2.6-.06-2.6,2.72q0,9,0,18.06c0,2.16-.59,2.77-2.66,2.78-2.76,0-5.53,0-8.29,0-1.89,0-2.55-.71-2.55-2.72q0-15.24,0-30.47"/><path class="cls-32" d="M278.31,561.91a1.38,1.38,0,0,0,.55-1q3.7-13.35,7.4-26.69c.48-1.76.49-1.76,2.32-1.76,3.3,0,6.61,0,9.91,0a1.91,1.91,0,0,1,2,2.78c-4.82,13.35-9.22,26.87-14.35,40.1a84.57,84.57,0,0,1-5.79,12.29,30.94,30.94,0,0,1-11,11.39c-3.93,2.32-8.21,3-12.81,3-.09-2.77-.19-5.52-.24-8.26,0-1.18-.43-2.58.16-3.49s2-.77,3-1.11a19,19,0,0,0,11.13-9.53,3.49,3.49,0,0,0,.13-3.19q-7.8-20.31-15.52-40.65c-.23-.61-.72-1.2-.33-1.94a2.05,2.05,0,0,1,2.07-1.4c3.54.1,7.09.08,10.63,0,1,0,1.44.33,1.76,1.35,2.84,9,5.75,18.05,8.64,27.07.11.35.26.69.4,1"/><path class="cls-32" d="M235.69,562.32v-3.14c0-.44-.19-.69-.65-.67-3.31.12-6.59.4-9.52,2.27a5.43,5.43,0,0,0-2.3,3c-1,3.05.28,6.1,2.86,6.94,3.85,1.26,8.54-1.49,9.47-5.56a13.3,13.3,0,0,0,.14-2.86m1,15.24c-.66.11-1,.61-1.43.92a17.53,17.53,0,0,1-16.15,2.57c-6.8-2.19-10.37-9-9.65-16a15.92,15.92,0,0,1,8.36-12.8,30.53,30.53,0,0,1,12-3.58c1.78-.19,3.58-.3,5.37-.45a5.16,5.16,0,0,0-3.3-5.27,12.87,12.87,0,0,0-6.92-.54,21,21,0,0,0-7.51,2.47,1.92,1.92,0,0,1-3-1.29c-.63-2.09-1.19-4.21-1.83-6.29a1.34,1.34,0,0,1,.69-1.81,29,29,0,0,1,10.53-3.66,30.35,30.35,0,0,1,11.82.2c7.18,1.73,11.7,6.75,13,14.36A35.14,35.14,0,0,1,249,552c0,6.4,0,12.8.05,19.19a58.44,58.44,0,0,0,.47,7.12,2.08,2.08,0,0,1-2.07,2.58c-3,0-6,0-9,0-.95,0-1.28-.39-1.35-1.28a4.67,4.67,0,0,0-.43-2.11"/><path class="cls-32" d="M190.8,537.44c.74-.26,1-.88,1.37-1.31,3.51-3.77,7.67-5.45,12.72-4.42.74.15,1,.42,1,1.2,0,3.39,0,6.77,0,10.15a1.89,1.89,0,0,1-2.38,2,11.19,11.19,0,0,0-4.12.05c-3.67.89-5.72,3.46-6.57,7.17a19.65,19.65,0,0,0-.43,4.47q0,10.62,0,21.25c0,2.4-.52,2.95-2.85,2.95-2.7,0-5.4,0-8.1,0-2,0-2.69-.72-2.69-2.8,0-10.71,0-21.43,0-32.14,0-3.7,0-7.4-.27-11.09a2,2,0,0,1,2-2.41c3,0,6,0,9,0,.92,0,1.08.4,1.09,1.23a19.83,19.83,0,0,0,.2,3.75"/><path class="cls-32" d="M115.29,556.8q0,10.62,0,21.24c0,2.34-.49,2.86-2.74,2.86-2.82,0-5.64,0-8.46,0-1.75,0-2.47-.78-2.47-2.64q0-21.6,0-43.22c0-1.76.71-2.54,2.34-2.55,3,0,6,0,9,0,1.74,0,2.33.65,2.33,2.51q0,10.9,0,21.8"/><path class="cls-32" d="M108.36,528.46A7.18,7.18,0,0,1,101,521,7.47,7.47,0,1,1,116,521a7.2,7.2,0,0,1-7.59,7.44"/><text class="cls-45" transform="translate(288.59 75.07) scale(0.96 1)">AND</text><text class="cls-46" transform="translate(289.16 74.83) scale(0.96 1)">AND</text><text class="cls-47" transform="translate(551.31 585.71) scale(0.96 1.11)">2020</text><text class="cls-48" transform="translate(548.51 583.08) scale(0.96 1.11)">2020</text><text class="cls-49" transform="translate(59.54 148.79) scale(0.96 1.11)">«“My<tspan class="cls-50" x="30.78" y="0"> </tspan><tspan x="34.56" y="0">friends,</tspan><tspan class="cls-51" x="78.65" y="0"> </tspan><tspan x="82.43" y="0">Jesus</tspan><tspan class="cls-50" x="114.7" y="0"> </tspan><tspan x="118.48" y="0">is</tspan><tspan class="cls-51" x="127.51" y="0"> </tspan><tspan x="131.29" y="0">the</tspan><tspan class="cls-50" x="150.96" y="0"> </tspan><tspan x="154.74" y="0">Lord</tspan><tspan class="cls-51" x="182.06" y="0"> </tspan><tspan x="185.84" y="0">of</tspan><tspan class="cls-50" x="198.31" y="0"> </tspan><tspan x="202.09" y="0">risk,</tspan><tspan class="cls-51" x="225.98" y="0"> </tspan><tspan x="229.76" y="0">he</tspan><tspan class="cls-50" x="244.59" y="0"> </tspan><tspan x="248.37" y="0">is</tspan><tspan class="cls-51" x="257.4" y="0"> </tspan><tspan x="261.18" y="0">the</tspan><tspan class="cls-51" x="280.84" y="0"> </tspan><tspan class="cls-52" x="284.62" y="0">Lord</tspan><tspan class="cls-51" x="311.95" y="0"> </tspan><tspan x="315.73" y="0">of</tspan><tspan class="cls-51" x="328.19" y="0"> </tspan><tspan x="331.97" y="0">the </tspan><tspan x="-26.65" y="14.11">eternal</tspan><tspan class="cls-53" x="15.01" y="14.11"> </tspan><tspan x="20.15" y="14.11">“more”.</tspan><tspan class="cls-53" x="64.39" y="14.11"> </tspan><tspan x="69.53" y="14.11">Jesus</tspan><tspan class="cls-53" x="101.8" y="14.11"> </tspan><tspan x="106.94" y="14.11">is</tspan><tspan class="cls-54" x="115.97" y="14.11"> </tspan><tspan x="121.11" y="14.11">not</tspan><tspan class="cls-53" x="141.34" y="14.11"> </tspan><tspan x="146.48" y="14.11">the</tspan><tspan class="cls-53" x="166.15" y="14.11"> </tspan><tspan x="171.29" y="14.11">Lord</tspan><tspan class="cls-53" x="198.61" y="14.11"> </tspan><tspan x="203.75" y="14.11">of</tspan><tspan class="cls-53" x="216.22" y="14.11"> </tspan><tspan x="221.36" y="14.11">comfort,</tspan><tspan class="cls-53" x="272.17" y="14.11"> </tspan><tspan x="277.31" y="14.11">security</tspan><tspan class="cls-54" x="324.43" y="14.11"> </tspan><tspan x="329.57" y="14.11">and </tspan><tspan x="-26.65" y="28.22">ease.</tspan><tspan class="cls-55" x="3.46" y="28.22"> </tspan><tspan x="6.78" y="28.22">Following</tspan><tspan class="cls-56" x="64.98" y="28.22"> </tspan><tspan x="68.3" y="28.22">Jesus</tspan><tspan class="cls-55" x="100.57" y="28.22"> </tspan><tspan x="103.9" y="28.22">demands</tspan><tspan class="cls-56" x="158.09" y="28.22"> </tspan><tspan x="161.41" y="28.22">a</tspan><tspan class="cls-55" x="168.19" y="28.22"> </tspan><tspan x="171.51" y="28.22">good</tspan><tspan class="cls-56" x="201.79" y="28.22"> </tspan><tspan x="205.11" y="28.22">dose</tspan><tspan class="cls-55" x="233.6" y="28.22"> </tspan><tspan x="236.92" y="28.22">of</tspan><tspan class="cls-56" x="249.39" y="28.22"> </tspan><tspan x="252.71" y="28.22">courage,</tspan><tspan class="cls-55" x="303.52" y="28.22"> </tspan><tspan x="306.84" y="28.22">a</tspan><tspan class="cls-56" x="313.62" y="28.22"> </tspan><tspan x="316.94" y="28.22">readi</tspan><tspan x="346.66" y="28.22">-</tspan><tspan x="-26.65" y="42.33">ness</tspan><tspan class="cls-57" x="-0.1" y="42.33"> </tspan><tspan x="2.59" y="42.33">to</tspan><tspan class="cls-57" x="15.19" y="42.33"> </tspan><tspan class="cls-52" x="17.88" y="42.33">trade</tspan><tspan class="cls-57" x="49.26" y="42.33"> </tspan><tspan x="51.95" y="42.33">in</tspan><tspan class="cls-57" x="62.74" y="42.33"> </tspan><tspan x="65.43" y="42.33">the</tspan><tspan class="cls-57" x="85.1" y="42.33"> </tspan><tspan x="87.79" y="42.33">sofa</tspan><tspan class="cls-58" x="112.89" y="42.33"> </tspan><tspan x="115.58" y="42.33">for</tspan><tspan class="cls-57" x="132.95" y="42.33"> </tspan><tspan x="135.64" y="42.33">a</tspan><tspan class="cls-57" x="142.42" y="42.33"> </tspan><tspan x="145.1" y="42.33">pair</tspan><tspan class="cls-57" x="167.62" y="42.33"> </tspan><tspan x="170.31" y="42.33">of</tspan><tspan class="cls-57" x="182.77" y="42.33"> </tspan><tspan class="cls-52" x="185.46" y="42.33">walking</tspan><tspan class="cls-57" x="231.1" y="42.33"> </tspan><tspan x="233.79" y="42.33">shoes</tspan><tspan class="cls-57" x="268.1" y="42.33"> </tspan><tspan x="270.79" y="42.33">and</tspan><tspan class="cls-57" x="292.86" y="42.33"> </tspan><tspan x="295.54" y="42.33">to</tspan><tspan class="cls-58" x="308.14" y="42.33"> </tspan><tspan x="310.83" y="42.33">set</tspan><tspan class="cls-57" x="328.73" y="42.33"> </tspan><tspan x="331.42" y="42.33">out </tspan><tspan x="-26.65" y="56.44">on</tspan><tspan class="cls-59" x="-11.27" y="56.44"> </tspan><tspan x="-6.92" y="56.44">new</tspan><tspan class="cls-60" x="18.78" y="56.44"> </tspan><tspan x="23.13" y="56.44">and</tspan><tspan class="cls-59" x="45.2" y="56.44"> </tspan><tspan x="49.54" y="56.44">uncharted</tspan><tspan class="cls-60" x="110.29" y="56.44"> </tspan><tspan x="114.63" y="56.44">paths.</tspan><tspan class="cls-59" x="150.47" y="56.44"> </tspan><tspan x="154.82" y="56.44">To</tspan><tspan class="cls-59" x="170.68" y="56.44"> </tspan><tspan x="175.03" y="56.44">blaze</tspan><tspan class="cls-60" x="205.91" y="56.44"> </tspan><tspan x="210.26" y="56.44">trails</tspan><tspan class="cls-59" x="238.92" y="56.44"> </tspan><tspan x="243.26" y="56.44">that</tspan><tspan class="cls-60" x="267.35" y="56.44"> </tspan><tspan x="271.7" y="56.44">open</tspan><tspan class="cls-59" x="301.96" y="56.44"> </tspan><tspan x="306.3" y="56.44">up</tspan><tspan class="cls-59" x="321.59" y="56.44"> </tspan><tspan x="325.94" y="56.44">new </tspan><tspan x="-26.65" y="70.55">horizons capable of spreading joy.”</tspan><tspan x="0" y="88.89">“God</tspan><tspan class="cls-61" x="30.41" y="88.89"> </tspan><tspan x="35.33" y="88.89">expects</tspan><tspan class="cls-62" x="81.43" y="88.89"> </tspan><tspan x="86.34" y="88.89">something</tspan><tspan class="cls-62" x="148.92" y="88.89"> </tspan><tspan x="153.83" y="88.89">from</tspan><tspan class="cls-61" x="182.6" y="88.89"> </tspan><tspan x="187.51" y="88.89">you,</tspan><tspan class="cls-62" x="212.9" y="88.89"> </tspan><tspan x="217.81" y="88.89">God</tspan><tspan class="cls-61" x="243.26" y="88.89"> </tspan><tspan x="248.17" y="88.89">wants</tspan><tspan class="cls-62" x="284.15" y="88.89"> </tspan><tspan x="289.06" y="88.89">something </tspan><tspan x="-26.65" y="103">from</tspan><tspan class="cls-63" x="2.11" y="103"> </tspan><tspan x="6.17" y="103">you.</tspan><tspan class="cls-63" x="31.66" y="103"> </tspan><tspan x="35.72" y="103">God</tspan><tspan class="cls-63" x="61.16" y="103"> </tspan><tspan x="65.22" y="103">hopes</tspan><tspan class="cls-63" x="101.35" y="103"> </tspan><tspan x="105.4" y="103">in</tspan><tspan class="cls-63" x="116.2" y="103"> </tspan><tspan x="120.26" y="103">you.</tspan><tspan class="cls-63" x="145.75" y="103"> </tspan><tspan x="149.81" y="103">God</tspan><tspan class="cls-63" x="175.25" y="103"> </tspan><tspan x="179.31" y="103">comes</tspan><tspan class="cls-63" x="218.02" y="103"> </tspan><tspan x="222.08" y="103">to</tspan><tspan class="cls-63" x="234.67" y="103"> </tspan><tspan x="238.73" y="103">break</tspan><tspan class="cls-63" x="272.27" y="103"> </tspan><tspan x="276.33" y="103">down</tspan><tspan class="cls-63" x="310.25" y="103"> </tspan><tspan x="314.31" y="103">all</tspan><tspan class="cls-63" x="327.3" y="103"> </tspan><tspan class="cls-52" x="331.36" y="103">our </tspan><tspan x="-26.65" y="117.11">fences.</tspan><tspan class="cls-64" x="15.49" y="117.11"> </tspan><tspan x="18.31" y="117.11">He</tspan><tspan class="cls-65" x="36.05" y="117.11"> </tspan><tspan x="38.86" y="117.11">comes</tspan><tspan class="cls-65" x="77.57" y="117.11"> </tspan><tspan x="80.38" y="117.11">to</tspan><tspan class="cls-64" x="92.98" y="117.11"> </tspan><tspan x="95.8" y="117.11">open</tspan><tspan class="cls-64" x="126.06" y="117.11"> </tspan><tspan x="128.87" y="117.11">the</tspan><tspan class="cls-65" x="148.54" y="117.11"> </tspan><tspan x="151.36" y="117.11">doors</tspan><tspan class="cls-64" x="185.31" y="117.11"> </tspan><tspan x="188.12" y="117.11">of</tspan><tspan class="cls-64" x="200.59" y="117.11"> </tspan><tspan x="203.41" y="117.11">our</tspan><tspan class="cls-65" x="223.69" y="117.11"> </tspan><tspan x="226.5" y="117.11">lives,</tspan><tspan class="cls-64" x="255.86" y="117.11"> </tspan><tspan x="258.68" y="117.11">our</tspan><tspan class="cls-64" x="278.96" y="117.11"> </tspan><tspan x="281.78" y="117.11">dreams,</tspan><tspan class="cls-64" x="328.54" y="117.11"> </tspan><tspan x="331.36" y="117.11">our </tspan><tspan x="-26.65" y="131.22">ways</tspan><tspan class="cls-66" x="3.91" y="131.22"> </tspan><tspan x="6.85" y="131.22">of</tspan><tspan class="cls-67" x="19.32" y="131.22"> </tspan><tspan x="22.26" y="131.22">seeing</tspan><tspan class="cls-66" x="60.42" y="131.22"> </tspan><tspan x="63.36" y="131.22">things.</tspan><tspan class="cls-67" x="102.64" y="131.22"> </tspan><tspan x="105.59" y="131.22">God</tspan><tspan class="cls-66" x="131.03" y="131.22"> </tspan><tspan x="133.97" y="131.22">comes</tspan><tspan class="cls-67" x="172.68" y="131.22"> </tspan><tspan x="175.62" y="131.22">to</tspan><tspan class="cls-66" x="188.22" y="131.22"> </tspan><tspan x="191.16" y="131.22">break</tspan><tspan class="cls-66" x="224.7" y="131.22"> </tspan><tspan class="cls-52" x="227.64" y="131.22">open</tspan><tspan class="cls-66" x="257.9" y="131.22"> </tspan><tspan x="260.84" y="131.22">everything</tspan><tspan class="cls-67" x="324.61" y="131.22"> </tspan><tspan x="327.56" y="131.22">that </tspan><tspan x="-26.65" y="145.33">keeps</tspan><tspan class="cls-68" x="8.28" y="145.33"> </tspan><tspan x="11.83" y="145.33">you</tspan><tspan class="cls-68" x="34.26" y="145.33"> </tspan><tspan class="cls-52" x="37.82" y="145.33">closed</tspan><tspan class="cls-68" x="75.89" y="145.33"> </tspan><tspan x="79.45" y="145.33">in.</tspan><tspan class="cls-68" x="93.31" y="145.33"> </tspan><tspan x="96.86" y="145.33">He</tspan><tspan class="cls-68" x="114.6" y="145.33"> </tspan><tspan x="118.16" y="145.33">is</tspan><tspan class="cls-68" x="127.19" y="145.33"> </tspan><tspan x="130.75" y="145.33">encouraging</tspan><tspan class="cls-68" x="204.11" y="145.33"> </tspan><tspan x="207.67" y="145.33">you</tspan><tspan class="cls-68" x="230.09" y="145.33"> </tspan><tspan x="233.65" y="145.33">to</tspan><tspan class="cls-68" x="246.25" y="145.33"> </tspan><tspan x="249.81" y="145.33">dream.</tspan><tspan class="cls-69" x="290.81" y="145.33"> </tspan><tspan x="294.37" y="145.33">He</tspan><tspan class="cls-68" x="312.1" y="145.33"> </tspan><tspan x="315.66" y="145.33">wants </tspan><tspan x="-26.65" y="159.44">to</tspan><tspan class="cls-70" x="-14.05" y="159.44"> </tspan><tspan x="-10.16" y="159.44">make</tspan><tspan class="cls-70" x="22.21" y="159.44"> </tspan><tspan x="26.11" y="159.44">you</tspan><tspan class="cls-70" x="48.53" y="159.44"> </tspan><tspan x="52.43" y="159.44">see</tspan><tspan class="cls-70" x="72.7" y="159.44"> </tspan><tspan x="76.59" y="159.44">that,</tspan><tspan class="cls-70" x="103.64" y="159.44"> </tspan><tspan x="107.54" y="159.44">with</tspan><tspan class="cls-70" x="134.04" y="159.44"> </tspan><tspan x="137.94" y="159.44">you,</tspan><tspan class="cls-70" x="163.33" y="159.44"> </tspan><tspan x="167.22" y="159.44">the</tspan><tspan class="cls-70" x="186.89" y="159.44"> </tspan><tspan x="190.79" y="159.44">world</tspan><tspan class="cls-70" x="225.09" y="159.44"> </tspan><tspan x="228.98" y="159.44">can</tspan><tspan class="cls-70" x="249.87" y="159.44"> </tspan><tspan x="253.77" y="159.44">be</tspan><tspan class="cls-70" x="268.63" y="159.44"> </tspan><tspan x="272.53" y="159.44">different.</tspan><tspan class="cls-70" x="327.37" y="159.44"> </tspan><tspan x="331.27" y="159.44">For </tspan><tspan x="-26.65" y="173.55">the</tspan><tspan class="cls-71" x="-6.98" y="173.55"> </tspan><tspan x="-3.94" y="173.55">fact</tspan><tspan class="cls-72" x="18.87" y="173.55"> </tspan><tspan x="21.92" y="173.55">is,</tspan><tspan class="cls-72" x="33.91" y="173.55"> </tspan><tspan x="36.96" y="173.55">unless</tspan><tspan class="cls-71" x="74.24" y="173.55"> </tspan><tspan x="77.29" y="173.55">you</tspan><tspan class="cls-71" x="99.71" y="173.55"> </tspan><tspan x="102.76" y="173.55">offer</tspan><tspan class="cls-72" x="131.8" y="173.55"> </tspan><tspan x="134.85" y="173.55">the</tspan><tspan class="cls-72" x="154.52" y="173.55"> </tspan><tspan x="157.57" y="173.55">best</tspan><tspan class="cls-71" x="183.14" y="173.55"> </tspan><tspan x="186.18" y="173.55">of</tspan><tspan class="cls-71" x="198.65" y="173.55"> </tspan><tspan x="201.7" y="173.55">yourselves,</tspan><tspan class="cls-71" x="268.28" y="173.55"> </tspan><tspan x="271.33" y="173.55">the</tspan><tspan class="cls-72" x="291" y="173.55"> </tspan><tspan x="294.04" y="173.55">world</tspan><tspan class="cls-71" x="328.34" y="173.55"> </tspan><tspan x="331.39" y="173.55">will </tspan><tspan x="-26.65" y="187.66">never be different. This is the challenge.”</tspan><tspan x="0" y="206.01">“So</tspan><tspan class="cls-73" x="20.13" y="206.01"> </tspan><tspan x="24.7" y="206.01">today,</tspan><tspan class="cls-73" x="61.75" y="206.01"> </tspan><tspan x="66.31" y="206.01">my</tspan><tspan class="cls-73" x="84.75" y="206.01"> </tspan><tspan class="cls-52" x="89.31" y="206.01">friends,</tspan><tspan class="cls-73" x="133.41" y="206.01"> </tspan><tspan x="137.97" y="206.01">Jesus</tspan><tspan class="cls-74" x="170.24" y="206.01"> </tspan><tspan x="174.8" y="206.01">is</tspan><tspan class="cls-73" x="183.83" y="206.01"> </tspan><tspan x="188.39" y="206.01">inviting</tspan><tspan class="cls-74" x="232.65" y="206.01"> </tspan><tspan x="237.21" y="206.01">you,</tspan><tspan class="cls-73" x="262.6" y="206.01"> </tspan><tspan x="267.16" y="206.01">calling</tspan><tspan class="cls-74" x="304.53" y="206.01"> </tspan><tspan x="309.09" y="206.01">you,</tspan><tspan class="cls-73" x="334.48" y="206.01"> </tspan><tspan x="339.04" y="206.01">to </tspan><tspan x="-26.65" y="220.12">leave</tspan><tspan class="cls-75" x="4.69" y="220.12"> </tspan><tspan x="7.54" y="220.12">your</tspan><tspan class="cls-75" x="34.87" y="220.12"> </tspan><tspan x="37.72" y="220.12">mark</tspan><tspan class="cls-75" x="67.78" y="220.12"> </tspan><tspan x="70.63" y="220.12">on</tspan><tspan class="cls-75" x="86.02" y="220.12"> </tspan><tspan x="88.87" y="220.12">life,</tspan><tspan class="cls-75" x="110.01" y="220.12"> </tspan><tspan class="cls-52" x="112.86" y="220.12">to</tspan><tspan class="cls-75" x="125.46" y="220.12"> </tspan><tspan x="128.3" y="220.12">leave</tspan><tspan class="cls-75" x="159.65" y="220.12"> </tspan><tspan x="162.5" y="220.12">a</tspan><tspan class="cls-75" x="169.28" y="220.12"> </tspan><tspan x="172.12" y="220.12">mark</tspan><tspan class="cls-75" x="202.19" y="220.12"> </tspan><tspan x="205.04" y="220.12">on</tspan><tspan class="cls-75" x="220.42" y="220.12"> </tspan><tspan x="223.27" y="220.12">history,</tspan><tspan class="cls-75" x="267.44" y="220.12"> </tspan><tspan x="270.29" y="220.12">your</tspan><tspan class="cls-75" x="297.62" y="220.12"> </tspan><tspan x="300.47" y="220.12">own</tspan><tspan class="cls-75" x="326.72" y="220.12"> </tspan><tspan x="329.57" y="220.12">and </tspan><tspan x="-26.65" y="234.23">that of many others as well.”» </tspan><tspan class="cls-76"><tspan x="0" y="259.62">	</tspan><tspan class="cls-77" x="63.83" y="259.62" xml:space="preserve">              (Pope Francis, in Krakow, 30 July 2016) </tspan></tspan></text><text class="cls-78" transform="translate(475.22 357.36) rotate(-90.31) scale(0.96 1)">LEN<tspan class="cls-79" x="46.36" y="0">T</tspan><tspan x="60.37" y="0" xml:space="preserve"> &amp; EASTER 2020</tspan></text><rect class="cls-12" x="41.51" y="138.63" width="11.36" height="12.68"/><text class="cls-80" transform="translate(474.22 356.49) rotate(-90.31) scale(0.96 1)">LEN<tspan class="cls-79" x="46.36" y="0">T</tspan><tspan x="60.37" y="0" xml:space="preserve"> &amp; EASTER 2020</tspan></text><rect class="cls-32" x="39.55" y="137.06" width="11.36" height="12.68"/><text class="cls-81" transform="translate(473.35 448.18) rotate(-90.31) scale(0.96 1)">i<tspan class="cls-82" x="6.85" y="0">P</tspan><tspan class="cls-83" x="21.15" y="0">r</tspan><tspan class="cls-84" x="30.37" y="0">a</tspan><tspan x="43.27" y="0">y</tspan></text><text class="cls-85" transform="translate(471.54 448.18) rotate(-90.31) scale(0.96 1)">i<tspan class="cls-82" x="6.85" y="0">P</tspan><tspan class="cls-83" x="21.15" y="0">r</tspan><tspan class="cls-84" x="30.37" y="0">a</tspan><tspan x="43.27" y="0">y</tspan></text><path class="cls-13" d="M455.3,373.82c-.45-.62-.88-1.22-1.32-1.8-.15-.2-.05-.29.08-.4A13.26,13.26,0,0,1,456.5,370a17.08,17.08,0,0,1,9.67-1.75,17.42,17.42,0,0,1,6.76,2.06,13.73,13.73,0,0,1,2.58,1.77c.25.21.25.22.06.46-.39.51-.79,1-1.18,1.5-.11.15-.21.17-.36,0a12.79,12.79,0,0,0-6.77-3.18,15.77,15.77,0,0,0-8.13.61,9.71,9.71,0,0,0-3.47,2l-.36.29"/><path class="cls-14" d="M471.27,378a.47.47,0,0,1-.29-.15,8.61,8.61,0,0,0-4.58-2.09,10,10,0,0,0-5.75.69,6.26,6.26,0,0,0-2,1.42c-.2.22-.21.22-.4,0-.41-.56-.81-1.12-1.23-1.67-.12-.16-.09-.24.05-.37a9.11,9.11,0,0,1,3.4-1.89,13.72,13.72,0,0,1,9.48.44,10.3,10.3,0,0,1,2.6,1.57c.14.11.21.2.08.37-.46.57-.91,1.15-1.34,1.71"/><path class="cls-12" d="M468.9,381c-.16.21-.33.42-.48.64s-.25.17-.45,0a6.22,6.22,0,0,0-4.78-.82,5.52,5.52,0,0,0-1.8.76c-.27.17-.28.17-.46-.07l-.95-1.3c-.15-.19-.15-.27.06-.42a7.66,7.66,0,0,1,4.61-1.38,8.24,8.24,0,0,1,4.42,1.34c.52.33.52.33.16.79l-.32.42Z"/><path class="cls-13" d="M455.18,96.13c-.46-.62-.88-1.21-1.33-1.8-.15-.2-.05-.29.09-.4a12.93,12.93,0,0,1,2.44-1.62,17.15,17.15,0,0,1,9.67-1.75,17.42,17.42,0,0,1,6.76,2.06,14.06,14.06,0,0,1,2.58,1.77c.24.21.25.22.06.47l-1.18,1.49c-.12.15-.21.17-.37,0a12.72,12.72,0,0,0-6.77-3.18,15.78,15.78,0,0,0-8.13.61,9.86,9.86,0,0,0-3.47,2,4.49,4.49,0,0,1-.35.29"/><path class="cls-14" d="M471.14,100.3a.42.42,0,0,1-.28-.15,8.76,8.76,0,0,0-4.58-2.09,9.94,9.94,0,0,0-5.76.7,5.93,5.93,0,0,0-2,1.42c-.2.21-.21.21-.4,0-.41-.56-.81-1.12-1.23-1.67-.12-.16-.09-.24,0-.37a9.06,9.06,0,0,1,3.41-1.88,13.66,13.66,0,0,1,9.48.44,10,10,0,0,1,2.6,1.56c.13.11.2.21.08.37-.46.57-.91,1.16-1.35,1.71"/><path class="cls-12" d="M468.78,103.28c-.16.21-.34.41-.49.63s-.25.18-.44,0a6.22,6.22,0,0,0-4.78-.82,5.67,5.67,0,0,0-1.81.76c-.27.17-.27.17-.45-.07-.32-.43-.63-.87-1-1.3-.14-.18-.14-.27.06-.42a7.68,7.68,0,0,1,4.62-1.37,8.26,8.26,0,0,1,4.42,1.33c.52.34.52.34.16.79l-.33.42Z"/><text class="cls-29" transform="translate(742.47 561.18) scale(0.96 1)">LENT</text><text class="cls-29" transform="translate(742.47 582.84) scale(0.96 1)">EASTER</text><text class="cls-30" transform="translate(741.17 561.21) scale(0.96 1)">LENT</text><text class="cls-30" transform="translate(741.17 582.88) scale(0.96 1)">EASTER</text><text class="cls-45" transform="translate(800.61 562.08) scale(0.96 1)">AND</text><text class="cls-46" transform="translate(801.18 561.84) scale(0.96 1)">AND</text></svg>